<?xml version="1.0" encoding="UTF-8"?>
<!DOCTYPE svg PUBLIC "-//W3C//DTD SVG 1.1//EN" "http://www.w3.org/Graphics/SVG/1.1/DTD/svg11.dtd">
<!-- Creator: CorelDRAW 2020 (64-Bit) -->
<svg xmlns="http://www.w3.org/2000/svg" xml:space="preserve" width="155px" height="121px" version="1.1" style="shape-rendering:geometricPrecision; text-rendering:geometricPrecision; image-rendering:optimizeQuality; fill-rule:evenodd; clip-rule:evenodd"
viewBox="0 0 155 121"
 xmlns:xlink="http://www.w3.org/1999/xlink"
 xmlns:xodm="http://www.corel.com/coreldraw/odm/2003">
 <defs>
  <style type="text/css">
   <![CDATA[
    .fil0 {fill:#B0CB1F}
    .fil1 {fill:#818E11}
   ]]>
  </style>
   <mask id="id0">
  <linearGradient id="id1" gradientUnits="userSpaceOnUse" x1="29.5" y1="97.5" x2="163.5" y2="12.5">
   <stop offset="0" style="stop-opacity:1; stop-color:white"/>
   <stop offset="1" style="stop-opacity:0; stop-color:white"/>
  </linearGradient>
    <rect style="fill:url(#id1)" x="-0.5" y="0.5" width="155" height="121"/>
   </mask>
 </defs>
 <g id="Слой_x0020_1">
  <metadata id="CorelCorpID_0Corel-Layer"/>
  <path class="fil0" d="M76.43 121.5c0,0 15.71,-6.91 17.92,-9.94 2.2,-3.02 9.76,-9 12.85,-11.16 3.08,-2.16 27.6,-18.94 30.54,-22.54 2.94,-3.6 10.28,-7.49 11.31,-10.37 1.02,-2.88 2.05,-4.32 -1.18,-6.04 -3.23,-1.73 -2.93,-3.89 1.18,-7.06 4.11,-3.17 6.31,-4.61 5.14,-6.05 -1.18,-1.44 0.73,-3.74 -1.18,-4.75 -1.91,-1.01 -6.17,-2.31 -5.73,-4.32 0.44,-2.02 0.45,-8.36 -4.4,-13.54 -4.85,-5.19 -6.17,-4.03 -8.81,-5.33 -2.65,-1.3 -1.32,-3.02 -4.41,-5.47 -3.08,-2.45 -7.04,-5.04 -8.81,-4.75 -1.76,0.28 -6.31,3.74 -7.49,1.87 -1.17,-1.87 -2.93,-9.8 -11.45,-1.73 -8.52,8.06 -24.96,22.61 -25.85,19.59 -0.88,-3.03 -0.88,-5.48 -3.23,-7.06 -2.34,-1.59 -3.52,-2.88 -5.13,-5.62 -1.62,-2.73 -1.77,-3.45 -5.44,-4.46 -3.67,-1.01 -6.31,-3.6 -8.96,-6.19 -2.64,-2.6 -3.08,-2.45 -6.16,-0.87 -3.09,1.58 -4.7,4.32 -6.46,0.43 -1.77,-3.89 -3.53,-5.9 -5.58,-5.61 -2.06,0.28 -17.48,9.36 -20.27,12.67 -2.79,3.31 -2.05,5.9 -7.19,8.21 -5.14,2.3 -6.61,2.45 -6.32,4.46 0.3,2.02 -0.44,4.04 1.76,5.62 2.21,1.58 2.35,1.58 0.3,3.89 -2.06,2.3 -3.67,4.32 -3.38,6.33 0.29,2.02 0,4.61 -0.29,6.92 -0.3,2.3 -0.74,7.63 2.35,8.78 3.08,1.16 4.25,1.3 6.02,1.59 1.76,0.28 2.05,2.88 0.73,4.46 -1.32,1.59 -2.2,4.18 1.18,5.33 3.37,1.15 7.19,1.73 5.58,3.89 -1.62,2.16 -2.65,5.04 0.88,5.76 3.52,0.72 3.81,-1.01 5.58,1.44 1.76,2.45 7.63,6.62 9.69,7.06 2.05,0.43 3.08,-5.04 4.4,-3.75 1.33,1.3 1.32,3.03 1.91,5.33 0.59,2.31 3.53,4.03 4.56,4.9 1.02,0.86 3.67,2.16 3.96,3.45 0.29,1.3 1.61,4.32 3.08,4.04 1.47,-0.29 2.79,0 1.62,2.44 -1.18,2.45 -2.35,2.31 0.59,4.47 2.93,2.16 4.11,1.87 5.72,3.89 1.62,2.01 3.97,2.88 6.02,1.58 2.06,-1.29 3.68,-3.6 4.7,-1.73 1.03,1.88 3.53,4.04 4.7,4.9 1.18,0.86 -0.59,3.46 3.45,5.04z"/>
  <path class="fil1" style="mask:url(#id0)" d="M76.43 121.5c0,0 15.71,-6.91 17.92,-9.94 2.2,-3.02 9.76,-9 12.85,-11.16 3.08,-2.16 27.6,-18.94 30.54,-22.54 2.94,-3.6 10.28,-7.49 11.31,-10.37 1.02,-2.88 2.05,-4.32 -1.18,-6.04 -3.23,-1.73 -2.93,-3.89 1.18,-7.06 4.11,-3.17 6.31,-4.61 5.14,-6.05 -1.18,-1.44 0.73,-3.74 -1.18,-4.75 -1.91,-1.01 -6.17,-2.31 -5.73,-4.32 0.44,-2.02 0.45,-8.36 -4.4,-13.54 -4.85,-5.19 -6.17,-4.03 -8.81,-5.33 -2.65,-1.3 -1.32,-3.02 -4.41,-5.47 -3.08,-2.45 -7.04,-5.04 -8.81,-4.75 -1.76,0.28 -6.31,3.74 -7.49,1.87 -1.17,-1.87 -2.93,-9.8 -11.45,-1.73 -8.52,8.06 -24.96,22.61 -25.85,19.59 -0.88,-3.03 -0.88,-5.48 -3.23,-7.06 -2.34,-1.59 -3.52,-2.88 -5.13,-5.62 -1.62,-2.73 -1.77,-3.45 -5.44,-4.46 -3.67,-1.01 -6.31,-3.6 -8.96,-6.19 -2.64,-2.6 -3.08,-2.45 -6.16,-0.87 -3.09,1.58 -4.7,4.32 -6.46,0.43 -1.77,-3.89 -3.53,-5.9 -5.58,-5.61 -2.06,0.28 -17.48,9.36 -20.27,12.67 -2.79,3.31 -2.05,5.9 -7.19,8.21 -5.14,2.3 -6.61,2.45 -6.32,4.46 0.3,2.02 -0.44,4.04 1.76,5.62 2.21,1.58 2.35,1.58 0.3,3.89 -2.06,2.3 -3.67,4.32 -3.38,6.33 0.29,2.02 0,4.61 -0.29,6.92 -0.3,2.3 -0.74,7.63 2.35,8.78 3.08,1.16 4.25,1.3 6.02,1.59 1.76,0.28 2.05,2.88 0.73,4.46 -1.32,1.59 -2.2,4.18 1.18,5.33 3.37,1.15 7.19,1.73 5.58,3.89 -1.62,2.16 -2.65,5.04 0.88,5.76 3.52,0.72 3.81,-1.01 5.58,1.44 1.76,2.45 7.63,6.62 9.69,7.06 2.05,0.43 3.08,-5.04 4.4,-3.75 1.33,1.3 1.32,3.03 1.91,5.33 0.59,2.31 3.53,4.03 4.56,4.9 1.02,0.86 3.67,2.16 3.96,3.45 0.29,1.3 1.61,4.32 3.08,4.04 1.47,-0.29 2.79,0 1.62,2.44 -1.18,2.45 -2.35,2.31 0.59,4.47 2.93,2.16 4.11,1.87 5.72,3.89 1.62,2.01 3.97,2.88 6.02,1.58 2.06,-1.29 3.68,-3.6 4.7,-1.73 1.03,1.88 3.53,4.04 4.7,4.9 1.18,0.86 -0.59,3.46 3.45,5.04z"/>
 </g>
</svg>
