<?xml version="1.0" encoding="UTF-8"?>
<!DOCTYPE svg PUBLIC "-//W3C//DTD SVG 1.1//EN" "http://www.w3.org/Graphics/SVG/1.1/DTD/svg11.dtd">
<!-- Creator: CorelDRAW 2020 (64-Bit) -->
<svg xmlns="http://www.w3.org/2000/svg" xml:space="preserve" width="217px" height="130px" version="1.1" style="shape-rendering:geometricPrecision; text-rendering:geometricPrecision; image-rendering:optimizeQuality; fill-rule:evenodd; clip-rule:evenodd"
viewBox="0 0 217 130"
 xmlns:xlink="http://www.w3.org/1999/xlink"
 xmlns:xodm="http://www.corel.com/coreldraw/odm/2003">
 <defs>
  <style type="text/css">
   <![CDATA[
    .fil0 {fill:white}
    .fil1 {fill:white;fill-rule:nonzero}
   ]]>
  </style>
 </defs>
 <g id="Слой_x0020_1">
  <metadata id="CorelCorpID_0Corel-Layer"/>
  <g id="_2509187415584">
   <path class="fil0" d="M30.69 118.4c-0.45,-1.14 -0.89,-2.29 -1.31,-3.44l-0.19 -0.52 0.49 -0.26c0.42,-0.23 0.53,-0.63 0.53,-1.09 0,-0.5 -0.13,-0.94 -0.39,-1.36 -0.2,-0.32 -0.44,-0.49 -0.82,-0.49 -0.12,0 -0.24,0 -0.35,0l-0.47 0 -0.14 -0.43c-0.35,-1.04 -0.63,-2.16 -0.89,-3.23 -0.45,-1.84 -0.86,-3.7 -1.26,-5.56 -0.35,-1.62 -0.75,-3.23 -1.24,-4.82 -0.38,-1.22 -0.81,-2.44 -1.36,-3.6 -0.49,-1.02 -1.2,-1.77 -2.38,-1.77 -1.66,0 -2.66,1.14 -3.33,2.56 -0.24,0.53 -0.46,1.09 -0.66,1.64 -0.35,0.92 -0.67,1.86 -0.99,2.79 -1.01,2.98 -1.96,5.99 -2.89,8.99 -0.93,2.99 -1.86,5.99 -2.69,9.01 -0.24,0.86 -0.47,1.73 -0.67,2.6 -0.07,0.35 -0.21,0.89 -0.21,1.24 0,1.08 0.46,1.49 1.53,1.49 0.08,-0.02 0.26,-0.2 0.31,-0.26 0.26,-0.3 0.48,-0.7 0.66,-1.05 0.3,-0.59 0.56,-1.21 0.79,-1.83 0.32,-0.84 0.6,-1.7 0.86,-2.56l0.13 -0.4 12.52 -1.49 0.17 0.47c0.39,1 0.75,2.01 1.08,3.03 0.2,0.6 0.4,1.2 0.61,1.8 0.11,0.31 0.23,0.66 0.38,0.95 0.33,0.63 0.86,1.34 1.64,1.34 0.3,0 1.12,-0.03 1.31,-0.34 0.05,-0.07 0.06,-0.16 0.06,-0.24 0,-0.35 -0.11,-0.81 -0.2,-1.14 -0.18,-0.69 -0.4,-1.37 -0.63,-2.03zm-6.12 -6.7c-2.96,0.71 -6.07,1.07 -9.1,1.28l-0.93 0.06 0.27 -0.89c1.65,-5.48 3.35,-10.94 5.09,-16.38 1.28,-3.98 4.67,13.46 5.31,15.78l-0.64 0.15zm28.82 -2.06c0,1.56 -0.03,3.11 -0.06,4.67 -0.03,1.54 -0.06,3.09 -0.06,4.64 0,0.69 0.06,2.78 0.84,3.14 0.09,0.04 0.19,0.06 0.3,0.06 0.48,0 0.86,-0.24 1.19,-0.58 0.34,-0.34 0.57,-0.74 0.57,-1.23 0,-0.74 -0.02,-1.49 -0.03,-2.23 -0.03,-1.89 -0.06,-3.78 -0.09,-5.68 -0.02,-1.52 -0.07,-3.05 -0.2,-4.56 -0.08,-0.92 -0.18,-1.92 -0.41,-2.81 -0.6,-2.33 -1.83,-4.15 -4.16,-4.94 -0.58,-0.19 -1.19,-0.28 -1.81,-0.28 -2.7,0 -4.76,1.55 -6.36,3.62l-0.86 1.11 -0.28 -1.38c-0.17,-0.86 -0.43,-1.94 -0.84,-2.72 -0.09,-0.16 -0.36,-0.63 -0.58,-0.63 -0.5,0 -0.85,0.25 -1.12,0.66 -0.34,0.5 -0.53,1.04 -0.53,1.65 0,1.42 0.11,2.89 0.22,4.31 0.11,1.45 0.22,2.94 0.22,4.4 0,1.22 0,2.45 0,3.68 0,1.23 0,2.45 0,3.68 0,0.78 0.05,3.33 0.96,3.72 0.09,0.04 0.19,0.05 0.29,0.05 0.51,0 0.85,-0.29 1.11,-0.72 0.31,-0.5 0.46,-1.05 0.46,-1.64 0,-0.91 -0.09,-1.86 -0.18,-2.77 -0.09,-0.95 -0.18,-1.93 -0.18,-2.89 0,-2.32 0.4,-4.62 1.42,-6.72 1.13,-2.33 2.91,-3.92 5.59,-3.92 1.63,0 3.26,0.46 4.03,2.02l0.01 0 0 0.01c0.51,1.09 0.54,3.09 0.54,4.28zm26.42 6.38c0.41,-1.12 0.85,-2.3 1.15,-3.45l0.01 -0.01 0 0c0.06,-0.19 0.17,-0.57 0.17,-0.77 0,-0.54 -0.48,-0.87 -0.91,-1.09 -0.6,-0.31 -1.24,-0.48 -1.92,-0.48 -0.31,0 -0.58,0.08 -0.83,0.25 -0.18,0.13 -0.26,0.27 -0.26,0.49 0,0.25 0.07,0.58 0.12,0.83 0.07,0.34 0.15,0.74 0.15,1.1 0,1.39 -0.62,2.75 -1.36,3.9 -0.74,1.15 -1.86,2.42 -3.35,2.42 -1.52,0 -2.19,-1.55 -2.51,-2.81 -0.32,-1.21 -0.46,-2.46 -0.46,-3.71 0,-0.4 0.03,-0.81 0.07,-1.21 0.05,-0.65 0.11,-1.29 0.18,-1.93 0.22,-2.04 0.48,-4.07 0.74,-6.1l0.07 -0.47 0.47 -0.08c1.77,-0.29 3.54,-0.59 5.31,-0.89 0.49,-0.09 0.97,-0.17 1.46,-0.27 0.2,-0.03 0.43,-0.07 0.62,-0.12 0.68,-0.19 1.54,-0.53 1.54,-1.36 0,-0.43 -0.18,-0.78 -0.48,-1.08 -0.31,-0.3 -0.65,-0.48 -1.08,-0.48 -1.1,0 -2.23,0.17 -3.3,0.4 -1.12,0.25 -2.24,0.5 -3.37,0.73l-0.89 0.18 0.13 -0.9c0.04,-0.3 0.15,-0.66 0.22,-0.96 0.18,-0.71 0.36,-1.42 0.54,-2.13 0.24,-0.94 1.48,-10.22 1.48,-11.19 0,-0.31 -0.04,-1 -0.33,-1.2 -0.1,-0.06 -0.22,-0.08 -0.33,-0.08 -2.59,0 -4.32,14.75 -4.49,16.42l-0.05 0.51 -0.51 0.07c-0.73,0.09 -1.47,0.19 -2.2,0.32 -0.37,0.06 -0.79,0.13 -1.15,0.24 -0.87,0.31 -1.57,0.8 -1.57,1.8 0,0.34 0.1,0.64 0.31,0.92 0.16,0.22 0.35,0.33 0.62,0.33 0.09,0 0.2,-0.02 0.29,-0.03 0.22,-0.03 0.44,-0.06 0.66,-0.09 0.76,-0.12 1.53,-0.25 2.3,-0.39l0.82 -0.14 -0.07 0.83c-0.05,0.53 -0.11,1.06 -0.17,1.58 -0.12,0.98 -0.23,1.96 -0.35,2.95 -0.17,1.47 -0.31,2.99 -0.31,4.47 0,2 0.38,3.93 1.24,5.74 0.8,1.67 1.98,3.07 3.96,3.07 1.73,0 3.25,-0.87 4.51,-1.98 1.33,-1.16 2.38,-2.54 3.11,-4.15zm9.55 -18.04c0.06,-0.05 0.11,-0.1 0.15,-0.13 0.18,-0.15 0.69,-0.41 0.87,-0.51 0.72,-0.4 1.45,-0.79 2.17,-1.19 0.46,-0.25 1.68,-0.98 1.68,-1.61 0,-0.74 -0.28,-1.35 -0.78,-1.89 -0.48,-0.52 -1.06,-0.82 -1.77,-0.82 -0.99,0 -1.88,0.4 -2.66,0.98l-0.01 0 0 0.01c-0.72,0.51 -1.35,1.19 -1.35,2.12 0,0.52 0.48,1.4 0.74,1.84 0.2,0.33 0.43,0.71 0.71,0.98 0.04,0.05 0.16,0.16 0.25,0.22zm2.78 23.04c-0.01,-0.14 -0.03,-0.31 -0.05,-0.45 -0.04,-0.38 -0.08,-0.76 -0.13,-1.14 -0.13,-1.16 -0.14,-2.4 -0.14,-3.56 0,-1.67 0.04,-3.35 0.08,-5.03 0.04,-1.68 0.08,-3.37 0.08,-5.05 0,-0.82 -0.07,-2.67 -0.93,-3.14 -0.17,-0.09 -0.37,-0.13 -0.56,-0.13 -0.16,0 -0.31,0.03 -0.45,0.09 -1.13,0.52 -1.19,3.29 -1.19,4.29 0,2.09 0.03,4.18 0.07,6.27 0.04,2.1 0.08,4.2 0.08,6.3 0,0.7 0.07,2.11 0.77,2.53 0.18,0.11 0.39,0.15 0.6,0.15 0.48,0 1.28,-0.06 1.59,-0.48 0.14,-0.19 0.18,-0.42 0.18,-0.65zm7.94 -20.01c0,2.44 0.06,4.89 0.12,7.33 0.05,2.43 0.12,4.87 0.15,7.3 0.04,2.71 0.08,5.42 0.13,8.12 0.02,0.79 0.03,1.59 0.06,2.38 0.01,0.4 0.02,0.81 0.05,1.22 0.05,0.63 0.23,2.28 0.93,2.58 0.1,0.04 0.2,0.06 0.3,0.06 0.2,0 0.39,-0.03 0.56,-0.13 0.76,-0.43 0.83,-2.03 0.83,-2.78 0,-0.76 0.04,-1.52 0.08,-2.28l0 -0.01 0 0c0.06,-0.73 0.12,-1.48 0.12,-2.21l0 -0.53 0.53 -0.1c3.8,-0.7 7,-3.17 9.56,-5.96 2.51,-2.73 4.75,-6.17 4.75,-10.02 0,-1.69 -0.49,-3.2 -1.64,-4.45 -1.14,-1.24 -2.56,-1.77 -4.23,-1.77 -3.11,0 -5.96,1.25 -8.47,3l-0.89 0.63 -0.12 -1.09c-0.06,-0.6 -0.24,-1.18 -0.55,-1.71 -0.22,-0.39 -0.57,-0.83 -1.06,-0.83 -0.34,0 -0.62,0.11 -0.86,0.36 -0.24,0.25 -0.35,0.54 -0.35,0.89zm3.19 5.72c1.18,-0.89 2.37,-1.77 3.56,-2.64l0.02 -0.02 0.01 -0.01c1.3,-0.84 2.84,-1.56 4.42,-1.56 1.13,0 2.18,0.32 3.09,1 0.95,0.71 1.42,1.69 1.42,2.88 0,3 -2.23,5.79 -4.26,7.79 -2.09,2.08 -4.58,4 -7.38,5.01l-0.87 0.31 0.01 -0.93c0.04,-2.08 0.04,-4.16 -0.01,-6.24 -0.04,-1.67 -0.12,-3.35 -0.26,-5.02l-0.03 -0.35 0.28 -0.22zm37.34 13.88c0.15,0.44 0.56,1.54 1.16,1.54 0.37,0 0.67,-0.15 0.93,-0.39 0.25,-0.22 0.4,-0.48 0.4,-0.82 0,-0.56 -0.18,-1.28 -0.33,-1.81 -0.18,-0.68 -0.38,-1.48 -0.38,-2.19 0,-2.61 0.07,-5.23 0.14,-7.84 0.07,-2.6 0.14,-5.21 0.14,-7.81 0,-0.42 -0.08,-0.83 -0.32,-1.18l-0.01 0 0 -0.01c-0.2,-0.3 -0.43,-0.5 -0.8,-0.5 -0.96,0 -1.43,0.32 -1.45,1.31l-0.01 0.39 -0.6 0.3 -0.2 -0.03c-0.68,-0.09 -1.46,-0.33 -2.12,-0.53l-0.01 -0.01 -0.01 0c-0.53,-0.18 -1.24,-0.4 -1.8,-0.4 -2.47,0 -4.72,1.97 -6.27,3.69 -1.78,1.98 -3.25,4.2 -4.18,6.7 -0.46,1.25 -0.71,2.55 -0.71,3.88 0,1.7 0.32,3.42 1.27,4.85 0.98,1.46 2.34,2.12 4.09,2.12 1.79,0 3.5,-0.46 5.1,-1.24 1.62,-0.77 3.07,-1.81 4.23,-3.19l0.89 -1.04 0.24 1.35c0.11,0.6 0.22,1.21 0.35,1.81 0.07,0.34 0.15,0.71 0.26,1.05zm-0.56 -11.68c0,2.77 -1.14,5.1 -3.09,7.05 -1.95,1.94 -4.3,3.08 -7.07,3.08 -2.08,0 -3.33,-1.09 -3.33,-3.21 0,-2.66 1.28,-5.34 2.67,-7.54 1.37,-2.17 3.49,-4.74 6.31,-4.74 3.33,0 4.51,2.34 4.51,5.36zm22.64 -3.72c0.02,0.18 0.4,0.41 0.53,0.49l0.01 0 0.01 0c0.31,0.18 0.69,0.35 1.06,0.35 0.6,0 1,-0.36 1.3,-0.87 0.35,-0.59 0.5,-1.23 0.5,-1.92 0,-0.13 -0.02,-0.26 -0.07,-0.38 -1.06,-2.54 -3.72,-3.12 -6.23,-3.12 -2.2,0 -4.14,0.68 -5.83,2.07 -1.71,1.4 -2.65,3.16 -2.65,5.37 0,0.28 0.04,0.56 0.15,0.83 0.76,1.84 2.38,3.14 4.09,4.07 0.73,0.39 1.5,0.72 2.27,1.02 1.1,0.43 2.23,0.82 3.35,1.2 0.77,0.25 1.59,0.53 2.32,0.89 0.45,0.23 1.04,0.55 1.21,1.06l0.09 0.27 -0.14 0.25c-0.55,0.96 -2.14,1.5 -3.14,1.8 -1.07,0.33 -2.29,0.62 -3.42,0.62 -1.09,0 -2.13,-0.25 -3.06,-0.82 -0.27,-0.17 -0.52,-0.38 -0.75,-0.58 -0.34,-0.3 -0.66,-0.61 -0.98,-0.93 -0.16,-0.14 -0.63,-0.55 -0.86,-0.55 -0.45,0 -0.83,0.21 -1.15,0.52 -0.3,0.29 -0.53,0.63 -0.53,1.06 0,1.03 1.33,2.05 2.08,2.56 1.04,0.7 2.29,1.37 3.54,1.57 0.44,0.07 0.9,0.11 1.35,0.11 1.79,0 3.76,-0.62 5.41,-1.26 1.22,-0.47 3.58,-1.5 4.05,-2.85 0.19,-0.53 0.28,-1.06 0.28,-1.61 0,-1.8 -1.94,-3.07 -3.34,-3.81 -1.94,-0.84 -3.87,-1.67 -5.82,-2.48l-0.01 0 -0.01 -0.01c-1.02,-0.47 -2.15,-1.04 -3.03,-1.74 -0.59,-0.47 -1.21,-1.12 -1.21,-1.93 0,-1.45 1.08,-2.44 2.27,-3.09l0 0 0.01 -0.01c1.11,-0.58 2.31,-0.94 3.57,-0.94 0.95,0 2.87,0.03 3.24,1.15 0.03,0.12 0.05,0.24 0.05,0.36 0,0.35 -0.17,0.7 -0.36,0.98 -0.04,0.07 -0.13,0.22 -0.15,0.3zm12.93 -4.1c-0.88,0.31 -1.58,0.8 -1.58,1.8 0,0.34 0.11,0.64 0.31,0.92 0.16,0.22 0.35,0.33 0.63,0.33 0.08,0 0.19,-0.02 0.28,-0.03 0.22,-0.03 0.44,-0.06 0.66,-0.09 0.77,-0.12 1.54,-0.25 2.3,-0.39l0.83 -0.14 -0.08 0.83c-0.05,0.53 -0.11,1.06 -0.17,1.58 -0.11,0.98 -0.23,1.96 -0.34,2.95 -0.17,1.47 -0.31,2.99 -0.31,4.47 0,2 0.38,3.93 1.24,5.74 0.79,1.67 1.98,3.07 3.96,3.07 1.72,0 3.24,-0.87 4.51,-1.98 1.33,-1.16 2.37,-2.54 3.1,-4.15 0.41,-1.12 0.85,-2.3 1.16,-3.45l0 -0.01 0 0c0.06,-0.19 0.17,-0.57 0.17,-0.77 0,-0.54 -0.47,-0.87 -0.91,-1.09 -0.6,-0.31 -1.24,-0.48 -1.92,-0.48 -0.3,0 -0.58,0.08 -0.83,0.25 -0.18,0.13 -0.26,0.27 -0.26,0.49 0,0.25 0.07,0.58 0.12,0.83 0.08,0.34 0.16,0.74 0.16,1.1 0,1.39 -0.63,2.75 -1.37,3.9 -0.74,1.15 -1.86,2.42 -3.34,2.42 -1.52,0 -2.19,-1.55 -2.52,-2.81 -0.32,-1.21 -0.46,-2.46 -0.46,-3.71 0,-0.4 0.04,-0.81 0.07,-1.21 0.05,-0.65 0.12,-1.29 0.18,-1.93 0.22,-2.04 0.48,-4.07 0.75,-6.1l0.06 -0.47 0.47 -0.08c1.77,-0.29 3.54,-0.59 5.31,-0.89 0.49,-0.09 0.98,-0.17 1.46,-0.27 0.2,-0.03 0.43,-0.07 0.62,-0.12 0.68,-0.19 1.55,-0.53 1.55,-1.36 0,-0.43 -0.18,-0.78 -0.49,-1.08 -0.3,-0.3 -0.65,-0.48 -1.08,-0.48 -1.1,0 -2.23,0.17 -3.3,0.4 -1.12,0.25 -2.24,0.5 -3.36,0.73l-0.9 0.18 0.13 -0.9c0.05,-0.3 0.15,-0.66 0.23,-0.96 0.18,-0.71 2.18,-11.58 2.35,-12.29 0.24,-0.93 1.1,-6.31 1.1,-7.27 0,-0.31 -0.03,-1.01 -0.33,-1.21 -0.09,-0.06 -0.22,-0.08 -0.32,-0.08 -2.59,0 -5.77,21 -5.94,22.67l-0.05 0.51 -0.5 0.07c-0.74,0.09 -1.48,0.19 -2.21,0.32 -0.37,0.06 -0.79,0.13 -1.14,0.24zm24.89 -3.13c0.06,-0.05 0.12,-0.1 0.16,-0.13 0.18,-0.15 0.68,-0.41 0.86,-0.51 0.72,-0.4 1.45,-0.79 2.17,-1.19 0.46,-0.25 1.68,-0.98 1.68,-1.61 0,-0.74 -0.28,-1.35 -0.77,-1.89 -0.49,-0.52 -1.06,-0.82 -1.78,-0.82 -0.99,0 -1.88,0.4 -2.66,0.98l0 0 -0.01 0.01c-0.72,0.51 -1.35,1.19 -1.35,2.12 0,0.52 0.49,1.4 0.75,1.84 0.19,0.33 0.43,0.71 0.7,0.98 0.04,0.05 0.16,0.16 0.25,0.22zm2.78 23.04c-0.01,-0.14 -0.03,-0.31 -0.04,-0.45 -0.04,-0.38 -0.09,-0.76 -0.13,-1.14 -0.14,-1.16 -0.15,-2.4 -0.15,-3.56 0,-1.67 0.04,-3.35 0.08,-5.03 0.04,-1.68 0.08,-3.37 0.08,-5.05 0,-0.82 -0.07,-2.67 -0.93,-3.14 -0.17,-0.09 -0.36,-0.13 -0.56,-0.13 -0.15,0 -0.31,0.03 -0.45,0.09 -1.12,0.52 -1.19,3.29 -1.19,4.29 0,2.09 0.04,4.18 0.08,6.27 0.04,2.1 0.08,4.2 0.08,6.3 0,0.7 0.07,2.11 0.76,2.53 0.18,0.11 0.4,0.15 0.61,0.15 0.47,0 1.27,-0.06 1.59,-0.48 0.13,-0.19 0.17,-0.42 0.17,-0.65z"/>
   <g>
    <path class="fil1" d="M87.47 58.24l0.52 0.06c1,0.21 2.02,0.39 3.04,0.5 0.34,0.03 0.73,0.05 1.16,0.06 1.46,0.19 2.84,0.35 4.22,0.4 5.95,0.23 11.89,0.43 17.84,0.54l-0.78 2.05c0,0 1.59,-0.02 3.99,0.52 -1.32,0.07 -2.63,0.13 -3.95,0.18 -0.13,-0.01 -0.24,0 -0.34,0.01l0 0c-1.43,0.06 -2.85,0.11 -4.28,0.16 -8.17,0.29 -16.58,-0.43 -24.61,-2.02 -4.71,-0.94 -15.82,-3.3 -20.08,-5.51 -1.19,-0.61 -3.14,-1.98 -4.87,-2.57l-14.29 -8.9c2.15,1.34 -4.68,-4.18 -5.86,-5.02 -0.56,-0.64 -1.21,-1.24 -1.94,-1.82 -2.55,-1.98 -4.88,-4.24 -7.26,-6.43 -1.05,-1.24 -7.36,-8.84 -9.17,-11.53 -0.16,-0.24 -1.24,-2.05 -1.24,-2.06l-0.01 -0.17c0,-0.17 -0.02,-0.36 -0.04,-0.52l0 -0.01c-0.04,-0.35 -0.12,-0.7 -0.23,-1.05l0 0c-0.11,-0.32 -0.24,-0.63 -0.41,-0.94l0 0c-0.29,-0.53 -0.68,-1.05 -1.18,-1.57 -1.64,-1.74 -1.08,-3.02 -0.8,-5.14 1.04,0.7 0.71,-0.97 1.47,-0.28 0.52,0.46 2.22,3.31 2.41,3.98 0.33,1.22 0.86,2.19 1.54,2.98l0 0c0,0 1.56,3.19 4.19,6.77l-0.01 0 -0.01 0 -0.01 0 -0.04 0.01 -0.01 0 -0.01 0 -0.02 0 -0.02 0 0.05 0.07 0.05 0.07 0 0 0.05 0.07 0.06 0.06 0 0.01 0.05 0.06 0.05 0.07 0 0.01 0.05 0.06 0.05 0.07 0.01 0 0.05 0.07 0.05 0.07 0 0.01 0.05 0.06 0.05 0.07 0 0.01 0.05 0.06 0.05 0.07 0.01 0.01 0.05 0.06 0.05 0.07 0 0.01 0.05 0.06 0.05 0.07 0 0.01 0.05 0.06 0.05 0.07 0.01 0.01 0.04 0.06 0.05 0.07 0.01 0.01 0.04 0.06 0.05 0.08 0.01 0 0.05 0.07 0 0.01 0.09 0.12 0.01 0.01 0.05 0.07 0 0.01 0.05 0.06 0.05 0.07 0.01 0.01 0.04 0.06 0.05 0.07 0.01 0.01 0.04 0.06 0.05 0.08 0.01 0.01 0.04 0.06 0.05 0.07 0.01 0.01 0.04 0.06 0.05 0.07 0.01 0.01 0.04 0.06 0.05 0.07 0.01 0.02 0.04 0.05 0.05 0.07 0.01 0.02 0.04 0.06 0.05 0.07 0.01 0.01 0.04 0.06 0.05 0.07 0.02 0.01 0.04 0.06 0.04 0.07 0.02 0.02 0.04 0.05 0.05 0.07 0.01 0.02 0.04 0.05 0.05 0.07 0.01 0.02 0.04 0.06 0.05 0.07 0.01 0.02 0.04 0.05 0.05 0.07 0.01 0.02 0.04 0.05 0.05 0.07 0.02 0.02 0.03 0.05 0.05 0.07 0.02 0.02 0.04 0.05 0.05 0.07 0.01 0.02 0.04 0.05 0.05 0.07c1.1,1.52 2.25,2.98 3.59,4.24 4.46,4.24 9.37,8.02 14.13,11.93 0.16,0.14 16.29,9.95 16.93,10.22 4.25,1.82 8.3,2.7 12.69,4.17 1.02,0.34 8.21,1.67 10.56,2.21l-0.07 0.04z"/>
    <path class="fil1" d="M32.25 29.51c-0.49,-0.33 2.61,4.5 4.14,8.98 1.53,4.47 2.99,10.48 3.69,15.37 0.83,5.76 0.7,11.48 -0.44,17.21 -0.73,3.68 -3.45,6.53 -2.37,10.33 0.16,0.52 -0.39,1.65 -0.86,1.83 -0.52,0.2 -1.57,-0.19 -1.97,-0.67 -2.15,-2.54 -4.45,-5.01 -6.16,-7.83 -2.67,-4.39 -3.26,-9.43 -2.79,-14.44 0.43,-4.59 1.49,-9.12 2,-13.89 1.71,-12.92 0.62,-11.9 1.03,-19.29 -2.61,0.73 2.54,-2.55 3.73,2.4zm-0.36 3.84c-0.76,4.11 -1.27,13.73 -2.03,17.83 -1.18,6.38 -2.34,12.73 -0.33,19.18 0.74,2.36 2.14,6.48 4.62,7.27 5.42,-11.46 4.74,-30.71 -2.26,-44.28z"/>
    <path class="fil1" d="M22.88 17.51c2.3,1.9 5.37,2.37 8.44,2.8 1.01,0.14 2.1,-0.14 3.13,-0.34 1.94,-0.37 5.37,-0.79 6.94,-1.87 4.77,-3.28 9.43,-6.72 14.33,-9.79 5.17,-3.24 11.21,-3.76 17.09,-4.65 1.4,-0.21 2.8,-0.5 4.21,-0.63 1.88,-0.18 3.78,-0.37 5.66,-0.29 0.65,0.03 1.65,0.75 1.79,1.32 0.15,0.61 -0.34,1.77 -0.89,2.08 -6.66,3.78 -11.42,9.65 -16.8,14.85 -5.33,5.15 -12.11,6.21 -19.15,6.37 -1.37,0.03 -2.75,0.34 -4.09,0.18 -3.04,-0.38 -6.1,-0.79 -9.07,-1.53 -1.43,-0.36 -2.71,-1.03 -3.8,-1.41l-0.03 -0.01 -0.01 0 -0.02 -0.01 -0.03 -0.01 -0.03 -0.01 0 0 -0.03 -0.01 -0.04 -0.01 -0.01 -0.01 -0.02 0 -0.03 -0.01 -0.03 -0.01 0 0 -0.03 -0.01 -0.03 -0.01 -0.02 0 -0.01 -0.01 -0.03 0 -0.03 -0.01 -0.01 -0.01 -0.02 0 0 0 -0.06 -0.02 0 0 -0.03 0 -0.03 -0.01 -0.02 0 -0.01 -0.01 -0.03 0 -0.03 -0.01 0 0 -0.02 -0.01 -0.05 -0.01 -0.01 0 0 0 -0.03 0 -0.03 -0.01 -0.01 0 -0.02 0 -0.02 -0.01 -0.03 0 -0.01 0 -0.02 -0.01 -0.03 0 -0.02 0 -0.01 0 -0.02 -0.01 -0.03 0 -0.01 0 -0.02 0 -0.03 -0.01 -0.02 0 0 0 -0.03 0 -0.03 0 -0.02 0 -0.06 0 0 -0.01 -0.02 0 -0.03 0 -0.02 0 -0.01 0.01 -0.02 0 -0.03 0 -0.02 0 -0.05 0 0 0 -0.03 0 -0.02 0.01 -1.61 0.09 1.58 -0.09 -0.05 0.01 0 0 0 0 -1.26 0.07c-3.74,-3.54 -4.95,-6.92 -4.95,-6.92l0 0zm13.09 5.9c0.85,0.24 1.77,0.41 2.74,0.52l0 0 0 0 0.03 0.01 0.03 0 0.01 0.01 0.02 0 0.03 0.01 0.01 0 0.01 0 0.03 0 0.03 0.01 0 0 0.03 0 0.03 0.01 0 0 0.02 0 0.03 0.01 0.01 0 0.02 0 0.03 0.01 0.02 0 0 0 0.03 0 0.03 0.01 0 0 0.03 0 0.02 0.01 0.01 0 0.02 0 0.03 0 0.01 0.01 0.01 0 0.03 0 0.02 0 0.01 0 0.03 0.01 0.02 0 0.01 0 0.02 0 0.02 0.01 0.02 0 0.01 0 0.03 0 0.02 0.01 0.01 0 0.02 0 0.03 0 0 0 0.02 0.01 0.03 0 0.01 0 0.02 0 0.02 0 0.02 0 0.01 0.01 0.03 0 0.02 0 0 0 0.03 0 0.02 0 0.01 0 0.02 0.01 0.03 0 0.01 0 0.01 0 0.03 0 0.02 0 0 0 0.03 0 0.03 0.01 0 0 0.02 0 0.03 0 0.01 0 0.01 0 0.03 0 0.01 0 0.02 0 0.02 0 0.02 0 0.01 0 0.02 0 0.03 0 0 0 0.03 0 0.02 0 0.01 0 0.02 0 0.02 0 0.02 0 0.01 0 0.02 0 0.03 0 0.2 0 0.11 -0.01 0 0c2.38,0.11 5.01,-0.01 7.71,-0.22l0.08 0 0.08 -0.01 0.04 0 0.04 0 0.08 -0.01 0.08 0 0 0 0.08 0 0.13 -0.01 0.11 -0.01 0.08 0 0.01 0 0.07 0 0.08 -0.01 0.06 0 0.02 0 0.16 -0.01 0.02 0 0.06 -0.01 0.08 0 0.07 -0.01 0.2 -0.01 0.21 -0.01 0 0 0.16 -0.01 0.04 0 0.04 -0.01 0.08 0 0.09 -0.01 0.2 -0.01 0.19 -0.01 0.02 0 0.06 -0.01 0.08 -0.01 0.06 0 0.02 0 0.16 -0.01 0.03 0 0.05 -0.01 0.15 -0.01 0.01 0 0.06 -0.01 0.34 -0.02 0.16 -0.01 0.05 -0.01 0.03 0 0.08 -0.01 0.08 0 0.01 -0.01 0.06 0 0.08 -0.01 0.06 0 0.02 0 0.08 -0.01 0.08 -0.01 0.03 0 0.05 -0.01 0.08 0 0.07 -0.01 0.01 0 0.08 -0.01 0.08 -0.01 0.04 0 0.04 0 0.08 -0.01 0.08 -0.01 0.02 0 0.03 0 0 0 0.04 -0.01 0 0 0.01 0 0.01 0 0.03 0 0.02 0 0.02 -0.01 0.02 0 0.01 0 0.02 0 0.02 0 0.02 -0.01 0.03 0 0 0 0.02 0 0.02 -0.01 0.03 0 0.02 0 0.02 0 0 0 0.02 -0.01 0.03 0 0.02 0 0.02 0 0.01 -0.01 0.01 0 0.03 0 0.02 0 0.02 -0.01 0.02 0 0.01 0 0.02 0 0.02 -0.01 0.02 0 0.03 0 0 0 0.02 -0.01 0.02 0 0.03 0 0.02 -0.01 0.01 0 0.01 0 0.02 0 0.03 -0.01 0.02 0 0.02 0 0 0 0.03 -0.01 0.02 0 0.02 -0.01 0.02 0 0.02 0 0.01 0 0.02 -0.01 0.02 0 0.03 0 0.02 -0.01 0 0 0.02 0 0.02 -0.01 0.03 0 0.02 0 0.01 -0.01 0.01 0 0.03 0 0.02 -0.01 0.02 0 0.02 0 0 0 0.03 -0.01 0.02 0 0.02 -0.01 0.03 0 0 0 0.02 -0.01 0.02 0c6.21,-0.53 11.25,-6.05 13.46,-8.51l0 -0.01 0.01 -0.01 0.01 -0.01 0.01 -0.01 0.01 -0.01 0.01 -0.01 0.01 -0.01 0 0 0.01 -0.01 0.01 -0.01 0.01 -0.01 0.01 -0.01 0 -0.01 0.01 -0.01 0.01 -0.01 0.01 -0.01 0.01 -0.01 0.01 -0.01 0.01 -0.01 0.01 -0.01 0.01 -0.01 0.01 -0.01 0 -0.01 0.01 -0.01 0.01 -0.01 0.01 -0.01 0.01 -0.01 0.01 -0.01 0.01 -0.01 0.01 -0.01 0.01 -0.01 0.01 -0.01 0 -0.01 0.01 -0.01 0 0 0.01 -0.01 0.01 -0.01 0.01 -0.01 0.01 -0.01 0.01 -0.01 0.01 -0.01 0.01 -0.01 0.01 -0.01 0 -0.01 0.01 -0.01 0.01 -0.01 0.01 -0.01 0.01 -0.01 0.01 -0.01 0.01 -0.01 0.01 -0.01 0.01 -0.01 0.01 -0.01 0.01 -0.01 0 -0.01 0.01 -0.01 0.01 -0.01 0.01 -0.01 0.01 -0.01 0.01 -0.01 0 -0.01 0.01 0 0.01 -0.01 0.01 -0.01 0.01 -0.01 0 -0.01 0.01 -0.01 0.01 -0.01c1.78,-1.92 7.3,-7.46 7.3,-7.46l0 0 -0.01 0 0 0 -0.01 0 -0.08 0.01 -0.08 0 -0.01 0 -0.09 0.01 -0.08 0.01 -0.01 0 -0.08 0 -0.08 0.01 -0.01 0 -0.09 0.01 -0.17 0.01 -0.09 0.01 0 0 -0.08 0.01 -0.09 0.01 0 0 -0.09 0 -0.08 0.01 -0.01 0 -0.08 0.01 -0.09 0.01 0 0 -0.08 0.01 -0.35 0.03 -0.08 0.01 -0.02 0 -0.07 0.01 -0.09 0.01 -0.01 0 -0.07 0.01 -0.09 0.01 -0.08 0.01 -0.09 0.01 -0.02 0 -0.06 0.01 -0.09 0.01 -0.02 0 -0.07 0.01 -0.08 0.01 -0.09 0.01 -0.08 0.01 -0.02 0.01 -0.07 0 -0.08 0.01 -0.03 0.01 -0.06 0.01 -0.08 0.01 -0.03 0 -0.06 0.01 -0.08 0.01 -0.03 0 -0.06 0.01 -0.08 0.01 -0.03 0.01 -0.06 0 -0.08 0.02 -0.04 0 -0.05 0.01 -0.08 0.01 -0.04 0 -0.05 0.01 -0.08 0.01 -0.04 0.01 -0.04 0.01 -0.09 0.01 -0.04 0 -0.04 0.01 -0.09 0.01 -0.04 0.01 -0.04 0.01 -0.09 0.01 -0.04 0.01 -0.04 0 -0.09 0.01 -0.04 0.01 -0.04 0.01 -0.08 0.01 -0.05 0.01 -0.04 0 -0.08 0.02 -0.05 0 -0.04 0.01 -0.08 0.01 -0.05 0.01 -0.03 0.01 -0.09 0.01 -0.01 0c-1.25,0.16 -2.09,0.32 -2.74,0.47l-0.01 0 -0.04 0.01 -0.04 0 -0.04 0.01 -0.04 0.01 -0.01 0 -0.03 0.01 -0.05 0 -0.04 0.01 -0.04 0.01 -0.01 0 -0.03 0.01 -0.05 0 -0.04 0.01 -0.04 0.01 -0.01 0 -0.03 0.01 -0.04 0 -0.05 0.01 -0.04 0.01 -0.01 0 -0.03 0.01 -0.04 0 -0.05 0.01 -0.04 0.01 0 0 -0.04 0.01 -0.04 0 -0.05 0.01 -0.04 0.01 0 0 -0.04 0.01 -0.04 0 -0.04 0.01 -0.05 0.01 0 0 -0.04 0.01 -0.04 0 -0.04 0.01 -0.05 0.01 0 0 -0.04 0.01 -0.04 0 -0.04 0.01 -0.04 0.01 -0.01 0 -0.04 0.01 -0.04 0 -0.08 0.02 -0.01 0 -0.04 0.01 -0.04 0 -0.04 0.01 -0.04 0.01 0 0 -0.04 0.01 -0.05 0 -0.04 0.01 -0.04 0.01 0 0 -0.04 0.01 -0.05 0 -0.04 0.01 -0.04 0.01 0 0 -0.04 0.01 -0.04 0 -0.05 0.01 -0.04 0.01 0 0 -0.04 0 -0.04 0.01 -0.05 0.01 -0.04 0.01 0 0 -0.04 0 -0.04 0.01 -0.04 0.01 -0.05 0.01 -0.02 0 -0.03 0.01 -0.03 0 -0.02 0 -0.03 0.01 -0.03 0 -0.03 0.01 -0.01 0 -0.01 0 -0.03 0.01 -0.03 0 -0.02 0.01 -0.03 0 -0.03 0.01 -0.02 0 -0.03 0.01 -0.01 0 -0.02 0 -0.02 0.01 -0.03 0 -0.03 0.01 -0.02 0 -0.03 0.01 -0.03 0 -0.02 0.01 0 0 -0.03 0 -0.03 0.01 -0.02 0 -0.03 0.01 -0.03 0 -0.02 0.01 -0.03 0.01 -0.02 0 -0.01 0 -0.02 0.01 -0.03 0 -0.03 0.01 -0.02 0 -0.03 0.01 -0.03 0 -0.02 0.01 -0.01 0 -0.02 0 -0.03 0.01 -0.02 0.01 -0.03 0 -0.03 0.01 -0.02 0 -0.03 0.01 -0.03 0 0 0 -0.02 0.01 -0.03 0 -0.03 0.01 -0.02 0.01 -0.03 0 -0.03 0.01 -0.02 0 -0.02 0.01 -0.01 0 -0.02 0 -0.03 0.01 -0.03 0.01 -0.02 0 -0.03 0.01 -0.03 0 -0.02 0.01 -0.01 0 -0.02 0.01 -0.03 0 -0.02 0.01 0 0c-2.26,0.14 -4.95,1.47 -6.83,2.56l-0.03 0.02 -0.03 0.02 -0.03 0.02 -0.03 0.01 -0.02 0.01 -0.02 0.01 -0.03 0.02 -0.03 0.02 -0.03 0.02 -0.03 0.01 -0.04 0.02 0 0 -0.03 0.02 -0.03 0.02 -0.03 0.02 -0.03 0.01 -0.03 0.02 -0.02 0.01 -0.02 0.01 -0.03 0.02 -0.03 0.02 -0.03 0.02 -0.03 0.02 -0.01 0 -0.03 0.02 -0.03 0.01 -0.03 0.02 -0.03 0.02 -0.03 0.02 -0.06 0.04 -0.03 0.02 -0.04 0.02 -0.03 0.02 -0.03 0.02 -0.04 0.02 -0.02 0.01 -0.03 0.02 -0.03 0.02 -0.03 0.02 -0.04 0.02 -0.02 0.02 -0.01 0 -0.03 0.02 -0.03 0.02 -0.03 0.02 -0.03 0.02 -0.03 0.02 -0.02 0.01 -0.01 0.01 -0.03 0.02 -0.04 0.02 -0.03 0.02 -0.03 0.02 -0.09 0.06 -0.03 0.02 -0.03 0.02 -0.03 0.02 -0.06 0.05 -0.03 0.02 -0.04 0.02 -0.02 0.02 -0.04 0.02 0 0 -0.03 0.02 -0.03 0.02 -0.03 0.02 -0.03 0.02 0 0 0 0c-0.08,0.06 -0.17,0.12 -0.27,0.19l-0.01 0.01 0 0 -0.02 0.01 -0.02 0.02 -0.02 0.01 -0.01 0.01 -0.02 0.02 -0.02 0.01 0 0 -0.02 0.01 -0.01 0.01 -0.02 0.02 -0.02 0.01 -0.02 0.01 -0.01 0.01 -0.02 0.02 -0.02 0.01 -0.02 0.01 -0.01 0.02 0 0 -0.02 0.01 -0.02 0.01 -0.02 0.02 -0.01 0.01 -0.02 0.01 -0.02 0.01 -0.02 0.02 -0.01 0.01 -0.02 0.01 -0.01 0.01 -0.01 0.01 -0.02 0.01 -0.01 0.01 -0.02 0.02 -0.02 0.01 -0.02 0.01 -0.01 0.01 -0.02 0.02 -0.02 0.01 -0.02 0.01 0 0.01 -0.01 0.01 -0.02 0.01 -0.02 0.01 -0.02 0.02 -0.01 0.01 -0.02 0.01 -0.02 0.02 -0.02 0.01 -0.01 0.01 -0.02 0.01 0 0.01 -0.02 0.01 -0.01 0.01 -0.02 0.02 -0.04 0.02 -0.01 0.02 -0.02 0.01 -0.02 0.02 -0.01 0.01 -0.01 0 -0.01 0.01 -0.02 0.02 -0.02 0.01 -0.01 0.01 -0.04 0.03 -0.01 0.02 -0.02 0.01 -0.02 0.01 -0.02 0.02 -0.21 0.17 -0.05 0.04 -0.13 0.1 -0.04 0.03 -0.21 0.17 -0.02 0.01 -0.13 0.11 -0.07 0.05 -0.07 0.05 -0.13 0.1 -0.02 0.01 -0.03 0.03 -0.18 0.14 -0.04 0.03 -0.13 0.1 -0.05 0.04 -0.44 0.32 -0.22 0.16 -0.22 0.16 -0.02 0.01 -0.14 0.1 -0.14 0.1 -0.13 0.1 -0.02 0.01 -0.22 0.15 -0.04 0.03 -0.14 0.09 -0.27 0.19 -0.23 0.16 -0.05 0.03 -0.14 0.09 -0.04 0.03 -0.24 0.16 -0.14 0.09 -0.07 0.05 -0.07 0.04 -0.01 0.01 -0.38 0.24 -0.03 0.02 -0.14 0.09 -0.29 0.18 0 0 -0.14 0.09 0 0 -0.03 0.02 -0.11 0.07 -0.15 0.08 -0.03 0.03 -0.11 0.06 -0.01 0.01 -0.01 0.01 -0.01 0 -0.01 0.01 -0.01 0.01 -0.02 0 -0.01 0.01 -0.01 0.01 -0.01 0 -0.01 0.01 -0.06 0.03 -0.01 0.01 -0.01 0.01 -0.01 0 -0.01 0.01 -0.01 0.01 -0.01 0 -0.01 0.01 -0.02 0.01 -0.01 0 -0.01 0.01 -0.01 0.01 -0.01 0 -0.1 0.06 -0.01 0.01 -0.06 0.03 -0.01 0.01 -0.01 0.01 -0.01 0 -0.21 0.12 -0.01 0.01 -0.11 0.06 -0.03 0.02 -0.15 0.09 -0.09 0.05 -0.01 0 -0.01 0.01 -0.01 0.01 -0.01 0.01 -0.01 0 -0.01 0 -0.02 0.02 -0.01 0 -0.01 0.01 -0.01 0 -0.02 0.02 -0.01 0 -0.01 0.01 -0.1 0.05 -0.01 0.01 -0.01 0 -0.01 0.01 -0.05 0.03 -0.01 0 -0.01 0.01 -0.01 0 -0.01 0.01 -0.01 0.01 -0.01 0 -0.06 0.04 -0.01 0 -0.02 0.01 -0.01 0.01 -0.15 0.08 -0.29 0.16 -0.15 0.08 -0.07 0.04 -0.07 0.04 -0.15 0.08 -0.26 0.13 -0.04 0.02 -0.15 0.08 -0.14 0.08c-1.53,0.7 -2.91,1.34 -4.09,1.9l-0.02 0.01 -0.01 0 -0.03 0.02 -0.04 0.01 -0.03 0.01 -0.03 0.02 -0.03 0.01 -0.03 0.01 -0.04 0.02 -0.02 0 -0.01 0.01 -0.03 0.01 -0.03 0.02 -0.04 0.01 -0.03 0.01 -0.03 0.01 -0.03 0.02 -0.03 0.01 -0.02 0.01 -0.02 0 -0.03 0.02 -0.03 0.01 -0.03 0.01 -0.04 0.02 -0.03 0.01 -0.03 0.01 -0.03 0.01 -0.02 0.01 -0.01 0.01 -0.04 0.01 -0.03 0.01 -0.03 0.01 -0.03 0.02 -0.04 0.01 -0.03 0.01 -0.03 0.02 -0.01 0 -0.02 0.01 -0.03 0.01 -0.04 0.01 -0.03 0.02 -0.03 0.01 -0.03 0.01 -0.04 0.01 -0.03 0.02 -0.01 0 -0.02 0.01 -0.03 0.01 -0.04 0.01 -0.03 0.02 -0.03 0.01 -0.03 0.01 -0.04 0.01 -0.03 0.02 -0.01 0 -0.02 0.01 -0.03 0.01 -0.04 0.01 -0.03 0.01 -0.03 0.02 -0.04 0.01 -0.03 0.01 -0.03 0.01 0 0 -0.03 0.02 -0.04 0.01 -0.03 0.01 -0.03 0.01 -0.03 0.01 -0.04 0.02 -0.03 0.01 -0.03 0.01c-0.62,0.23 -1.17,0.66 -2.37,1.36z"/>
    <path class="fil1" d="M59.43 63.89c0.12,0.07 0.25,0.14 0.36,0.12 4.14,-0.84 7.25,0.96 9.85,3.9 3.14,3.53 5.73,9.58 4.74,14.19 -0.86,3.98 -3.01,7.63 -7.41,8.85 -4.15,1.15 -7.87,0.1 -10.72,-3.18 -2.7,-3.1 -6.06,-8.33 -4.96,-12.71 0.89,-3.57 0.85,-7.79 5.07,-9.87l-0.03 -0.09c0.82,-0.24 1.7,-0.51 2.07,-0.7 0.25,-0.13 0.63,-0.32 1.03,-0.51zm4.49 24.4l0 0 0.13 -0.02 0 0 0.13 -0.02 0 0 0.13 -0.02 0 0 0.12 -0.02 0.01 0 0.12 -0.02 0 0 0.13 -0.02 0 0 0.12 -0.02 0 0 0.13 -0.02 0 0 0.25 -0.04 0 0 0.12 -0.03 0 0 0.12 -0.02 0 0 0.12 -0.02 0 0 0.12 -0.03 0 0 0.12 -0.02 0 0 0.12 -0.03 0 0c0.12,-0.03 0.23,-0.06 0.35,-0.09l0.23 -0.06 0.22 -0.07 0 0 0.12 -0.04 0.11 -0.03 0 0 0.21 -0.08 0.11 -0.05 0 0 0.21 -0.09 0 0c0.07,-0.03 0.14,-0.06 0.21,-0.09l0 0 0.1 -0.06 0.11 -0.05 0.1 -0.05 0 0 0.09 -0.06 0 0 0.1 -0.06 0 0 0.1 -0.06 0 0 0.1 -0.07 0 0 0.09 -0.06 0.09 -0.07 0 0 0.1 -0.07 0 0 0.09 -0.08 0 0 0.09 -0.07 0 0 0.09 -0.08 0 0 0.08 -0.08 0.01 0 0.08 -0.09 0 0 0.09 -0.09 0.08 -0.09 0 0 0.08 -0.09 0 0 0.08 -0.09 0.01 0 0.08 -0.1 0 0 0.08 -0.1 0.07 -0.11 0 0 0.08 -0.11 0 0 0.07 -0.11 0 0 0.08 -0.11 0 0 0.07 -0.12 0 0 0.07 -0.12 0 0 0.07 -0.13 0 0 0.07 -0.13 0 0 0.07 -0.13 0 0 0.06 -0.13 0 0 0.13 -0.28 0 0 0.12 -0.27 0 0 0.12 -0.27 0 0 0.1 -0.27 0 0 0.11 -0.26 0 -0.01 0.09 -0.26 0 0 0.09 -0.26 0 0 0.08 -0.26 0 0 0.08 -0.25 0 0 0.07 -0.26 0.07 -0.25 0.05 -0.25 0.06 -0.25 0.04 -0.25 0.04 -0.24 0 0 0.04 -0.24 0.03 -0.24 0.02 -0.24 0.02 -0.24 0.01 -0.23 0 0 0 -0.24 0 -0.23 0 -0.22 0 -0.01 -0.01 -0.22 0 0 -0.02 -0.23 0 0c-0.01,-0.15 -0.03,-0.3 -0.05,-0.44l-0.03 -0.22 -0.04 -0.22 -0.05 -0.22 0 0 -0.05 -0.22 0 0 -0.05 -0.21 0 0 -0.06 -0.21 0 0 -0.07 -0.21 0 0 -0.07 -0.21 0 0 -0.07 -0.21 -0.08 -0.2 0 0 -0.09 -0.21 0 0 -0.09 -0.2 -0.1 -0.21 0 0 -0.1 -0.19 0 -0.01 -0.1 -0.19 0 0 -0.11 -0.2 0 0 -0.12 -0.2 0 0 -0.12 -0.19 0 0 -0.12 -0.2 0 0 -0.13 -0.19 0 0 -0.14 -0.19 0 0 -0.13 -0.19 -0.01 0 -0.14 -0.19 0 0 -0.15 -0.19 0 0 -0.15 -0.19 0 0 -0.16 -0.18 -0.16 -0.19 0 0 -0.16 -0.18 0 0 -0.17 -0.19 0 0 -0.18 -0.18 0 0 -0.18 -0.18 0 0 -0.18 -0.18 0 0c-0.19,-0.18 -1.2,-2.17 -1.4,-2.35l0 0c-0.13,-0.12 -0.27,-0.24 -0.4,-0.35 -0.24,-0.21 -0.51,-0.41 -0.79,-0.6l0 0 -0.16 -0.11 0 0c-0.19,-0.12 -0.38,-0.24 -0.58,-0.35l0 0c-0.12,-0.07 -0.23,-0.13 -0.35,-0.19l0 0 -0.09 -0.04 0 0c-0.12,-0.06 -0.23,-0.12 -0.35,-0.17l0 0c-0.09,-0.04 -0.18,-0.08 -0.27,-0.12l0 0 -0.18 -0.07 0 0 -0.09 -0.03 -0.09 -0.03 -0.09 -0.04 0 0 -0.09 -0.02 0 0 -0.08 -0.03 0 0 -0.09 -0.03 0 0 -0.18 -0.05 -0.08 -0.02 0 0 -0.09 -0.02 0 0 -0.09 -0.02 -0.08 -0.02 -0.17 -0.03 0 0 -0.09 -0.01 0 0 -0.08 -0.01 0 0 -0.08 -0.01 -0.08 -0.01 -0.08 0 0 0 -0.08 0 -0.08 0 -0.08 0 -0.08 0 0 0 -0.07 0.01 -0.08 0.01 0 0 -0.07 0.01 -0.07 0.01 0 0 -0.07 0.01 0 0 -0.07 0.02 0 0 -0.07 0.02 0 0 -0.09 0.03 0 0 -0.09 0.03 -0.01 0 -0.09 0.03 0 0 -0.09 0.03 0 0 -0.1 0.02 0 0 -0.09 0.03 0 0.01 -0.1 0.03 0 0 -0.09 0.03 -0.01 0 -0.09 0.03 0 0 -0.1 0.03 0 0 -0.09 0.03 0 0 -0.1 0.03 0 0 -0.1 0.04 0 0 -0.09 0.03 -0.01 0 -0.09 0.04 0 0 -0.1 0.03 0 0 -0.1 0.04 0 0 -0.09 0.03 0 0 -0.1 0.04 0 0 -0.1 0.04 0 0 -0.09 0.04 0 0 -0.1 0.04 0 0 -0.1 0.04 0 0 -0.09 0.04 0 0 -0.1 0.04 0 0 -0.1 0.05 0 0 -0.09 0.04 0 0 -0.1 0.05 0 0 -0.09 0.05 0 0 -0.1 0.04 0 0 -0.09 0.05 0 0 -0.1 0.05 0 0 -0.09 0.06 0 0 -0.09 0.05 0 0 -0.09 0.05 0 0 -0.1 0.06 0 0 -0.09 0.06 0 0 -0.09 0.06 0 0 -0.09 0.06 0 0 -0.09 0.06 0 0 -0.08 0.06 -0.09 0.07 0 0 -0.09 0.06 0 0 -0.08 0.07 -0.09 0.07 -0.08 0.07 -0.01 0 -0.08 0.08c-0.89,0.86 -2.16,2.64 -2.32,4.3l0 0 -0.05 0.23 0 0 -0.04 0.23 0 0.01c-0.03,0.15 -0.05,0.31 -0.07,0.46l0 0c-0.02,0.16 -0.04,0.32 -0.05,0.48l0 0 -0.02 0.23 0 0c-0.02,0.32 -0.02,0.63 0,0.95l0 0 0.01 0.23 0 0c0.01,0.24 0.04,0.47 0.07,0.71l0 0c0.02,0.16 0.04,0.31 0.07,0.47l0 0 0.04 0.24 0 0c0.07,0.31 0.14,0.62 0.23,0.93l0 0c0.11,0.39 0.25,0.78 0.4,1.16l0.83 1.81 -0.74 -1.58 0.83 1.81c0.48,1.15 1.14,2.26 1.96,3.31l0 0c0.49,0.63 1.03,1.25 1.63,1.83 0.14,0.13 0.28,0.27 0.42,0.4l0 0 0.18 0.16 0 0 0.07 0.05 0 0 0.06 0.06 0 0 0.06 0.05 0 0 0.06 0.05 0.06 0.05 0 0 0.19 0.14 0.06 0.05 0 0 0.07 0.05 0 0 0.13 0.08 0.06 0.05 0 0 0.06 0.04 0 0 0.07 0.04 0 0 0.06 0.03 0.07 0.04 0 0 0.06 0.04 0.14 0.07 0.06 0.03 0.07 0.03 0 0 0.07 0.03 0.07 0.02 0.06 0.03 0 0 0.07 0.02 0.07 0.03 0.07 0.02 0.07 0.01 0.07 0.02 0 0 0.07 0.02 0.07 0.01 0.07 0.01 0 0 0.08 0.01 0.07 0.01 0.07 0 0.07 0.01 0.01 0 0.07 0 0 0 0.07 0 0 0 0.08 0 0 0 0.07 -0.01 0 0 0.08 -0.01 0 0 0.07 -0.01 0.08 -0.01 0 0 0.08 -0.01 0 0 0.08 -0.02 0 0 0.07 -0.02 0 0 0.08 -0.02 0 0 0.08 -0.02 0 0 0.08 -0.03 0 0 0.08 -0.03 0 0 0.09 -0.03 0 0 0.08 -0.04 0 0 0.21 -0.05z"/>
    <path class="fil1" d="M102.03 62.73c3.67,1.39 10.95,3.42 14.48,5.12 7.3,3.52 14.43,7.42 20.22,13.22 1.92,1.93 3.24,4.49 4.67,6.86 1.06,1.75 1.94,3.63 2.7,5.53 0.3,0.75 0.26,1.79 -0.04,2.54 -0.1,0.27 -1.5,0.31 -2.14,0.06 -4.51,-1.79 -9.27,-2.57 -13.99,-3.24 -8.12,-1.15 -14.32,-5.38 -19.47,-11.38 -1.86,-2.18 -3.29,-4.71 -4.98,-7.04 -2.34,-3.24 -4.75,-6.43 -7.11,-9.66 -0.78,-1.06 -1.47,-2.19 -2.02,-3.01l-3.46 -1.22c1.82,0.21 4.01,1.12 5.31,1.47 1.3,0.34 1.9,0.16 5.83,0.75zm-1.15 2.62l0.44 0.66 0 0 0.26 0.39 0 0 0.17 0.26 0 0 0.09 0.13 0 0 0.34 0.51 0 0 0.08 0.12 0 0 0.08 0.13 0 0 0.09 0.12 0 0 0.08 0.13 0 0 0.08 0.12 0.08 0.13 0 0 0.09 0.12 0 0 0.08 0.13 0 0 0.08 0.12 0 0 0.08 0.12 0 0 0.08 0.12 0.08 0.13 0 0 0.08 0.12 0.08 0.12 0.01 0 0.08 0.12 0.08 0.12 0.08 0.12 0.08 0.12 0.07 0.12 0.09 0.12 0.08 0.12 0.07 0.12 0.08 0.12 0 0 0.08 0.12 0.08 0.12 0.08 0.11 0.08 0.12 0.08 0.12 0 0 0.08 0.12 0.08 0.11 0.07 0.12 0.01 0 0.07 0.12 0 0 0.08 0.11 0 0.01 0.08 0.11 0 0 0.08 0.12 0 0 0.08 0.11 0 0 0.08 0.12 0 0 0.07 0.12 0.01 0 0.07 0.11 0.08 0.12 0 0 0.08 0.11 0 0 0.08 0.12 0 0 0.08 0.11 0 0 0.08 0.12 0 0 0.08 0.11 0 0 0.07 0.12 0.01 0 0.07 0.11 0 0 0.08 0.12 0 0 0.08 0.11 0 0 0.09 0.13 0 0 0.09 0.12 0 0 0.08 0.13 0.01 0 0.08 0.13 0 0 0.09 0.12 0 0 0.08 0.13 0 0 0.09 0.13 0 0 0.09 0.13 0 0 0.17 0.25 0 0 0.08 0.13 0 0 0.09 0.13 0 0 0.09 0.13 0 0 0.08 0.13 0 0 0.09 0.12 0 0 0.08 0.13 0 0 0.09 0.13 0 0 0.08 0.13 0 0 0.09 0.13 0 0 0.09 0.13 0 0 0.08 0.12 0 0 0.17 0.26 0 0 0.09 0.13 0 0 0.09 0.13 0 0 0.08 0.12 0 0 0.09 0.13 0 0 0.09 0.13 0 0 0.08 0.13 0 0 0.09 0.12 0 0 0.18 0.26 0 0 0.08 0.12 0 0 0.18 0.26 0 0 0.09 0.12 0 0 0.09 0.13 0 0 0.09 0.12 0 0 0.09 0.13 0 0 0.09 0.12 0 0 0.09 0.13 0.09 0.12 0 0 0.09 0.13 0.09 0.12 0 0 0.09 0.12 0 0 0.09 0.12 0.1 0.13 0 0 0.09 0.12 0.09 0.12 0.1 0.12 0.09 0.12 0.1 0.12 0.09 0.12 0.1 0.12 0.1 0.11 0 0 0.1 0.12 0 0 0.09 0.12 0.01 0 0.09 0.12 0 0 0.1 0.11 0.1 0.12 0.1 0.11 0 0 0.11 0.12 0 0 0.1 0.11 0 0 0.1 0.11 0 0 0.11 0.12 0 0 0.1 0.11 0 0 0.11 0.11 0 0 0.11 0.12 0.1 0.11 0.11 0.11 0 0 0.11 0.12 0.11 0.11 0 0 0.11 0.11 0 0 0.1 0.11 0.01 0 0.1 0.11 0 0 0.11 0.11 0 0 0.11 0.11 0.12 0.11 0.11 0.11 0.11 0.11 0.11 0.11 0 0 0.11 0.11 0.12 0.1 0 0 0.11 0.11 0.11 0.11 0.12 0.1 0.11 0.11 0.12 0.1 0.12 0.11 0.11 0.1 0.12 0.1 0.12 0.1 0.12 0.11 0 0 0.12 0.1 0.12 0.1 0.12 0.1 0.12 0.1 0 0 0.12 0.1 0.12 0.09 0.13 0.1 0 0 0.12 0.1 0.12 0.09 0 0 0.13 0.1 0 0 0.13 0.09 0.12 0.1 0 0 0.13 0.09 0 0 0.13 0.09 0 0 0.13 0.09 0 0 0.13 0.09 0 0 0.13 0.09 0.13 0.09 0 0 0.13 0.09 0.01 0 0.13 0.09 0.13 0.08 0 0 0.14 0.09 0 0 0.13 0.09 0 0 0.14 0.08 0 0 0.14 0.08 0 0 0.13 0.09 0.01 0 0.14 0.08 0 0 0.14 0.08 0 0 0.14 0.08 0 0 0.14 0.08 0 0 0.14 0.07 0 0 0.15 0.08 0 0 0.14 0.08 0 0 0.15 0.07 0 0 0.15 0.07 0 0 0.24 0.12 0 0 0.24 0.12 0 0 0.24 0.11 0 0 0.24 0.11 0 0 0.24 0.1 0.24 0.11 0.25 0.1 0 0 0.24 0.1 0.24 0.09 0 0 0.25 0.1 0.24 0.09 0.25 0.09 0.24 0.08 0.25 0.09 0.24 0.08 0.25 0.08 0 0 0.25 0.08 0.25 0.08 0 0 0.24 0.07 0.25 0.07 0.25 0.08 0.25 0.06 0 0 0.25 0.07 0.25 0.07 0 0 0.25 0.06 0 0 0.25 0.06 0.25 0.07 0.25 0.06 0.25 0.05 0 0 0.25 0.06 0 0 0.25 0.06 0 0 0.25 0.05 0.01 0 0.25 0.06 0 0 0.25 0.05 0 0 0.25 0.05 0 0 0.25 0.05 0.26 0.05 0 0 0.25 0.05 0 0 0.25 0.05 0 0 0.26 0.05 0 0 0.25 0.04 0 0 0.25 0.05 0 0 0.26 0.05 0 0 0.25 0.04 0 0 0.26 0.05 0 0 0.25 0.04 0 0 0.25 0.05 0 0 0.26 0.04 0 0 0.25 0.04 0 0 0.26 0.05 0 0 0.25 0.04 0 0 0.26 0.04 0 0 0.25 0.05 0 0 0.26 0.04 0 0 0.25 0.04 0 0 0.25 0.05 0.01 0 0.25 0.04 0 0 0.25 0.05 0 0 0.26 0.04 0 0 0.25 0.05 0 0 0.26 0.04 0 0 0.25 0.05 0 0 0.26 0.04 0 0 0.25 0.05 0 0 0.06 0.01 0 0 0.06 0.01 0 0 0.07 0.02 0 0 0.06 0.01 0 0 0.06 0.01 0 0 0.06 0.01 0 0 0.07 0.01 0 0 0.06 0.02 0 0 0.06 0.01 0 0 0.06 0.01 0 0 0.06 0.01 0.01 0 0.06 0.01 0 0 0.06 0.01 0 0 0.06 0.02 0 0 0.07 0.01 0 0 0.06 0.01 0 0 0.06 0.01 0 0 0.06 0.01 0.01 0 0.06 0.02 0 0 0.06 0.01 0 0 0.06 0.01 0.01 0 0.06 0.01 0 0 0.06 0.01 0 0 0.07 0.02 0 0 0.06 0.01 0 0 0.06 0.01 0 0 0.07 0.01 0 0 0.06 0.02 0 0 0.07 0.01 0 0 0.06 0.01 0 0 0.07 0.01 0 0 0.06 0.02 0.07 0.01 0 0 0.06 0.01 0 0 0.07 0.01 0 0 0.06 0.02 0.07 0.01 0 0 0.06 0.01 0.07 0.02 0.07 0.01 0 0 0.06 0.01 0.07 0.01 0 0 0.07 0.02 0.07 0.01 0 0 0.06 0.01 0.07 0.02 0 0 0.07 0.01 0.07 0.01 0.07 0.02 0.06 0.01 0.07 0.01 0.07 0.02 0.07 0.01 0.07 0.02 0.07 0.01 0.08 0.01 0 0 0.07 0.02 0.07 0.01 0 0 0.07 0.01 0.07 0.02 0.07 0.01 0 0 0.08 0.01 0.07 0.02 0 0 0.07 0.01 -0.05 -0.18 0 0 -0.06 -0.18 0 0 -0.06 -0.18 0 0 -0.06 -0.19 0 0 -0.06 -0.18 0 0 -0.06 -0.17 0 0 -0.06 -0.18 0 0 -0.07 -0.18 0 0 -0.06 -0.18 0 0 -0.06 -0.17 0 0 -0.07 -0.18 0 0 -0.06 -0.17 0 0 -0.07 -0.17 0 0 -0.07 -0.17 0 0 -0.06 -0.17 0 0 -0.07 -0.17 0 0 -0.07 -0.17 0 0 -0.07 -0.17 0 0 -0.07 -0.17 0 0 -0.08 -0.16 -0.07 -0.17 0 0 -0.08 -0.16 0 0 -0.07 -0.16 0 0 -0.08 -0.16 0 0 -0.07 -0.16 0 0 -0.08 -0.16 0 0 -0.08 -0.16 0 0 -0.08 -0.16 -0.09 -0.15 0 0 -0.08 -0.16 -0.08 -0.15 0 0 -0.09 -0.16 0 0 -0.09 -0.15 0 0 -0.08 -0.15 0 0 -0.09 -0.15 0 0 -0.09 -0.15 -0.1 -0.15 -0.09 -0.14 -0.09 -0.15 0 0 -0.1 -0.14 -0.1 -0.15 -0.09 -0.14 0 0 -0.1 -0.14 -0.1 -0.14 -0.01 0 -0.1 -0.14 0 0 -0.1 -0.13 0 0 -0.11 -0.14 0 0 -0.1 -0.14 0 0 -0.11 -0.13 0 0 -0.11 -0.13 0 0 -0.12 -0.13 -0.11 -0.13 -0.11 -0.13 0 0 -0.12 -0.13 0 0 -0.12 -0.13 -0.12 -0.12 0 0 -0.12 -0.13 0 0 -0.12 -0.12 0 0 -0.13 -0.12 0 0 -0.13 -0.12 -0.12 -0.12 0 0 -0.13 -0.12 0 0 -0.13 -0.12 0 0 -0.14 -0.11 0 0 -0.12 -0.11 0 0 -0.13 -0.1 0 0 -0.12 -0.11 0 0 -0.13 -0.1 0 0 -0.12 -0.11 0 0 -0.13 -0.1 0 0 -0.12 -0.1 0 0 -0.13 -0.11 0 0 -0.13 -0.1 0 0 -0.12 -0.11 0 0 -0.13 -0.1 0 0 -0.13 -0.1 0 0 -0.12 -0.1 0 0 -0.13 -0.1 0 0 -0.13 -0.1 0 0 -0.13 -0.11 0 0 -0.13 -0.1 0 0 -0.12 -0.1 0 0 -0.13 -0.1 0 0 -0.13 -0.1 0 0 -0.13 -0.1 0 0 -0.13 -0.1 0 0 -0.13 -0.1 0 0 -0.13 -0.1 0 0 -0.13 -0.1 0 0 -0.13 -0.1 0 0 -0.13 -0.09 0 0 -0.13 -0.1 0 0 -0.13 -0.1 0 0 -0.13 -0.1 0 0 -0.13 -0.1 0 0 -0.13 -0.09 0 0 -0.13 -0.1 0 0 -0.14 -0.1 0 0 -0.13 -0.1 -0.13 -0.09 0 0 -0.13 -0.1 -0.13 -0.1 0 0 -0.13 -0.09 -0.14 -0.1 -0.13 -0.09 -0.13 -0.1 0 0 -0.14 -0.09 -0.13 -0.1 0 0 -0.13 -0.1 0 0 -0.13 -0.09 -0.01 0 -0.13 -0.09 -0.13 -0.1 -0.13 -0.09 -0.14 -0.1 -0.13 -0.09 -0.13 -0.1 -0.14 -0.09 -0.13 -0.09 -0.14 -0.1 -0.13 -0.09 0 0 -0.13 -0.1 -0.14 -0.09 -0.13 -0.09 0 0 -0.13 -0.1 0 0 -0.14 -0.09 0 0 -0.13 -0.09 0 0 -0.14 -0.09 0 -0.01 -0.13 -0.09 0 0 -0.35 -0.24 -0.36 -0.24 0 0 -0.35 -0.23 0 0 -0.35 -0.24 -0.36 -0.23 -0.36 -0.23 -0.36 -0.22 -0.36 -0.22 0 0 -0.36 -0.22 -0.36 -0.22 -0.37 -0.22 -0.36 -0.21 -0.37 -0.21 -0.36 -0.21 -0.37 -0.21 0 0 -0.37 -0.2 -0.37 -0.2 0 0 -0.37 -0.2 -0.38 -0.2 0 0 -0.37 -0.19 -0.38 -0.19 -0.38 -0.19 -0.37 -0.19 0 0 -0.38 -0.18 -0.38 -0.19 -0.39 -0.18 0 0 -0.38 -0.18 -0.39 -0.17 -0.38 -0.18 -0.39 -0.17 -0.39 -0.17 -0.39 -0.17 -0.39 -0.17 -0.39 -0.16 -0.39 -0.16 -0.4 -0.16 -0.39 -0.16 -0.4 -0.16 0 0 -0.4 -0.15 0 0 -0.4 -0.16 -0.4 -0.15 -0.41 -0.15 0 0 -0.4 -0.14 0 0 -0.4 -0.15 -0.41 -0.14 0 0 -0.41 -0.14 0 0 -0.41 -0.14 0 0 -0.41 -0.14 0 0 -0.41 -0.14 0 0 -0.41 -0.13 0 0 -0.42 -0.13 0 0 -0.41 -0.14 -0.01 0 -0.41 -0.13 0 0 -0.42 -0.12 0 0 -0.42 -0.13 0 0 -0.42 -0.13 0 0 -0.42 -0.12 0 0 -0.43 -0.12 0 0 -0.42 -0.12 0 0 -0.43 -0.12 0 0 -0.43 -0.12 0 0 -0.43 -0.11 0 0 -0.43 -0.12 0 0 -0.43 -0.11 0 0z"/>
    <path class="fil1" d="M72.11 55.23c4.02,-1.67 5.56,-1.89 9.04,-4.81 1.3,-1.61 2.47,-6.43 3.45,-8.29 1.19,-2.24 2.34,-4.51 3.51,-6.76 0.2,-0.39 0.37,-0.81 0.62,-1.16 4.28,-5.97 8.27,-12.18 14.09,-16.85 0.18,-0.14 0.34,-0.3 0.52,-0.41 5.92,-3.83 11.83,-7.65 18.01,-11.64 1.21,0.39 1.19,1.68 1.03,3.08 -0.85,7.75 -2.82,15.18 -6.79,21.94 -1.95,3.31 -3.47,7.02 -6.86,9.22 -2.85,1.85 -5.72,4.04 -8.79,5.49 -5.76,2.72 -11.41,4.73 -17.44,7.51 -1.35,1.47 -4.45,3.02 -7.31,4.24 -0.53,-0.38 -0.3,-0.25 -3.08,-1.56zm12.48 -7.23l0.04 -0.02 0 0 0.04 -0.01 0 0 0.04 -0.02 0 0 0.04 -0.01 0 0 0.04 -0.02 0 0 0.04 -0.01 0 0 0.04 -0.01 0 0 0.03 -0.02 0 0 0.04 -0.01 0 0 0.04 -0.02 0 0 0.04 -0.01 0 0 0.03 -0.01 0 0 0.04 -0.01 0 0 0.03 -0.02 0.01 0 0.03 -0.01 0 0 0.04 -0.01 0 0 0.03 -0.01 0 0 0.04 -0.02 0 0 0.03 -0.01 0 0 0.03 -0.01 0 0 0.04 -0.01 0 0 0.03 -0.01 0 0 0.04 -0.01 0 -0.01 0.03 -0.01 0 0 0.03 -0.01 0 0 0.03 -0.01 0 0 0.04 -0.01 0.03 -0.01 0.03 -0.01 0.03 -0.01 0.03 -0.01 0.03 -0.01 0.03 -0.02 0 0 0.03 -0.01 0 0 0.03 -0.01 0 0 0.03 -0.01 0 0 0.06 -0.02 0 0 0.03 -0.01 0.03 -0.01 0.03 -0.01 0 0 0.03 -0.01 0.03 -0.01 0.02 -0.01 0.03 -0.01 0 0 0.03 -0.01 0 0 0.03 -0.01 0 0 0.05 -0.03 0 0 0.03 -0.01 0 0 0.03 -0.01 0 0 0.03 -0.01 0.02 -0.01 0.03 -0.01 0 0 0.03 -0.01 0.02 -0.01 0 0 0.03 -0.01 0 0 0.03 -0.01 0.02 -0.01 0.03 -0.01 0 0 0.03 -0.01 0 -0.01 0.02 -0.01 0 0 0.03 -0.01 0 0 0.02 -0.01 0.01 0 0.19 -0.08 0 0 0.2 -0.09 0 0 0.2 -0.09 0 0 0.19 -0.08 0 0 0.2 -0.09 0 0c0.82,-0.36 2.34,-0.74 2.75,-0.92l0.2 -0.09 0 0 0.39 -0.18 0 0 0.2 -0.08 0.19 -0.09 0.2 -0.09 0 0 0.19 -0.09 0 0 0.2 -0.08 0.2 -0.09 0.19 -0.09 0.2 -0.08 0.2 -0.09 0.19 -0.09 0.2 -0.08 0 -0.01 0.2 -0.08 0 0 0.19 -0.09 0 0 0.2 -0.09 0.2 -0.08 0 0 0.19 -0.09 0.2 -0.08 0 0 0.2 -0.09 0.19 -0.09 0 0 0.2 -0.08 0 0 0.2 -0.09 0 0 0.39 -0.17 0 0 0.4 -0.17 0 0 0.19 -0.08 0 0 0.6 -0.25 0 0 0.39 -0.17 0.01 0 0.19 -0.08 0 0 0.6 -0.25 0 0 0.4 -0.16 0 0c0.33,-0.13 0.66,-0.27 0.99,-0.4 0.25,-0.09 0.48,-0.48 0.72,-0.59l0.01 0 0.17 -0.07 0 0 0.18 -0.08 0 0 0.18 -0.08 0 0 0.18 -0.08 0 0 0.17 -0.08 0 0 0.18 -0.08 0 0 0.17 -0.08 0 0 0.18 -0.08 0 0 0.17 -0.09 0 0 0.17 -0.08 0 0 0.17 -0.09 0 0 0.17 -0.08 0 0 0.18 -0.09 0 0 0.16 -0.09 0 0 0.17 -0.09 0 0 0.17 -0.09 0.17 -0.1 0 0 0.16 -0.09 0 0 0.17 -0.09 0 0 0.16 -0.1 0.17 -0.1 0 0 0.16 -0.1 0 0 0.16 -0.1 0 0 0.16 -0.1 0 0 0.16 -0.1 0.16 -0.1 0 0 0.16 -0.11 0.16 -0.1 0 0 0.15 -0.11 0.16 -0.11 0.15 -0.11 0.15 -0.11 0.16 -0.11 0.3 -0.23 0 0 0.14 -0.11 0.15 -0.12 0 0 0.15 -0.12 0 0 0.15 -0.12 0 0 0.14 -0.12 0.14 -0.12 0 0 0.15 -0.13 0 0 0.14 -0.12 0 0 0.14 -0.13 0.14 -0.13 0 0 0.13 -0.13 0.14 -0.13 0 0 0.14 -0.13 0 0 0.13 -0.13 0 -0.01 0.13 -0.13 0 0 0.13 -0.14 0 0 0.13 -0.14 0.01 0 0.12 -0.14 0 0 0.13 -0.14 0 0 0.13 -0.14 0 0 0.12 -0.15 0 0 0.13 -0.14 0 0 0.12 -0.15 0 0 0.12 -0.15 0 0 0.12 -0.15 0 0 0.22 -0.28 0 0 0.22 -0.28 0 0 0.21 -0.29 0 0 0.21 -0.28 0 0 0.21 -0.29 0 0 0.21 -0.29 0 0.01 0.2 -0.29 0 0 0.2 -0.29 0 0 0.2 -0.29 0 0 0.2 -0.29 0 0 0.19 -0.3 0 0 0.19 -0.29 0 0 0.19 -0.3 0 0 0.19 -0.29 0 0 0.18 -0.3 0 0 0.18 -0.3 0.01 0 0.17 -0.3 0.01 0 0.17 -0.3 0 0 0.18 -0.3 0.17 -0.31 0 0 0.17 -0.3 0 0 0.17 -0.31 0 0 0.16 -0.31 0 0 0.16 -0.3 0 0 0.16 -0.31 0.16 -0.31 0 0 0.16 -0.31 0 0 0.15 -0.32 0 0 0.15 -0.31 0.15 -0.32 0 0 0.15 -0.31 0 0 0.14 -0.32 0 0 0.15 -0.32 0 0 0.13 -0.31 0.14 -0.33 0 0 0.14 -0.32 0 0 0.13 -0.32 0 0 0.13 -0.32 0 0 0.13 -0.32 0 -0.01 0.13 -0.32 0 0 0.12 -0.33 0 0 0.12 -0.32 0 0 0.12 -0.33 0 0 0.12 -0.33 0 0 0.12 -0.33 0 0 0.11 -0.33 0.11 -0.33 0 0 0.11 -0.34 0 0 0.11 -0.33 0 0 0.1 -0.34 0 0 0.11 -0.33 0 0 0.1 -0.34 0 0 0.1 -0.34 0 0 0.09 -0.33 0 0 0.1 -0.34 0 0 0.09 -0.34 0 0 0.09 -0.34 0 -0.01 0.09 -0.34 0 0 0.09 -0.34 0 0 0.08 -0.34 0 0 0.08 -0.35 0 0 0.08 -0.34 0 0 0.08 -0.35 0 0 0.08 -0.35 0 0 0.01 -0.04 0 0 0.01 -0.04 0 0 0 -0.05 0 0 0.01 -0.04 0 0 0.01 -0.04 0 0 0.01 -0.05 0 0 0 -0.04 0 0 0.01 -0.04 0 0 0.01 -0.05 0 0 0 -0.04 0 0 0.01 -0.04 0 0 0.01 -0.05 0 0 0 -0.04 0 0 0.01 -0.05 0 0 0 -0.04 0 0 0.01 -0.05 0 0 0 -0.04 0 0 0.01 -0.05 0 0 0 -0.04 0 0 0.01 -0.05 0 0 0 -0.05 0 0 0 -0.04 0 0 0.01 -0.05 0 0 0 -0.05 0 0 0 -0.04 0 0 0.01 -0.05 0 0 0 -0.05 0 0 0 -0.05 0 0 0.01 -0.04 0 -0.01 0 -0.04 0 0 0 -0.05 0 0 0 -0.05 0.01 0 0 -0.05 0 0 0 -0.05 0 0 0 -0.05 0 0 0.01 -0.05 0 0 0 -0.06 0 0 0 -0.05 0 0 0 -0.05 0 0 0 -0.05 0.01 0 0 -0.06 0 0 0 -0.05 0 0 0 -0.05 0 0 0.01 -0.06 0 0 0 -0.05 0 0 0 -0.06 0 0 0 -0.05 0 0 0 -0.06 0 0 0.01 -0.06 0 0 0 -0.05 0 0 0.01 -0.12 0 0c0.01,-0.23 0.02,-0.48 0.04,-0.74l0 0 0 0c-0.21,0.09 -0.4,0.17 -0.58,0.25l0 0 -0.18 0.08 0 0 -0.13 0.05 0 0 -0.09 0.03 0 0 -0.04 0.02 0 0 -0.08 0.04 0 0 -0.04 0.01 0 0 -0.04 0.02 0 0 -0.04 0.01 0 0 -0.03 0.02 -0.01 0 -0.03 0.02 0 0 -0.04 0.01 0 0 -0.04 0.02 0 0 -0.04 0.01 0 0 -0.03 0.02 0 0 -0.04 0.01 0 0 -0.03 0.02 0 0 -0.04 0.01 0 0 -0.03 0.02 0 0 -0.04 0.01 0 0 -0.03 0.02 0 0 -0.04 0.02 0 0 -0.03 0.01 0 0 -0.07 0.03 0 0 -0.03 0.01 0 0 -0.07 0.04 0 0 -0.03 0.01 0 0 -0.12 0.06 -0.01 0 -0.05 0.03 -0.01 0 -0.03 0.02 0 0 -0.03 0.02 0 0 -0.08 0.04 -0.01 0c-0.06,0.04 -0.11,0.07 -0.17,0.11l-0.6 0.36 0 0 -0.3 0.18 0 0 -0.15 0.09 0 0 -0.15 0.09 0 0 -0.15 0.09 0 0 -0.3 0.19 0 0 -0.15 0.09 0 0 -0.15 0.09 0 0 -0.15 0.09 0 0 -0.3 0.18 0 0 -0.15 0.09 0 0 -0.15 0.09 0 0 -0.16 0.09 0 0 -0.15 0.09 0 0 -0.15 0.09 0 0 -0.15 0.09 0 0 -0.15 0.09 -0.15 0.09 -0.15 0.09 0 0 -0.15 0.09 0 0 -0.15 0.09 0 0 -0.15 0.09 0 0 -0.15 0.09 -0.15 0.09 -0.15 0.09 -0.15 0.09 0 0 -0.15 0.1 0 0 -0.15 0.09 0 0 -0.15 0.09 -0.15 0.09 0 0 -0.15 0.1 -0.14 0.09 -0.15 0.09 -0.15 0.09 0 0 -0.15 0.1 0 0 -0.29 0.18 0 0 -0.15 0.1 0 0 -0.59 0.38 0 0 -0.14 0.1 -0.01 0 -0.14 0.09 0 0 -0.15 0.1 0 0 -0.14 0.1 0 0 -0.15 0.1 0 0 -0.14 0.09 0 0 -0.15 0.1 0 0 -0.14 0.1 0 0 -0.14 0.1 0 0 -0.15 0.1 0 0 -0.14 0.1 0 0 -0.14 0.1 0 0 -0.15 0.1 0 0 -0.14 0.11 0 0 -0.14 0.1 0 0 -0.14 0.1 0 0 -0.12 0.09 0 0 -0.13 0.09 0 0 -0.12 0.1 0 0 -0.12 0.09 0 0 -0.13 0.09 0 0 -0.12 0.1 0 0 -0.12 0.09 0 0 -0.12 0.09 -0.13 0.1 0 0 -0.12 0.09 0 0 -0.12 0.1 0 0 -0.12 0.1 0 0 -0.24 0.19 0 0 -0.12 0.1 -0.48 0.39 0 0 -0.12 0.1 0 0c-0.24,0.19 -0.47,0.39 -0.71,0.6l0 0 -0.11 0.1 0 0 -0.12 0.1 0 0 -0.12 0.1 -0.11 0.1 0 0.01 -0.12 0.1 0 0 -0.11 0.1 0 0 -0.12 0.1 -0.12 0.11 -0.11 0.1 0 0 -0.12 0.11 0 0 -0.11 0.1 -0.11 0.1 -0.12 0.11 -0.11 0.1 0 0 -0.11 0.11 0 0 -0.12 0.11 0 0 -0.11 0.1 0 0 -0.11 0.11 -0.11 0.11 0 0 -0.12 0.1 0 0 -0.11 0.11 0 0 -0.11 0.11 0 0 -0.11 0.11 0 0 -0.11 0.1 0 0 -0.11 0.11 0 0 -0.11 0.11 0 0c-0.44,0.43 -0.88,0.87 -1.31,1.32 -1.08,1.13 -2.1,2.31 -3.05,3.53l0 0 -0.26 0.34 -0.25 0.33 -0.26 0.34 0 0 -0.25 0.34 -0.25 0.34 0 0 -0.24 0.35 -0.24 0.34 -0.24 0.35 0 0 -0.24 0.35 -0.24 0.35 0 0 -0.23 0.35 -0.23 0.36 -0.23 0.35 0 0 -0.23 0.36 -0.23 0.36 -0.22 0.36 0 0 -0.22 0.36 -0.01 0 -0.22 0.36 0 0 -0.22 0.36 -0.21 0.37 -0.01 0 -0.43 0.73 -0.43 0.74 -0.21 0.37 0 0 -0.42 0.74 0 0 -0.43 0.75 0.01 0 -0.21 0.38 0 0 -0.42 0.75 0 0 -0.62 1.13 -0.01 0 -0.41 0.76 0 0 -0.21 0.38 0 0 -0.21 0.38 0 0 -0.2 0.38 -0.01 0 -0.2 0.38 0 0 -0.21 0.38 0 0 -0.21 0.38 0 0 -0.21 0.38 0 0 -0.21 0.38 0 0 -0.21 0.38 0 0 -0.22 0.39 0 0 -0.21 0.38 0 0 -0.21 0.38 0 0 -0.22 0.38 0 0 -0.22 0.38 0 0 -0.21 0.38 0 0.01 -0.22 0.38 0 0 0 0z"/>
    <path class="fil1" d="M169.54 55.85l-0.37 0.02 0 0c0.11,-0.02 0.23,-0.03 0.37,-0.02zm-5.07 5.25c1.37,-2.85 6.23,-2.48 8.64,-1.65 5.23,1.82 6.1,0.87 9.51,7.14 2.43,4.48 4.94,8.34 2.87,13.64 -1.6,4.12 -5.82,6.62 -10.01,5.13 -3.56,-1.25 -7.36,-3.13 -9.54,-6.38 -0.17,-0.26 -0.25,-0.59 -0.46,-0.8 -4.6,-4.5 -5.96,-8.98 -3.06,-15.14 -3.69,-2.04 -7.07,-3.14 -10.58,-5.5 -0.38,-0.26 -2.2,-1.19 -2.59,-1.39 0.92,0 1.76,-0.74 2.99,-1.18 0.94,-0.33 1.47,0.55 3.85,1.86 3.03,1.67 7.3,3.6 8.38,4.27zm9.48 1.63c-0.06,-0.2 -1.77,-0.23 -2.39,-0.25l0 0 -0.19 -0.01 0 0 -0.18 0 0 0 -0.36 0.01 0 0 0 0 -0.18 0.01 0 0 -0.18 0.01 0 0 -0.17 0.01 0 0c-1.59,0.15 -1.13,0.36 -2.38,0.85l0 0 -0.14 0.06 0 0 -0.15 0.06 0 0 -0.14 0.07 0 0 -0.14 0.07 0 0 -0.13 0.07 0 0 -0.14 0.08 0 0 -0.13 0.07 -0.01 0.01c-0.08,0.05 -0.17,0.1 -0.26,0.16l0 0 -0.13 0.09 0 0 -0.13 0.09 0 0 -0.12 0.1 0 0c-0.67,0.51 -1.28,1.15 -1.83,1.94 -0.1,0.14 -0.19,0.28 -0.27,0.44l0 0c-1.59,3.02 0.28,5.44 2.5,8.03 0.71,0.84 1.06,1.22 1.74,1.94l0.09 0.1 0 0c0.93,0.97 0.66,1.28 1.55,2.14l0 0 0.1 0.1 0 0 0.1 0.09 0 0 0.1 0.09 0 0 0.1 0.1 0 0 0.1 0.09 0 0 0.11 0.09 0.1 0.1 0 0 0.1 0.09 0 0 0.1 0.09 0.1 0.09 0 0 0.1 0.09 0 0 0.11 0.09 0 0 0.1 0.09 0.1 0.09 0 0 0.11 0.09 0.1 0.09 0.1 0.09 0 0 0.11 0.09 0.1 0.09 0 0 0.11 0.09 0.1 0.08 0.11 0.09 0 0c1.03,0.84 0.92,0.47 1.75,0.98l0 0 0.1 0.07 0.01 0 0.1 0.06 0.11 0.05 0 0 0.1 0.06 0 0 0.11 0.06 0 0 0.11 0.05 0 0 0.11 0.05 0.1 0.05 0 0 0.11 0.05 0 0 0.22 0.1 0 0 0.11 0.04 0 0 0.12 0.04 0 0 0.11 0.04 0 0c0.85,0.3 2.99,0.06 4.02,-0.31l0 0 0.12 -0.05 0.01 0 0.12 -0.05 0 0 0.12 -0.05 0 0 0.12 -0.06 0.01 0 0.12 -0.06 0 -0.01 0.09 -0.04 0 0 0.1 -0.06 0 0 0.09 -0.06 0 0 0.09 -0.06 0 0 0.09 -0.07 0 0 0.09 -0.07 0 0 0.09 -0.08 0 0 0.09 -0.08 0 0 0.09 -0.08 0 0 0.09 -0.09 0 0 0.09 -0.09 0 0 0.09 -0.09 0 0 0.09 -0.1 0 0 0.08 -0.1 0 0 0.09 -0.11 0 0 0.08 -0.1 0 0 0.08 -0.11 0 0 0.08 -0.12 0 0 0.08 -0.11 0 0 0.08 -0.12 0 0 0.08 -0.12 0.08 -0.13 0 0 0.07 -0.12 0 0 0.07 -0.13 0.01 0 0.07 -0.13 0 0 0.07 -0.13 0 0 0.07 -0.13 0 0 0.06 -0.14 0 0 0.07 -0.13 0 0 0.06 -0.14 0 0 0.06 -0.14 0 0 0.06 -0.14 0.06 -0.14 0 0 0.06 -0.14 0 0 0.05 -0.15 0.05 -0.14 0 0 0.05 -0.14 0.04 -0.15 0.05 -0.14 0.04 -0.15 0.04 -0.14 0.04 -0.15 0.03 -0.14 0.03 -0.15 0.03 -0.14 0.03 -0.14 0.02 -0.15 0 0 0.02 -0.14 0.02 -0.14 0.01 -0.14 0 0 0.01 -0.14 0.01 -0.14 0 0 0.01 -0.14 0 0 0 -0.14 0 0 0 -0.13 0 0 -0.01 -0.13 0 0 -0.01 -0.13 0 0 -0.01 -0.13 0 0 -0.02 -0.13 0 0 -0.01 -0.12 0 0 -0.03 -0.13 0 0 -0.02 -0.12 0 0 -0.03 -0.11 0 0 -0.04 -0.12 0 0 -0.04 -0.14 0 0 -0.05 -0.14 0 0 -0.04 -0.13 0 -0.01 -0.05 -0.13 0 0 -0.04 -0.14 0 0 -0.05 -0.14 0 0 -0.05 -0.14 0 0 -0.04 -0.14 0 0 -0.05 -0.13 0 -0.01 -0.05 -0.13 0 0 -0.05 -0.14 0 0 -0.04 -0.14 0 0 -0.05 -0.14 0 0 -0.05 -0.13 0 0 -0.05 -0.14 0 0 -0.05 -0.14 0 0 -0.06 -0.13 0 -0.01 -0.05 -0.13 0 0 -0.05 -0.14 0 0 -0.05 -0.14 0 0 -0.06 -0.13 0 0c-0.86,-2.19 -2.56,-5.11 -4.69,-6.88 -1.45,-1.21 -3.64,-1.58 -3.69,-1.78z"/>
    <path class="fil1" d="M115.69 62.04c1.86,-1.05 4.77,-4.26 5.68,-5.39 0.93,-1.17 3.81,-6.32 3.05,-7.84 -2.76,-5.45 -1.63,-10.61 0.91,-15.67 1.02,-2.04 2.25,-3.99 3.58,-5.84 0.79,-1.1 1.79,-2.38 2.98,-2.81 3.03,-1.13 6.21,-2.47 9.36,-2.56 5.71,-0.17 8.43,4.88 8.96,9.95 0.57,5.41 -1.85,9.9 -5.62,13.57 -4.09,3.98 -8.84,6.77 -14.82,6.79 -0.8,0.01 -1.88,0.26 -2.34,0.8 -1.68,1.97 -3.17,4.11 -5.22,6.85 -2.55,0.38 -4.55,2.1 -6.52,2.15zm10.25 -18.17l-0.02 -0.11 0.02 0.11 0 0 0.01 0.05 0 0 0.01 0.02 0 0 0 0.03 0 0 0.01 0.02 0 0 0 0.03 0 0 0.01 0.03 0 0 0 0.03 0 0 0.01 0.03 0 0 0 0.03 0.01 0 0 0.03 0 0 0.01 0.03 0 0 0 0.04 0 0 0.01 0.03 0 0 0.01 0.04 0 0 0 0.03 0 0 0.01 0.04 0 0 0.01 0.04 0 0 0 0.03 0 0.01 0.01 0.03 0 0 0.01 0.04 0 0 0.01 0.04 0 0 0 0.04 0.01 0.01 0 0.04 0 0 0.01 0.04 0 0 0.01 0.04 0 0 0.01 0.04 0 0 0.01 0.05 0 0 0.01 0.04 0 0 0 0.05 0 0 0.01 0.04 0.01 0 0.01 0.09 0 0.01 0.01 0.04 0 0 0.01 0.05 0 0 0.01 0.05 0 0 0.01 0.04 0 0 0.01 0.05 0 0 0.02 0.1 0 0 0.06 0.25 0 0c0.04,0.2 0.09,0.41 0.14,0.61l0.05 0.2 0.01 0c0.01,0.06 0.03,0.13 0.05,0.19l0 0 0.04 0.09 0 0 0.03 0.09 0 0 0.03 0.08 0 0 0.04 0.09 0 0 0.04 0.08 0 0 0.04 0.08 0 0 0.04 0.08 0 0 0.04 0.07 0 0 0.05 0.08 0 0 0.04 0.07 0 0 0.05 0.07 0 0 0.38 0.34 0 0 0.05 0.07 0 0 0.05 0.06 0 0 0.05 0.06 0 0 0.05 0.06 0.06 0.06 0 0 0.11 0.11 0.06 0.06 0 0 0.06 0.05 0.06 0.05 0 0 0.06 0.05 0 0 0.06 0.04 0 0 0.07 0.05 0 0 0.06 0.04 0 0 0.13 0.08 0 0 0.07 0.04 0.07 0.03 0 0 0.07 0.04 0.07 0.03 0.07 0.03 0.07 0.03 0.08 0.03 0 0 0.07 0.02 0.07 0.03 0.01 0 0.07 0.02 0 0 0.08 0.02 0.07 0.02 0.01 0 0.07 0.02 0 0 0.08 0.02 0 0 0.45 0.03 0 0 0.08 0.01 0 0 0.08 0.02 0 0 0.08 0.01 0 0 0.08 0 0 0.01 0.08 0 0 0 0.09 0.01 0 0 0.08 0 0 0c0.25,0.01 0.51,0.01 0.77,-0.02l0.09 -0.01 0 0 0.36 -0.04 0 0 0.38 -0.08 0 0 0.36 -0.06 0 -0.01 0.37 -0.07 0 0 0.36 -0.08 0 0 0.37 -0.1 0 0 0.36 -0.1 0 0 0.37 -0.11 0.42 -0.18 0.36 -0.13 0.37 -0.14 0.36 -0.14 0 0 0.36 -0.16 0.36 -0.16 0.35 -0.18 0.4 -0.2 0.35 -0.18 0 0 0.35 -0.2 0 0 0.35 -0.2 0.34 -0.21 0.34 -0.22 0 0 0.34 -0.23 0 0 0.33 -0.23 0 0 0.29 -0.24 0.36 -0.34 0 0 0.32 -0.25 0.32 -0.27 0 0 0.31 -0.26 0.31 -0.27 0 -0.01 0.3 -0.27 0.29 -0.29 0 0 0.35 -0.29 0.28 -0.3 0 0 0.28 -0.3c0.09,-0.1 0.18,-0.21 0.27,-0.31l0.26 -0.32 0.25 -0.32 0.25 -0.32 0 0 0.24 -0.33 0 0 0.19 -0.36 0.23 -0.33 0 -0.01 0.21 -0.34 0.21 -0.35 0.2 -0.35 0.19 -0.36 0 0 0.18 -0.37 0 0c0.11,-0.24 0.22,-0.48 0.33,-0.73l0 0 0.15 -0.38 0 0 0.12 -0.43 0.13 -0.38 0 0c0.08,-0.26 0.16,-0.52 0.23,-0.78l0 0c0.03,-0.13 0.06,-0.26 0.09,-0.39l0 0c0.06,-0.26 0.12,-0.53 0.16,-0.8l0 0c0.18,-1.06 0.27,-2.2 0.18,-3.31l-0.02 -0.19 0 0c-0.02,-0.13 -0.03,-0.26 -0.05,-0.38l0 0 -0.04 -0.18 0 -0.01 -0.14 -0.26 0 0 -0.04 -0.18 0 0 -0.04 -0.17 -0.01 0 -0.05 -0.18 0 0 -0.05 -0.17 0 0 -0.06 -0.17 0 0 -0.06 -0.17 -0.07 -0.17 0 0 -0.07 -0.16 0 0 -0.12 -0.16 -0.08 -0.16 -0.08 -0.15 -0.08 -0.15 -0.09 -0.15 -0.09 -0.15 -0.1 -0.14 0 0 -0.1 -0.14 -0.1 -0.14 -0.11 -0.13 0 0 -0.11 -0.13 -0.11 -0.13 -0.14 -0.14 -0.12 -0.12 -0.12 -0.12 0 0 -0.12 -0.11 -0.01 0 -0.12 -0.11 0 0 -0.13 -0.1 -0.13 -0.11 0 0 -0.14 -0.09 -0.14 -0.1 0 0 -0.14 -0.09 0 0 -0.14 -0.09 0 0 -0.15 -0.08 -0.14 -0.11 -0.15 -0.07 0 0c-0.11,-0.05 -0.21,-0.1 -0.31,-0.14l0 0 -0.16 -0.06 0 0 -0.15 -0.06 0 0 -0.17 -0.05 0 0 -0.16 -0.05 0 0 -0.16 -0.05 0 0 -0.17 -0.04 0 0 -0.16 -0.03 -0.01 0 -0.16 -0.03 0 0 -0.17 -0.03 0 0 -0.18 -0.02 0 0 -0.17 -0.02 0 0 -0.18 -0.01 0 0 -0.17 -0.01 0 0 -0.29 -0.05 -0.18 0 0 0 -0.18 0.01 0 0 -0.18 0.01 0 0 -0.18 0.02 0 0 -0.18 0.02 0 0c-0.13,0.02 -0.25,0.04 -0.37,0.06l0 0c-0.13,0.03 -0.31,0.07 -0.44,0.11 -0.22,0.05 -0.45,0.12 -0.68,0.19l0 0c-0.33,0.1 -0.67,0.22 -1,0.34l0 0.01 -0.32 0.13 -0.01 0 -0.32 0.14 0 0 -0.32 0.15 0 0c-0.22,0.1 -0.43,0.21 -0.63,0.32l0 0 -0.45 0.17 0 0 -0.31 0.18 0 0 -0.31 0.19 -0.3 0.2 -0.29 0.2 0 0 -0.29 0.21 -0.01 0 -0.28 0.21 0 0 -0.29 0.23 -0.28 0.22 -0.27 0.24 -0.27 0.24 -0.25 0.31 -0.26 0.25 -0.26 0.26 0 0 -0.25 0.27 0 0 -0.25 0.27 -0.24 0.28 -0.24 0.28 -0.23 0.29 0 0 -0.22 0.29 0 0 -0.22 0.3 0 0 -0.25 0.36 0 0.01 -0.21 0.3 0 0 -0.2 0.32 0 0 -0.2 0.31 0 0.01 -0.19 0.32 0 0 -0.19 0.32 0 0 -0.17 0.33 0 0 -0.17 0.34 0 0 -0.17 0.34 0 0 -0.15 0.34 -0.16 0.35 -0.08 0.33 0 0 -0.14 0.35 0 0 -0.13 0.36c-0.08,0.23 -0.16,0.47 -0.24,0.72l0 0 -0.1 0.36 0 0 -0.1 0.37 0 0c-0.49,1.85 -1.09,3.87 -0.94,5.85l0.02 0.12z"/>
    <path class="fil1" d="M158.07 51.49c1.59,-1.12 3.17,-2.26 4.74,-3.4 2.09,-1.52 3.02,-3.96 4.11,-6.38 1.64,-3.6 2.78,-7.27 3.73,-11.05 0.38,-1.47 0.58,-3 1.03,-4.45 2.15,-7.05 6.71,-12.49 12.27,-16.99 4.04,-3.26 8.62,-5.86 13,-8.7 1.73,-1.12 2.73,-0.39 2.97,1.78 1.16,10.95 -2.73,19.92 -10.61,27.36 -0.37,0.35 -0.65,0.78 -1.2,1.43 2.96,-0.06 5.64,-0.04 8.31,-0.19 3.56,-0.2 6.93,0.28 10.21,1.8 2.51,1.17 5.2,1.95 7.73,3.08 0.84,0.37 1.43,1.27 2.14,1.93 -0.59,0.6 -1.08,1.4 -1.79,1.76 -4.58,2.32 -9.09,4.87 -13.87,6.69 -3.8,1.45 -7.9,1.67 -12.11,1.17 -5.48,-0.64 -9.72,-2.62 -15.36,-2.13 -2.18,0.19 -4.9,1.05 -6.53,2.48 -1.78,1.56 -3.28,2.59 -4.78,3.58 -1.17,0.78 -4.49,2.81 -4.44,2.58l0.45 -2.35zm38.86 -47.01c-0.21,0.07 -0.42,0.15 -0.63,0.23 -0.22,0.08 -0.43,0.16 -0.64,0.24l0 0c-0.21,0.09 -0.42,0.17 -0.63,0.26l0 0c-0.21,0.09 -0.41,0.18 -0.62,0.28l0 0c-0.21,0.09 -0.42,0.19 -0.62,0.29l0 0c-0.21,0.1 -0.42,0.2 -0.62,0.31l0 0c-0.21,0.1 -0.41,0.21 -0.62,0.32l0 0c-0.2,0.11 -0.4,0.22 -0.61,0.33l0 0.01c-0.2,0.11 -0.4,0.22 -0.6,0.34l0 0c-0.2,0.12 -0.4,0.24 -0.6,0.37l0 0c-0.2,0.12 -0.4,0.24 -0.6,0.37l0 0c-0.19,0.13 -0.39,0.26 -0.59,0.39l0 0c-0.19,0.13 -0.39,0.27 -0.58,0.4l0 0c-0.19,0.14 -0.39,0.27 -0.58,0.42l0 0c-0.19,0.13 -0.38,0.28 -0.57,0.42l0 0c-0.19,0.14 -0.38,0.29 -0.56,0.44 -0.19,0.14 -0.38,0.29 -0.56,0.44l0 0c-0.19,0.16 -0.37,0.31 -0.56,0.46 -0.18,0.16 -0.36,0.31 -0.54,0.47 -0.18,0.16 -0.36,0.32 -0.54,0.48 -0.17,0.16 -0.35,0.32 -0.53,0.49 -0.17,0.16 -0.35,0.33 -0.52,0.5 -0.17,0.16 -0.34,0.33 -0.51,0.5 -0.17,0.17 -0.34,0.35 -0.51,0.52l0 0c-0.16,0.17 -0.33,0.35 -0.49,0.52l0 0c-0.17,0.18 -0.33,0.36 -0.49,0.53 -0.16,0.18 -0.32,0.36 -0.48,0.54l0 0c-0.16,0.19 -0.32,0.37 -0.47,0.55 -0.15,0.19 -0.31,0.37 -0.46,0.56 -0.3,0.37 -0.6,0.74 -0.89,1.12l0 0c-0.15,0.19 -0.29,0.38 -0.43,0.58 -0.14,0.19 -0.28,0.38 -0.42,0.58 -0.14,0.19 -0.27,0.38 -0.41,0.58 -0.26,0.39 -0.53,0.78 -0.78,1.18l0 0c-0.25,0.4 -0.5,0.8 -0.74,1.2l0 0c-0.11,0.2 -0.23,0.4 -0.35,0.61l0 0c-0.11,0.2 -0.22,0.4 -0.33,0.61l0 0c-0.12,0.2 -0.22,0.4 -0.33,0.61 -0.53,1.02 -1.01,2.05 -1.43,3.09l0 0c-0.09,0.2 -0.17,0.41 -0.25,0.62l0 0c-0.23,0.62 -0.45,1.24 -0.65,1.86l0 0c-0.06,0.21 -0.12,0.42 -0.18,0.63l0 0c-0.3,1.03 -0.54,2.06 -0.7,3.09l0 0c-0.24,0.94 -1.92,4.71 -1.81,6.26l1.55 -1.47 0 0 0.13 -0.06 -0.01 0 0.31 -0.17 0 0 0.06 -0.03 0 0 0.3 -0.15 0 -0.01 0.06 -0.03 0 0 0.12 -0.06 0 0 0.06 -0.03 0 0 0.25 -0.13 0 0 0.06 -0.03 -0.01 0 0.06 -0.03 0 0 0.06 -0.03 0 0 0.07 -0.03 -0.01 0 0.18 -0.09 0 0 0.06 -0.03 0 -0.01 0.06 -0.03 0 0 0.06 -0.03 0 0 0.06 -0.03 0 0 0.06 -0.03 0 0 0.12 -0.06 0 0 0.06 -0.03 0 0 0.12 -0.06 0.06 -0.03 0.29 -0.16 0 0 0.06 -0.03 0 0 0.12 -0.06 0 0 0.06 -0.03 0 0 0.05 -0.04 0.01 0 0.05 -0.03 0.01 0 0.05 -0.03 0.06 -0.03 0 0 0.06 -0.03 0.06 -0.03 0 0 0.06 -0.03 0 0 0.05 -0.04 0.01 0 0.05 -0.03 0 0 0.06 -0.03 0 0 0.06 -0.03 0 0 0.06 -0.03 0 0 0.06 -0.03 0 0 0.06 -0.03 0 0 0.05 -0.03 0 -0.01 0.06 -0.03 0 0 0.11 -0.06 0 0 0.11 -0.05 0 0 0.11 -0.06 0 0 0.11 -0.06 0 0 0.11 -0.06 0 0 0.12 -0.05 -0.01 -0.01 0.12 -0.05 0 0 0.11 -0.06 0 0 0.11 -0.05 0 0 0.11 -0.06 0 0 0.11 -0.06 0 0 0.12 -0.05 0 0 0.11 -0.05 0 -0.01 0.12 -0.05 -0.01 0 0.12 -0.05 0 0 0.11 -0.06 0 0 0.12 -0.05 0 0 0.11 -0.06 0.11 -0.05 0 0 0.12 -0.06 0 0 0.11 -0.05 0.11 -0.06 0 0 0.12 -0.05 0 0 0.11 -0.06 0.11 -0.05 0 0 0.12 -0.06 0 0 0.11 -0.05 0 0 0.11 -0.06 0 0 0.11 -0.05 0 0 0.12 -0.06 0 0 0.11 -0.05 0.11 -0.06 0.11 -0.06 0.11 -0.05 0.12 -0.06 0.11 -0.06 0.11 -0.06 0 0 0.11 -0.06 0 0 0.1 -0.06 0.11 -0.06 0.11 -0.06 0 0 0.11 -0.06 0 0 0.11 -0.06 0.1 -0.06 0.11 -0.06 0.11 -0.07 0.1 -0.06 0.11 -0.07 0.1 -0.06 0.1 -0.07 0 0 0.1 -0.07 0.1 -0.07 0.11 -0.06 0 -0.01 0.09 -0.07 0.01 0 0.09 -0.06 0 0 0.1 -0.08 0 0 0.1 -0.07 0 0 0.1 -0.07 0 0 0.09 -0.08 0 0 0.1 -0.07 -0.01 0c0.13,-0.11 0.25,-0.21 0.37,-0.32l0.16 -0.14 0 0 0.31 -0.28 0 0 0.31 -0.29 0 0 0.15 -0.14 0 0 0.31 -0.29 0 0 0.15 -0.14 0 0 0.15 -0.15 0 0 0.16 -0.14 0 0 0.15 -0.15 0 0 0.15 -0.14 0 -0.01 0.15 -0.14 0.15 -0.15 0 0 0.15 -0.15 0 0 0.15 -0.14 0 0 0.15 -0.15 0.15 -0.15 0 0 0.15 -0.15 0 0 0.15 -0.15 0.15 -0.15 0 0 0.14 -0.15 0.15 -0.15 0 0 0.15 -0.15 0.14 -0.15 0 -0.01 0.15 -0.15 0.15 -0.15 0 0 0.14 -0.15 0 0 0.15 -0.15 0 0 0.14 -0.16 0 0 0.15 -0.15 0 0 0.14 -0.16 0 0 0.14 -0.15 0 0 0.15 -0.16 0 0 0.14 -0.15 0 0 0.14 -0.16 0 0 0.14 -0.15 0 0 0.14 -0.16 0.14 -0.16 0 0 0.14 -0.15 0 -0.01 0.15 -0.15 0 0 0.13 -0.16 0 0 0.14 -0.16 0 0 0.14 -0.16 0 0 0.14 -0.16 0 0 0.14 -0.16 0 0 0.14 -0.16 0 0 0.13 -0.16 0 0 0.14 -0.16 0 0 0.14 -0.16 0 0 0.13 -0.16 0 0 0.14 -0.16 0 0 0.13 -0.16 0 0 0.25 -0.31 0.02 -0.02 0 0 0.13 -0.16 0 0 0.14 -0.16 0 0 0.13 -0.16 0 -0.01 0.13 -0.16 0 0 0.13 -0.16 0 0 0.13 -0.17 0 0 0.13 -0.16 0 0 0.13 -0.16 0 -0.01 0.19 -0.23 0 0 0.17 -0.23 0 0 0.18 -0.24 0 0 0.17 -0.24 0 0 0.17 -0.24 0 0 0.17 -0.24 0 0 0.16 -0.24 0 0 0.16 -0.24 0 0 0.16 -0.24 0 0 0.15 -0.24 0 -0.01c0.1,-0.16 0.2,-0.32 0.29,-0.49l0.01 0 0.14 -0.24 0 0 0.14 -0.25 0 0 0.13 -0.25 0 0 0.14 -0.25 0 0 0.13 -0.26 0 0 0.12 -0.25 0 0 0.12 -0.25 0 0 0.12 -0.26 0 0 0.12 -0.26 0 0 0.11 -0.25 0 0 0.11 -0.26 0 0 0.1 -0.26 0 0 0.1 -0.26 0.01 0 0.09 -0.27 0 0 0.1 -0.26 0 0 0.09 -0.27 0 0 0.09 -0.26 -0.01 0 0.09 -0.27 0 0 0.08 -0.27 0 0 0.07 -0.27 0.08 -0.27 0 0 0.07 -0.27 0 0 0.06 -0.28 0 0 0.06 -0.27 0 0 0.06 -0.28 0 0 0.05 -0.28 0 0 0.05 -0.28 0 0 0.05 -0.28 0.04 -0.28 0 0 0.04 -0.28 0 0 0.04 -0.29 0 0 0.03 -0.28 0 0 0.02 -0.29 0 0 0.03 -0.28 0 -0.01 0.02 -0.28 0 0 0.01 -0.29 0 -0.01 0.01 -0.29 0.01 0 0 -0.29 0.01 -0.29 0 -0.3 -0.01 -0.3 0 0 -0.01 -0.29 0 -0.01 -0.01 -0.29 0 0 -0.01 -0.3 0 -0.01 -0.02 -0.3 0 0 -0.03 -0.3 0 0 -0.03 -0.31 0 0 -0.03 -0.3 0 0c-0.04,-0.41 -0.1,-0.83 -0.17,-1.24zm14.44 33.9l0 0c-0.16,-0.13 -0.33,-0.26 -0.49,-0.38l0 0c-0.17,-0.13 -0.34,-0.26 -0.51,-0.37l0 -0.01c-0.17,-0.12 -0.35,-0.23 -0.52,-0.35l0 0c-0.18,-0.11 -0.36,-0.22 -0.54,-0.33l0 0c-0.19,-0.11 -0.37,-0.22 -0.56,-0.32l0 0c-0.19,-0.1 -0.38,-0.2 -0.57,-0.3l0 0c-0.19,-0.1 -0.38,-0.19 -0.58,-0.29l0 0c-0.2,-0.09 -0.4,-0.18 -0.6,-0.26l0 -0.01c-0.2,-0.08 -0.4,-0.17 -0.61,-0.25 -0.2,-0.08 -0.41,-0.16 -0.62,-0.23l0 0c-0.21,-0.08 -0.42,-0.15 -0.63,-0.22l0 0c-0.21,-0.08 -0.43,-0.14 -0.65,-0.21l0 0c-0.21,-0.06 -0.43,-0.13 -0.65,-0.19l0 0c-0.22,-0.06 -0.44,-0.11 -0.66,-0.17 -0.22,-0.05 -0.45,-0.11 -0.67,-0.16l0 0c-0.23,-0.05 -0.46,-0.09 -0.68,-0.14l0 0c-0.23,-0.05 -0.46,-0.09 -0.69,-0.13 -0.23,-0.04 -0.46,-0.07 -0.7,-0.11l0 0c-0.23,-0.03 -0.46,-0.07 -0.7,-0.1l0 0c-0.23,-0.03 -0.47,-0.06 -0.7,-0.08l0 0c-0.24,-0.03 -0.48,-0.05 -0.72,-0.07l0 0c-0.23,-0.02 -0.47,-0.04 -0.71,-0.05l0 -0.01c-0.24,-0.01 -0.48,-0.03 -0.72,-0.04l0 0c-0.24,-0.01 -0.48,-0.02 -0.72,-0.02l0 0c-0.25,-0.01 -0.49,-0.02 -0.73,-0.02l0 0c-0.24,0 -0.48,0 -0.73,0l0 0c-0.24,0.01 -0.48,0.01 -0.72,0.02 -0.25,0 -0.49,0.01 -0.73,0.02l0 0c-0.25,0.02 -0.49,0.03 -0.73,0.05l0 0c-0.24,0.01 -0.49,0.03 -0.73,0.05l0 0c-0.24,0.02 -0.48,0.04 -0.72,0.06l0 0c-0.25,0.03 -0.49,0.05 -0.73,0.08l0 0c-0.24,0.03 -0.48,0.06 -0.72,0.09l0 0c-0.24,0.04 -0.48,0.07 -0.72,0.11 -0.24,0.03 -0.47,0.07 -0.71,0.11l0 0c-1.66,0.29 -3.28,0.67 -4.83,1.14l0 0c-0.44,0.13 -0.88,0.28 -1.31,0.42l0 0c-0.21,0.08 -0.43,0.15 -0.64,0.23 -0.21,0.08 -0.42,0.16 -0.62,0.24l0 0c-0.21,0.08 -0.42,0.17 -0.62,0.25l0 0c-0.41,0.17 -0.8,0.34 -1.19,0.53l0 0c-0.59,0.27 -1.15,0.56 -1.69,0.86l0 0c-2.16,1.21 -5.88,3.97 -7.11,5.58 1.87,-0.85 4.14,-1.01 5.78,-0.78l0.18 0.03 0 0 0.18 0.02 0 0 0.19 0.03 0 0 0.18 0.02 0 0 0.18 0.03 0 0 0.19 0.02 0 0 0.18 0.03 0 0 0.18 0.03 0.19 0.02 0.18 0.03 0.19 0.02 0 0 0.18 0.03 0 0 0.18 0.03 0.19 0.02 0.18 0.03 0.19 0.03 0.18 0.02 0.18 0.03 0.19 0.03 0.18 0.02 0.19 0.03 0.18 0.03 0 0 0.18 0.03 0.19 0.03 0.18 0.02 0 0 0.19 0.03 0.18 0.03 0.18 0.03 0 0 0.19 0.03 0.18 0.03 0 0 0.19 0.03 0.18 0.03 0 0 0.18 0.03 0 0 0.19 0.03 0 0 0.18 0.03 0.18 0.03 0.01 0 0.18 0.03 0 0 0.18 0.03 0 0 0.19 0.03 0 0 0.18 0.03 0 0 0.18 0.03 0 0 0.19 0.04 0 0 0.18 0.03 0 0 0.18 0.03 0 0 0.18 0.03 0 0 0.18 0.04 0 0 0.36 0.06 0 0 0.18 0.03 0 0 0.54 0.1 0 0 0.18 0.03 0 0 0.18 0.04 0 0 0.9 0.15 0 0 0.36 0.06 0 0 0.18 0.03 0.54 0.09 0 0 0.54 0.08 0 0 0.18 0.02 0 0 0.18 0.03 0 0 0.36 0.04 0 0 0.18 0.03 0.18 0.02 0 0 0.18 0.02 0.18 0.02 0 0 0.18 0.01 0.18 0.02 0.18 0.02 0.18 0.01 0.19 0.01 0.18 0.02 0.18 0.01 0.18 0.01 0.18 0.01 0.18 0 0.18 0.01 0.18 0 0.01 0 0.18 0.01 0 0 0.18 0 0 0 0.18 0 0 0 0.18 -0.01 0.18 0 0 0 0.19 -0.01 0 0 0.18 0 0 0 0.18 -0.01 0 0c0.67,-0.04 1.34,-0.11 2.02,-0.23 1.07,-0.18 2.12,-0.42 3.15,-0.7l0 0c0.51,-0.15 1.02,-0.3 1.53,-0.46l0 0 0.51 -0.17 0.5 -0.18 0 0 0.25 -0.09 0.25 -0.09 0 0 0.25 -0.09 0.25 -0.09 0 0 0.25 -0.1 0 0 0.25 -0.1 0.24 -0.09 0.25 -0.1 0.25 -0.11 0 0 0.24 -0.1 0 0 0.25 -0.1 0 0 0.24 -0.11 0 0 0.25 -0.1 0 0 0.24 -0.11 0 0 0.25 -0.11 0.24 -0.11 0.25 -0.11 -0.01 0 0.25 -0.11 0.24 -0.12 0.24 -0.11 0 0 0.25 -0.12 0 0 0.24 -0.11 0 0 0.24 -0.12 0 0 0.24 -0.12 0.24 -0.12 0 0 0.24 -0.12 0 0 0.24 -0.12 0.25 -0.12 0.24 -0.12 0 0 0.24 -0.13 0 0 0.24 -0.12 0 0 0.24 -0.12 0.24 -0.13 0.24 -0.12 0 0 0.24 -0.13 0 0 0.24 -0.13 0 0 0.24 -0.13 0 0 0.24 -0.12 0.24 -0.13 0 0 0.24 -0.13 0 0 0.24 -0.13 0 0 0.24 -0.13z"/>
    <path class="fil1" d="M26.19 50.08c-1.22,2.03 -2.41,5.39 -3.68,7.4 -2.65,4.18 -4.98,7.32 -8.12,11.1 -2.84,3.43 -9.19,6.29 -13.88,6.81 -1.36,-3.25 -1.02,-4.69 -0.82,-7.13 0.62,-7.56 3.41,-12.42 7.04,-18.82 1.38,-2.45 3.55,-4.48 5.52,-6.55 3.19,-3.36 6.26,-5.63 7.99,-10.14 1.05,-1.98 3.31,-5.24 4.21,-6.93 0.69,-1.32 0.21,-1.53 0.46,-2.81l0 -0.01 0.01 0 0.02 -0.14 0 0 0.02 -0.13 0.01 -0.02 0.02 -0.13 0 -0.01 0.01 -0.1 0.01 -0.04 0 0 0.01 -0.12 0.01 -0.02 0 -0.02 0.01 -0.1 0 -0.04c0.02,-0.13 0.03,-0.26 0.03,-0.39l0 -0.01c0.01,-0.09 0.01,-0.18 0.01,-0.27l3.37 7.17c0.88,10.42 1.97,12.47 -2.26,21.45zm-24.3 22.83c7.36,-1.64 15.25,-9.92 19.77,-19.17 4.55,-9.32 5.94,-17.22 4.2,-25.06 -2.87,5.5 -8.3,12.27 -12.8,16.78 -2.23,2.73 -4.68,5.52 -6.29,8.59 -2.16,4.14 -5.27,12.12 -4.88,18.86z"/>
    <path class="fil0" d="M60.05 65.31c0,0 -3.23,-7.66 -5.94,-12.92 -2.71,-5.26 -5.96,-7.7 -5.96,-7.7l-3.68 -2.59c0,0 5.15,8.05 8.2,14.18 3.05,6.14 4.72,10.36 4.72,10.36l2.68 -0.09 -0.02 -1.24z"/>
    <path class="fil0" d="M114.25 59.8c0,0 21.22,-0.73 31.2,-3.95 9.99,-3.23 15.89,-6.41 15.89,-6.41l-1.47 3.19c0,0 -4.44,3.21 -8.83,4.45 -4.39,1.25 -7.21,2.15 -8.74,2.45 -1.52,0.31 -10.29,1.71 -12.51,1.95 -2.21,0.23 -16.86,1.51 -18.33,0.85 -1.48,-0.66 2.79,-2.53 2.79,-2.53z"/>
    <path class="fil1" d="M138.93 39.6c1.34,-3.4 2.39,-6.22 3.6,-8.98 0.21,-0.48 1.1,-0.96 1.64,-0.92 0.46,0.04 1.13,0.75 1.26,1.27 0.46,1.83 -2.18,7.6 -3.9,8.41 -0.71,0.33 -1.67,0.16 -2.6,0.22z"/>
    <path class="fil1" d="M167.28 71.8c1.18,-1.33 2.11,-1.25 3.41,-0.06 1.75,1.61 3.84,2.83 5.7,4.33 0.54,0.44 0.77,1.25 1.15,1.89 -0.59,0.31 -1.31,1 -1.74,0.85 -3.7,-1.27 -7.53,-2.46 -8.52,-7.01z"/>
    <path class="fil1" d="M59.34 76.23c1.8,2.67 3.59,5.12 5.08,7.74 0.19,0.33 -1.15,1.53 -1.78,2.33 -1.54,-1.55 -3.33,-2.94 -4.55,-4.71 -0.98,-1.43 -1.57,-3.36 1.25,-5.36z"/>
   </g>
  </g>
 </g>
</svg>
