<?xml version="1.0" encoding="utf-8"?>
<!-- Generator: Adobe Illustrator 15.1.0, SVG Export Plug-In . SVG Version: 6.00 Build 0)  -->
<!DOCTYPE svg PUBLIC "-//W3C//DTD SVG 1.1//EN" "http://www.w3.org/Graphics/SVG/1.1/DTD/svg11.dtd">
<svg version="1.1" id="Слой_1" xmlns="http://www.w3.org/2000/svg" xmlns:xlink="http://www.w3.org/1999/xlink" x="0px" y="0px"
	 width="258.145px" height="41px" viewBox="0 0 258.145 41" enable-background="new 0 0 258.145 41" xml:space="preserve">
<g>
	<path fill="none" d="z"/>
	
		<image overflow="visible" enable-background="new    " width="0" height="0" id="Анна_и_Маргарита" xlink:href="14D9BBA7.jpg" >
	</image>
</g>
<g>
	<path fill="#2B3470" d="M17.899,22.68l-3.024-1.045c0.34-0.984,0.688-3.252,1.043-6.803l-8.327-2.88
		c-0.779,0.808-1.47,1.544-2.074,2.208c-1.438,1.602-2.305,2.712-2.6,3.337L0,16.49c0.152-0.277,2.869-2.968,8.149-8.071
		c5.223-5.067,7.962-7.873,8.22-8.419l3.343,1.156c-0.315,0.912-0.621,4.509-0.917,10.792C18.499,18.23,18.201,21.809,17.899,22.68z
		 M16.15,12.684c0.424-6.408,0.717-9.846,0.878-10.312l-0.137-0.047c-0.138,0.303-2.741,2.942-7.807,7.915L16.15,12.684z"/>
	<path fill="#2B3470" d="M36.373,10.372c-0.159,0.876-0.782,3.169-1.871,6.883c-0.986,3.395-1.707,6.134-2.161,8.221l-2.703-0.329
		c0.066-0.358,0.381-1.327,0.945-2.908c0.565-1.581,1.051-3.136,1.459-4.661l-0.159-0.031c-0.158,0.519-0.564,0.717-1.219,0.597
		c-0.306-0.055-1.085-0.222-2.335-0.503c-1.25-0.283-2.003-0.446-2.256-0.493c-0.695-0.126-1.196,0.114-1.503,0.723
		c-0.353,0.678-0.931,2.639-1.737,5.88l-2.686-0.325c0.351-0.971,1.12-3.375,2.306-7.212c0.605-2.069,1.067-3.989,1.388-5.761
		c0.136-0.749,0.237-1.394,0.304-1.939l2.72,0.135c-0.091,0.505-0.698,2.798-1.82,6.875l0.158,0.029
		c0.212-0.506,0.649-0.699,1.314-0.579c0.274,0.05,1.032,0.216,2.272,0.495c1.24,0.279,2.012,0.447,2.319,0.502
		c0.812,0.147,1.394-0.269,1.747-1.251c0.045-0.133,0.226-0.972,0.539-2.518c0.136-0.748,0.217-1.403,0.243-1.965L36.373,10.372z"/>
	<path fill="#2B3470" d="M52.181,14.367c-0.118,0.882-0.632,3.203-1.543,6.963c-0.826,3.438-1.416,6.209-1.772,8.313l-2.715-0.2
		c0.048-0.361,0.317-1.346,0.807-2.95c0.49-1.605,0.902-3.181,1.237-4.725l-0.16-0.021c-0.134,0.522-0.531,0.74-1.189,0.652
		c-0.309-0.042-1.094-0.173-2.356-0.396c-1.263-0.222-2.022-0.35-2.276-0.383c-0.701-0.094-1.19,0.17-1.468,0.793
		c-0.319,0.693-0.805,2.677-1.458,5.954L36.59,28.17c0.304-0.984,0.959-3.425,1.962-7.313c0.506-2.095,0.878-4.034,1.115-5.819
		c0.101-0.754,0.171-1.404,0.211-1.951l2.725,0.006c-0.068,0.509-0.566,2.828-1.494,6.955l0.16,0.021
		c0.188-0.516,0.615-0.729,1.285-0.64c0.277,0.038,1.04,0.165,2.293,0.386c1.252,0.221,2.031,0.352,2.339,0.393
		c0.818,0.108,1.38-0.334,1.686-1.333c0.04-0.135,0.179-0.981,0.419-2.539c0.101-0.754,0.15-1.412,0.149-1.975L52.181,14.367z"/>
	<path fill="#2B3470" d="M66.46,15.983c-1.298,5.376-2.021,9.301-2.168,11.774c-0.067,1.123-0.049,2.444,0.054,3.965l-2.736,0.24
		c-0.007-0.957,0.032-2.152,0.117-3.586l-0.144-0.008c-1.506,2.39-3.373,3.518-5.598,3.386c-1.295-0.077-2.251-0.651-2.869-1.725
		c-0.618-1.073-0.877-2.438-0.778-4.097c0.16-2.675,1.234-4.947,3.225-6.814s4.742-2.719,8.254-2.552l0.735-0.456L66.46,15.983z
		 M63.387,18.359c-2.721-0.107-4.747,0.516-6.079,1.868c-1.332,1.355-2.067,3.209-2.208,5.563c-0.146,2.439,0.595,3.708,2.221,3.805
		c1.134,0.067,2.226-0.685,3.275-2.26s1.729-3.016,2.038-4.324C62.943,21.702,63.194,20.152,63.387,18.359z"/>
	<path fill="#2B3470" d="M90.688,18.622c-1.062,5.911-1.643,9.841-1.746,11.789c-0.059,1.124-0.037,2.339,0.067,3.643l-2.735,0.26
		c-0.015-0.946,0.019-2.194,0.1-3.747l-0.128-0.007c-1.528,2.529-3.512,3.729-5.953,3.601c-2.793-0.146-4.107-1.81-3.94-4.988
		c0.044-0.847,0.255-2.558,0.632-5.136s0.599-4.502,0.666-5.777l2.794-0.175c-0.024,0.46-0.27,1.984-0.739,4.573
		c-0.469,2.59-0.737,4.542-0.806,5.858c-0.066,1.252,0.116,2.134,0.545,2.646s1.131,0.792,2.105,0.843
		c1.166,0.062,2.328-0.646,3.484-2.12c1.156-1.473,1.873-3.121,2.151-4.942c0.394-2.597,0.63-4.646,0.709-6.145L90.688,18.622z"/>
	<path fill="#2B3470" d="M121.359,34.439h-3.039c0-5.639,0.268-11.86,0.804-18.667h-0.177c-0.107,0.343-0.463,1.297-1.069,2.862
		c-0.606,1.564-1.905,4.376-3.899,8.433c-1.994,4.058-3.033,6.515-3.119,7.372h-2.138c0-1.094-0.544-3.958-1.632-8.594
		c-1.088-4.636-1.691-7.303-1.809-7.999c-0.118-0.696-0.214-1.388-0.289-2.074h-0.161c-0.204,1.651-0.772,5.067-1.705,10.25
		s-1.398,7.987-1.398,8.417h-2.685c0-0.375,0.665-3.529,1.994-9.463c1.329-5.932,2.084-9.756,2.267-11.471h3.859
		c0,1.672,0.539,4.625,1.616,8.859c1.077,4.233,1.616,7.084,1.616,8.553h0.161c0.118-1.146,1.302-4.084,3.553-8.811
		c2.251-4.727,3.43-7.594,3.537-8.602h3.939c-0.343,3.055-0.514,6.978-0.514,11.77C121.069,29.037,121.166,32.092,121.359,34.439z"
		/>
	<path fill="#2B3470" d="M138.247,19.192c-0.976,5.444-1.463,9.405-1.463,11.882c0,1.125,0.096,2.443,0.289,3.955l-2.717,0.402
		c-0.064-0.955-0.097-2.15-0.097-3.586h-0.145c-1.361,2.476-3.157,3.713-5.386,3.713c-1.297,0-2.286-0.516-2.966-1.551
		c-0.681-1.034-1.021-2.382-1.021-4.043c0-2.68,0.938-5.012,2.813-6.994s4.572-2.996,8.087-3.039l0.707-0.498L138.247,19.192z
		 M135.321,21.748c-2.723,0.055-4.709,0.797-5.957,2.227c-1.249,1.432-1.873,3.326-1.873,5.684c0,2.444,0.814,3.666,2.443,3.666
		c1.136,0,2.182-0.816,3.136-2.451c0.953-1.635,1.546-3.113,1.776-4.438S135.235,23.549,135.321,21.748z"/>
	<path fill="#2B3470" d="M156.234,24.251c0.022,2.904-0.699,5.304-2.164,7.195c-1.466,1.893-3.452,2.847-5.96,2.866
		c-1.704,0.013-2.955-0.331-3.755-1.032h-0.128c-0.289,2.983-0.504,5.589-0.648,7.82l-2.859,0.182
		c1.274-9.893,1.903-16.205,1.883-18.938c-0.008-1.018-0.103-2.229-0.285-3.631l2.715-0.423c0.07,0.89,0.112,2.138,0.124,3.745
		l0.128-0.001c1.396-2.614,3.326-3.931,5.79-3.95c1.523-0.012,2.76,0.539,3.712,1.652C155.736,20.85,156.221,22.354,156.234,24.251z
		 M153.492,25.236c-0.025-3.301-1.2-4.942-3.525-4.925c-1.158,0.009-2.288,0.751-3.393,2.228c-1.104,1.477-1.734,3.196-1.891,5.159
		l-0.293,3.652c1.044,0.613,2.054,0.917,3.029,0.909c2.047-0.016,3.574-0.672,4.583-1.971
		C153.012,28.989,153.508,27.305,153.492,25.236z"/>
	<path fill="#2B3470" d="M169.56,21.25c0.04,1.071-0.358,2.035-1.194,2.894c-0.702,0.713-1.931,1.549-3.686,2.505
		c-1.229,0.669-2.056,1.237-2.478,1.703c-0.463,0.522-0.68,1.169-0.65,1.939c0.051,1.339,0.934,1.976,2.646,1.911
		c1.403-0.054,2.97-0.606,4.699-1.659l-0.311,2.393c-1.073,0.835-2.579,1.289-4.518,1.362c-1.403,0.054-2.599-0.239-3.589-0.877
		c-0.989-0.638-1.507-1.553-1.553-2.741c-0.052-1.36,0.383-2.496,1.303-3.411c0.6-0.604,1.767-1.365,3.501-2.289
		c1.251-0.67,2.078-1.205,2.481-1.606c0.476-0.47,0.699-1.051,0.673-1.748c-0.038-1.017-1.033-1.489-2.981-1.415
		c-1.317,0.05-2.62,0.496-3.907,1.339l0.311-2.393c1.273-0.649,2.516-0.996,3.726-1.042C167.633,17.977,169.475,19.023,169.56,21.25
		z"/>
	<path fill="#2B3470" d="M184.37,16.483c-0.769,5.478-1.107,9.454-1.014,11.929c0.043,1.124,0.189,2.438,0.439,3.941l-2.701,0.504
		c-0.101-0.951-0.178-2.145-0.231-3.579l-0.145,0.005c-1.267,2.525-3.014,3.83-5.242,3.914c-1.296,0.049-2.304-0.429-3.022-1.438
		c-0.72-1.008-1.11-2.342-1.173-4.002c-0.102-2.678,0.748-5.043,2.548-7.096c1.8-2.052,4.454-3.166,7.966-3.342l0.688-0.524
		L184.37,16.483z M181.543,19.147c-2.719,0.157-4.675,0.975-5.869,2.45c-1.193,1.478-1.746,3.395-1.657,5.75
		c0.093,2.442,0.952,3.633,2.581,3.571c1.135-0.043,2.148-0.898,3.04-2.567c0.892-1.67,1.428-3.17,1.607-4.502
		C181.426,22.518,181.524,20.95,181.543,19.147z"/>
	<path fill="#2B3470" d="M202.236,21.183c0.243,2.895-0.294,5.341-1.61,7.339s-3.226,3.103-5.725,3.313
		c-1.698,0.143-2.972-0.105-3.821-0.744l-0.129,0.011c-0.06,2.995-0.076,5.61-0.051,7.846l-2.838,0.4
		c0.519-9.962,0.664-16.305,0.436-19.027c-0.085-1.015-0.272-2.215-0.56-3.6l2.674-0.627c0.138,0.88,0.274,2.123,0.409,3.725
		l0.128-0.011c1.191-2.715,3.017-4.174,5.473-4.38c1.518-0.127,2.792,0.327,3.826,1.365
		C201.48,17.828,202.078,19.292,202.236,21.183z M199.577,22.374c-0.276-3.29-1.573-4.837-3.891-4.643
		c-1.154,0.097-2.225,0.923-3.213,2.479c-0.987,1.557-1.485,3.319-1.491,5.288l-0.016,3.664c1.088,0.532,2.118,0.757,3.09,0.676
		c2.04-0.171,3.513-0.941,4.42-2.314S199.75,24.436,199.577,22.374z"/>
	<path fill="#2B3470" d="M218.795,13.18c-0.179,6.003-0.176,9.976,0.01,11.917c0.108,1.121,0.309,2.319,0.604,3.594l-2.667,0.66
		c-0.153-0.935-0.305-2.175-0.452-3.721l-0.129,0.012c-1.139,2.726-2.924,4.205-5.356,4.438c-2.786,0.268-4.33-1.184-4.633-4.354
		c-0.081-0.843-0.124-2.566-0.132-5.172c-0.006-2.604-0.071-4.542-0.192-5.812l2.737-0.585c0.044,0.458,0.025,2.002-0.057,4.632
		s-0.061,4.602,0.064,5.914c0.119,1.247,0.431,2.093,0.93,2.534c0.501,0.442,1.235,0.618,2.206,0.524
		c1.163-0.111,2.208-0.98,3.135-2.609c0.926-1.628,1.393-3.364,1.399-5.205c0.006-2.628-0.062-4.689-0.204-6.183L218.795,13.18z"/>
	<path fill="#2B3470" d="M223.372,27.673c-0.243-5.563-0.542-9.321-0.894-11.274c-0.201-1.106-0.53-2.441-0.985-4.003l2.602-0.879
		c0.204,0.769,0.458,1.992,0.763,3.669l0.124-0.023c1.056-2.838,2.653-4.45,4.795-4.838c2.215-0.4,3.555,0.681,4.018,3.244
		l0.143-0.026c1.056-2.837,2.649-4.449,4.778-4.834c1.309-0.237,2.276-0.02,2.903,0.65c0.629,0.671,1.077,1.75,1.347,3.238
		c0.185,1.022,0.391,2.809,0.619,5.358c0.226,2.553,0.457,4.479,0.691,5.774l-2.725,0.656c-0.077-0.433-0.194-1.963-0.348-4.594
		c-0.156-2.629-0.315-4.396-0.478-5.304c-0.261-1.434-0.6-2.392-1.019-2.872c-0.419-0.48-0.94-0.663-1.562-0.551
		c-1.224,0.221-2.193,1.211-2.91,2.968c-0.718,1.761-1.01,3.485-0.876,5.182c0.186,2.3,0.443,4.354,0.771,6.168l-2.709,0.652
		c-0.081-0.45-0.184-2.024-0.305-4.714c-0.122-2.69-0.253-4.425-0.394-5.206c-0.264-1.456-0.606-2.417-1.029-2.886
		c-0.423-0.468-0.939-0.646-1.552-0.536c-1.201,0.216-2.169,1.2-2.896,2.95c-0.729,1.749-1.026,3.481-0.89,5.201
		c0.214,2.631,0.403,4.697,0.565,6.203L223.372,27.673z"/>
	<path fill="#2B3470" d="M256.94,3.735c-0.151,5.529-0.043,9.519,0.327,11.966c0.167,1.114,0.459,2.402,0.877,3.869l-2.628,0.803
		c-0.206-0.935-0.417-2.112-0.63-3.531l-0.144,0.021c-0.977,2.652-2.567,4.143-4.771,4.475c-1.282,0.194-2.337-0.169-3.165-1.09
		c-0.827-0.921-1.364-2.203-1.612-3.846c-0.4-2.65,0.179-5.095,1.738-7.336c1.559-2.24,4.073-3.644,7.543-4.211l0.626-0.599
		L256.94,3.735z M254.428,6.7c-2.684,0.459-4.535,1.49-5.557,3.09c-1.021,1.602-1.355,3.568-1.004,5.898
		c0.365,2.418,1.353,3.504,2.963,3.262c1.124-0.17,2.035-1.134,2.734-2.893c0.7-1.759,1.064-3.309,1.095-4.653
		C254.689,10.061,254.612,8.493,254.428,6.7z"/>
</g>
</svg>
