<?xml version="1.0" encoding="UTF-8"?>
<!DOCTYPE svg PUBLIC "-//W3C//DTD SVG 1.1//EN" "http://www.w3.org/Graphics/SVG/1.1/DTD/svg11.dtd">
<!-- Creator: CorelDRAW 2020 (64-Bit) -->
<svg xmlns="http://www.w3.org/2000/svg" xml:space="preserve" width="402px" height="390px" version="1.1" style="shape-rendering:geometricPrecision; text-rendering:geometricPrecision; image-rendering:optimizeQuality; fill-rule:evenodd; clip-rule:evenodd"
viewBox="0 0 402 390.18"
 xmlns:xlink="http://www.w3.org/1999/xlink"
 xmlns:xodm="http://www.corel.com/coreldraw/odm/2003">
 <defs>
  <style type="text/css">
   <![CDATA[
    .fil0 {fill:#464646;fill-rule:nonzero}
   ]]>
  </style>
 </defs>
 <g id="Слой_x0020_1">
  <metadata id="CorelCorpID_0Corel-Layer"/>
  <path class="fil0" d="M391.9 334.84l-104.25 -101.21c16.08,-24.39 24.67,-52.82 24.67,-81.81 0,-83.77 -69.98,-151.7 -156.27,-151.7 -86.29,0 -156.26,67.93 -156.26,151.7 0,83.77 69.97,151.71 156.26,151.71 29.86,0 59.14,-8.34 84.27,-23.95l104.25 101.21c6.28,6.08 14.8,9.5 23.67,9.5 8.87,0 17.38,-3.42 23.66,-9.5 6.32,-6.07 9.89,-14.35 9.89,-22.97 0,-8.63 -3.57,-16.91 -9.89,-22.98l0 0zm-347.36 -182.91c0,-59.84 49.99,-108.36 111.62,-108.36 61.64,0 111.62,48.52 111.62,108.36 0,59.84 -49.98,108.36 -111.62,108.36 -61.63,0 -111.62,-48.52 -111.62,-108.36l0 0z"/>
 </g>
</svg>
