<?xml version="1.0" encoding="UTF-8"?>
<!DOCTYPE svg PUBLIC "-//W3C//DTD SVG 1.1//EN" "http://www.w3.org/Graphics/SVG/1.1/DTD/svg11.dtd">
<!-- Creator: CorelDRAW 2020 (64-Bit) -->
<svg xmlns="http://www.w3.org/2000/svg" xml:space="preserve" width="76px" height="74px" version="1.1" style="shape-rendering:geometricPrecision; text-rendering:geometricPrecision; image-rendering:optimizeQuality; fill-rule:evenodd; clip-rule:evenodd"
viewBox="0 0 76 74"
 xmlns:xlink="http://www.w3.org/1999/xlink"
 xmlns:xodm="http://www.corel.com/coreldraw/odm/2003">
 <defs>
  <style type="text/css">
   <![CDATA[
    .fil0 {fill:white;fill-rule:nonzero}
   ]]>
  </style>
 </defs>
 <g id="Слой_x0020_1">
  <metadata id="CorelCorpID_0Corel-Layer"/>
  <g id="_2509980215440">
   <path class="fil0" d="M74.5 23.83l-9.24 0 -7.1 -17.36c-0.67,-1.64 -2.22,-2.71 -3.95,-2.71l-1.78 0c-0.55,-2.15 -2.44,-3.76 -4.7,-3.76l-19.46 0c-2.26,0 -4.15,1.61 -4.7,3.76l-1.78 0c-1.73,0 -3.28,1.07 -3.95,2.71l-7.1 17.36 -9.24 0 0 10.03 2.43 0 0 34.41c0,3.16 2.49,5.73 5.56,5.73l57.02 0c3.06,0 5.56,-2.57 5.56,-5.73l0 -34.41 2.43 0 0 -10.03 0 0zm-46.23 -21.32l19.46 0c1.35,0 2.44,1.12 2.44,2.51 0,1.38 -1.09,2.5 -2.44,2.5l-19.46 0c-1.35,0 -2.44,-1.12 -2.44,-2.5 0,-1.39 1.09,-2.51 2.44,-2.51zm-8.19 4.93c0.29,-0.71 0.96,-1.17 1.71,-1.17l1.78 0c0.55,2.16 2.44,3.76 4.7,3.76l19.46 0c2.26,0 4.15,-1.6 4.7,-3.76l1.78 0c0.75,0 1.42,0.46 1.71,1.17l6.69 16.39 -49.22 0 6.69 -16.39zm49.55 60.83c0,1.16 -0.6,2.17 -1.49,2.74 0.16,-0.22 0.28,-0.48 0.28,-0.77 0,-0.69 -0.55,-1.26 -1.22,-1.26 -0.67,0 -1.22,0.57 -1.22,1.26 0,0.61 0.43,1.09 0.99,1.2 -0.15,0.03 -0.3,0.05 -0.46,0.05l-6.61 0 -7.3 0 -7.3 0 -7.3 0 -7.3 0 -7.3 0 -7.3 0 -6.61 0c-0.16,0 -0.31,-0.02 -0.46,-0.05 0.56,-0.11 0.99,-0.59 0.99,-1.2 0,-0.69 -0.55,-1.26 -1.22,-1.26 -0.67,0 -1.22,0.57 -1.22,1.26 0,0.29 0.12,0.55 0.28,0.77 -0.89,-0.57 -1.49,-1.58 -1.49,-2.74l0 -34.41 63.26 0 0 34.41zm2.44 -36.91l-68.14 0 0 -5.02 5.79 0 -0.83 2.02c-0.26,0.64 0.03,1.37 0.65,1.64 0.16,0.07 0.32,0.1 0.48,0.1 0.47,0 0.92,-0.29 1.12,-0.77l1.22 -2.99 51.28 0 1.22 2.99c0.2,0.48 0.65,0.77 1.12,0.77 0.16,0 0.32,-0.03 0.48,-0.1 0.62,-0.27 0.91,-1 0.65,-1.64l-0.83 -2.02 5.79 0 0 5.02z"/>
   <ellipse class="fil0" cx="30.7" cy="40.14" rx="1.22" ry="1.25"/>
   <ellipse class="fil0" cx="34.35" cy="36.37" rx="1.22" ry="1.25"/>
   <ellipse class="fil0" cx="34.35" cy="43.9" rx="1.22" ry="1.25"/>
   <ellipse class="fil0" cx="38" cy="40.14" rx="1.22" ry="1.25"/>
   <ellipse class="fil0" cx="23.4" cy="40.14" rx="1.22" ry="1.25"/>
   <ellipse class="fil0" cx="27.05" cy="36.37" rx="1.22" ry="1.25"/>
   <ellipse class="fil0" cx="27.05" cy="43.9" rx="1.22" ry="1.25"/>
   <ellipse class="fil0" cx="8.8" cy="40.14" rx="1.22" ry="1.25"/>
   <ellipse class="fil0" cx="16.1" cy="40.14" rx="1.22" ry="1.25"/>
   <ellipse class="fil0" cx="12.45" cy="36.37" rx="1.22" ry="1.25"/>
   <ellipse class="fil0" cx="19.75" cy="36.37" rx="1.22" ry="1.25"/>
   <ellipse class="fil0" cx="12.45" cy="43.9" rx="1.22" ry="1.25"/>
   <ellipse class="fil0" cx="19.75" cy="43.9" rx="1.22" ry="1.25"/>
   <ellipse class="fil0" cx="67.2" cy="40.14" rx="1.22" ry="1.25"/>
   <ellipse class="fil0" cx="59.9" cy="40.14" rx="1.22" ry="1.25"/>
   <ellipse class="fil0" cx="63.55" cy="36.37" rx="1.22" ry="1.25"/>
   <ellipse class="fil0" cx="63.55" cy="43.9" rx="1.22" ry="1.25"/>
   <ellipse class="fil0" cx="41.65" cy="36.37" rx="1.22" ry="1.25"/>
   <ellipse class="fil0" cx="41.65" cy="43.9" rx="1.22" ry="1.25"/>
   <ellipse class="fil0" cx="45.3" cy="40.14" rx="1.22" ry="1.25"/>
   <ellipse class="fil0" cx="52.6" cy="40.14" rx="1.22" ry="1.25"/>
   <ellipse class="fil0" cx="30.7" cy="47.66" rx="1.22" ry="1.25"/>
   <ellipse class="fil0" cx="38" cy="47.66" rx="1.22" ry="1.25"/>
   <ellipse class="fil0" cx="23.4" cy="47.66" rx="1.22" ry="1.25"/>
   <ellipse class="fil0" cx="8.8" cy="47.66" rx="1.22" ry="1.25"/>
   <ellipse class="fil0" cx="16.1" cy="47.66" rx="1.22" ry="1.25"/>
   <ellipse class="fil0" cx="67.2" cy="47.66" rx="1.22" ry="1.25"/>
   <ellipse class="fil0" cx="59.9" cy="47.66" rx="1.22" ry="1.25"/>
   <ellipse class="fil0" cx="45.3" cy="47.66" rx="1.22" ry="1.25"/>
   <ellipse class="fil0" cx="52.6" cy="47.66" rx="1.22" ry="1.25"/>
   <ellipse class="fil0" cx="48.95" cy="36.37" rx="1.22" ry="1.25"/>
   <ellipse class="fil0" cx="56.25" cy="36.37" rx="1.22" ry="1.25"/>
   <ellipse class="fil0" cx="48.95" cy="43.9" rx="1.22" ry="1.25"/>
   <ellipse class="fil0" cx="56.25" cy="43.9" rx="1.22" ry="1.25"/>
   <ellipse class="fil0" cx="30.7" cy="55.19" rx="1.22" ry="1.25"/>
   <ellipse class="fil0" cx="34.35" cy="51.42" rx="1.22" ry="1.25"/>
   <ellipse class="fil0" cx="34.35" cy="58.95" rx="1.22" ry="1.25"/>
   <ellipse class="fil0" cx="38" cy="55.19" rx="1.22" ry="1.25"/>
   <ellipse class="fil0" cx="23.4" cy="55.19" rx="1.22" ry="1.25"/>
   <ellipse class="fil0" cx="27.05" cy="51.42" rx="1.22" ry="1.25"/>
   <ellipse class="fil0" cx="27.05" cy="58.95" rx="1.22" ry="1.25"/>
   <ellipse class="fil0" cx="8.8" cy="55.19" rx="1.22" ry="1.25"/>
   <ellipse class="fil0" cx="16.1" cy="55.19" rx="1.22" ry="1.25"/>
   <ellipse class="fil0" cx="12.45" cy="51.42" rx="1.22" ry="1.25"/>
   <ellipse class="fil0" cx="19.75" cy="51.42" rx="1.22" ry="1.25"/>
   <ellipse class="fil0" cx="12.45" cy="58.95" rx="1.22" ry="1.25"/>
   <ellipse class="fil0" cx="19.75" cy="58.95" rx="1.22" ry="1.25"/>
   <ellipse class="fil0" cx="67.2" cy="55.19" rx="1.22" ry="1.25"/>
   <ellipse class="fil0" cx="59.9" cy="55.19" rx="1.22" ry="1.25"/>
   <ellipse class="fil0" cx="63.55" cy="51.42" rx="1.22" ry="1.25"/>
   <ellipse class="fil0" cx="63.55" cy="58.95" rx="1.22" ry="1.25"/>
   <ellipse class="fil0" cx="41.65" cy="51.42" rx="1.22" ry="1.25"/>
   <ellipse class="fil0" cx="41.65" cy="58.95" rx="1.22" ry="1.25"/>
   <ellipse class="fil0" cx="45.3" cy="55.19" rx="1.22" ry="1.25"/>
   <ellipse class="fil0" cx="52.6" cy="55.19" rx="1.22" ry="1.25"/>
   <ellipse class="fil0" cx="30.7" cy="62.71" rx="1.22" ry="1.25"/>
   <ellipse class="fil0" cx="38" cy="62.71" rx="1.22" ry="1.25"/>
   <ellipse class="fil0" cx="23.4" cy="62.71" rx="1.22" ry="1.25"/>
   <ellipse class="fil0" cx="8.8" cy="62.71" rx="1.22" ry="1.25"/>
   <ellipse class="fil0" cx="16.1" cy="62.71" rx="1.22" ry="1.25"/>
   <ellipse class="fil0" cx="67.2" cy="62.71" rx="1.22" ry="1.25"/>
   <ellipse class="fil0" cx="59.9" cy="62.71" rx="1.22" ry="1.25"/>
   <ellipse class="fil0" cx="45.3" cy="62.71" rx="1.22" ry="1.25"/>
   <ellipse class="fil0" cx="52.6" cy="62.71" rx="1.22" ry="1.25"/>
   <ellipse class="fil0" cx="48.95" cy="51.42" rx="1.22" ry="1.25"/>
   <ellipse class="fil0" cx="56.25" cy="51.42" rx="1.22" ry="1.25"/>
   <ellipse class="fil0" cx="48.95" cy="58.95" rx="1.22" ry="1.25"/>
   <ellipse class="fil0" cx="56.25" cy="58.95" rx="1.22" ry="1.25"/>
   <ellipse class="fil0" cx="30.7" cy="70.24" rx="1.22" ry="1.25"/>
   <ellipse class="fil0" cx="34.35" cy="66.47" rx="1.22" ry="1.25"/>
   <ellipse class="fil0" cx="38" cy="70.24" rx="1.22" ry="1.25"/>
   <ellipse class="fil0" cx="23.4" cy="70.24" rx="1.22" ry="1.25"/>
   <ellipse class="fil0" cx="27.05" cy="66.47" rx="1.22" ry="1.25"/>
   <ellipse class="fil0" cx="16.1" cy="70.24" rx="1.22" ry="1.25"/>
   <ellipse class="fil0" cx="12.45" cy="66.47" rx="1.22" ry="1.25"/>
   <ellipse class="fil0" cx="19.75" cy="66.47" rx="1.22" ry="1.25"/>
   <ellipse class="fil0" cx="59.9" cy="70.24" rx="1.22" ry="1.25"/>
   <ellipse class="fil0" cx="63.55" cy="66.47" rx="1.22" ry="1.25"/>
   <ellipse class="fil0" cx="41.65" cy="66.47" rx="1.22" ry="1.25"/>
   <ellipse class="fil0" cx="45.3" cy="70.24" rx="1.22" ry="1.25"/>
   <ellipse class="fil0" cx="52.6" cy="70.24" rx="1.22" ry="1.25"/>
   <ellipse class="fil0" cx="48.95" cy="66.47" rx="1.22" ry="1.25"/>
   <ellipse class="fil0" cx="56.25" cy="66.47" rx="1.22" ry="1.25"/>
  </g>
 </g>
</svg>
