<?xml version="1.0" encoding="UTF-8"?>
<!DOCTYPE svg PUBLIC "-//W3C//DTD SVG 1.1//EN" "http://www.w3.org/Graphics/SVG/1.1/DTD/svg11.dtd">
<!-- Creator: CorelDRAW 2020 (64-Bit) -->
<svg xmlns="http://www.w3.org/2000/svg" xml:space="preserve" width="110px" height="91px" version="1.1" style="shape-rendering:geometricPrecision; text-rendering:geometricPrecision; image-rendering:optimizeQuality; fill-rule:evenodd; clip-rule:evenodd"
viewBox="0 0 110 91"
 xmlns:xlink="http://www.w3.org/1999/xlink"
 xmlns:xodm="http://www.corel.com/coreldraw/odm/2003">
 <defs>
  <style type="text/css">
   <![CDATA[
    .fil1 {fill:#7D8714;fill-rule:nonzero}
    .fil0 {fill:#98B500;fill-rule:nonzero}
   ]]>
  </style>
    <mask id="id0">
  <linearGradient id="id1" gradientUnits="userSpaceOnUse" x1="18.44" y1="-33.81" x2="69.27" y2="94.39">
   <stop offset="0" style="stop-opacity:1; stop-color:white"/>
   <stop offset="1" style="stop-opacity:0; stop-color:white"/>
  </linearGradient>
     <rect style="fill:url(#id1)" x="-0.45" y="0.1" width="110.87" height="91.85"/>
    </mask>
 </defs>
 <g id="Слой_x0020_1">
  <metadata id="CorelCorpID_0Corel-Layer"/>
  <g id="_2510253796960">
   <path class="fil0" d="M18.73 81.79l-5.87 -35.97c-0.6,0.1 -1.21,0.16 -1.83,0.16 -6.07,0 -11,-5.1 -11,-11.37 0,-6.28 4.93,-11.37 11,-11.37 6.07,0 11,5.09 11,11.37 0,1.49 -0.28,2.91 -0.79,4.22l17.28 7.15 11.58 -23.94c-3.61,-1.87 -6.08,-5.72 -6.08,-10.17 0,-6.28 4.92,-11.37 11,-11.37 6.07,0 10.99,5.09 10.99,11.37 0,4.45 -2.47,8.3 -6.08,10.17l11.58 23.94 17.28 -7.15c-0.5,-1.31 -0.78,-2.73 -0.78,-4.22 0,-6.28 4.92,-11.37 10.99,-11.37 6.08,0 11,5.09 11,11.37 0,6.27 -4.92,11.37 -11,11.37 -0.62,0 -1.23,-0.06 -1.83,-0.16l-5.86 35.97c-1.1,5.68 -5.5,9.66 -11,9.66l-51.14 0c-4.94,0 -9.89,-3.98 -10.44,-9.66z"/>
   <path class="fil1" style="mask:url(#id0)" d="M18.69 81.84l-5.86 -35.97c-0.6,0.1 -1.21,0.15 -1.83,0.15 -6.08,0 -11,-5.08 -11,-11.36 0,-6.28 4.92,-11.37 11,-11.37 6.07,0 10.99,5.09 10.99,11.37 0,1.49 -0.28,2.91 -0.78,4.22l17.28 7.14 11.57 -23.93c-3.6,-1.87 -6.07,-5.72 -6.07,-10.17 0,-6.28 4.92,-11.37 10.99,-11.37 6.08,0 11,5.09 11,11.37 0,4.45 -2.47,8.3 -6.08,10.17l11.58 23.93 17.28 -7.14c-0.51,-1.31 -0.79,-2.73 -0.79,-4.22 0,-6.28 4.93,-11.37 11,-11.37 6.07,0 11,5.09 11,11.37 0,6.28 -4.93,11.36 -11,11.36 -0.62,0 -1.23,-0.05 -1.83,-0.15l-5.87 35.97c-1.1,5.68 -5.5,9.66 -10.99,9.66l-51.14 0c-4.95,0 -9.9,-3.98 -10.45,-9.66z"/>
  </g>
 </g>
</svg>
