<?xml version="1.0" encoding="UTF-8"?>
<!DOCTYPE svg PUBLIC "-//W3C//DTD SVG 1.1//EN" "http://www.w3.org/Graphics/SVG/1.1/DTD/svg11.dtd">
<!-- Creator: CorelDRAW 2020 (64-Bit) -->
<svg xmlns="http://www.w3.org/2000/svg" xml:space="preserve" width="135px" height="81px" version="1.1" style="shape-rendering:geometricPrecision; text-rendering:geometricPrecision; image-rendering:optimizeQuality; fill-rule:evenodd; clip-rule:evenodd"
viewBox="0 0 135 81"
 xmlns:xlink="http://www.w3.org/1999/xlink"
 xmlns:xodm="http://www.corel.com/coreldraw/odm/2003">
 <defs>
  <style type="text/css">
   <![CDATA[
    .fil0 {fill:#2B2A29}
    .fil1 {fill:#2B2A29;fill-rule:nonzero}
   ]]>
  </style>
 </defs>
 <g id="Слой_x0020_1">
  <metadata id="CorelCorpID_0Corel-Layer"/>
  <g id="_2509187415584">
   <path class="fil0" d="M18.9 74.27c-0.28,-0.71 -0.55,-1.43 -0.81,-2.14l-0.12 -0.33 0.31 -0.16c0.26,-0.14 0.33,-0.39 0.33,-0.68 0,-0.31 -0.09,-0.58 -0.25,-0.84 -0.12,-0.2 -0.27,-0.31 -0.51,-0.31 -0.07,0 -0.15,0 -0.21,0l-0.3 0 -0.08 -0.27c-0.22,-0.65 -0.4,-1.34 -0.56,-2.01 -0.28,-1.15 -0.53,-2.3 -0.78,-3.46 -0.22,-1.01 -0.47,-2.02 -0.77,-3.01 -0.24,-0.76 -0.51,-1.52 -0.85,-2.24 -0.31,-0.64 -0.75,-1.1 -1.48,-1.1 -1.03,0 -1.66,0.71 -2.07,1.59 -0.15,0.33 -0.29,0.68 -0.41,1.02 -0.22,0.58 -0.42,1.16 -0.62,1.74 -0.63,1.86 -1.22,3.73 -1.8,5.6 -0.57,1.87 -1.15,3.74 -1.67,5.62 -0.15,0.53 -0.29,1.07 -0.42,1.62 -0.04,0.22 -0.13,0.55 -0.13,0.77 0,0.67 0.29,0.93 0.95,0.93 0.05,-0.01 0.17,-0.13 0.2,-0.16 0.16,-0.19 0.3,-0.44 0.41,-0.66 0.18,-0.37 0.35,-0.75 0.49,-1.14 0.2,-0.52 0.37,-1.06 0.53,-1.59l0.08 -0.25 7.79 -0.93 0.11 0.29c0.24,0.62 0.47,1.25 0.67,1.89 0.13,0.37 0.25,0.75 0.38,1.12 0.07,0.19 0.14,0.41 0.24,0.59 0.2,0.4 0.53,0.84 1.02,0.84 0.18,0 0.69,-0.02 0.81,-0.21 0.03,-0.05 0.04,-0.1 0.04,-0.15 0,-0.22 -0.07,-0.51 -0.12,-0.71 -0.12,-0.43 -0.25,-0.86 -0.4,-1.27l0 0zm-3.8 -4.17c-1.84,0.44 -3.78,0.66 -5.66,0.79l-0.58 0.04 0.16 -0.55c1.03,-3.42 2.09,-6.82 3.17,-10.21 0.8,-2.48 2.91,8.39 3.3,9.83l-0.39 0.1 0 0zm17.93 -1.29c0,0.98 -0.02,1.94 -0.04,2.91 -0.02,0.96 -0.04,1.93 -0.04,2.89 0,0.43 0.04,1.74 0.52,1.96 0.06,0.03 0.12,0.04 0.19,0.04 0.3,0 0.54,-0.15 0.74,-0.36 0.21,-0.21 0.36,-0.46 0.36,-0.77 0,-0.46 -0.02,-0.93 -0.02,-1.39 -0.02,-1.18 -0.04,-2.35 -0.06,-3.54 -0.01,-0.94 -0.04,-1.9 -0.12,-2.84 -0.05,-0.57 -0.11,-1.2 -0.26,-1.75 -0.37,-1.45 -1.14,-2.59 -2.59,-3.08 -0.36,-0.12 -0.74,-0.17 -1.12,-0.17 -1.68,0 -2.96,0.96 -3.96,2.25l-0.53 0.7 -0.18 -0.86c-0.1,-0.54 -0.27,-1.21 -0.52,-1.7 -0.06,-0.1 -0.22,-0.39 -0.36,-0.39 -0.31,0 -0.53,0.15 -0.7,0.41 -0.21,0.31 -0.33,0.65 -0.33,1.03 0,0.88 0.07,1.8 0.14,2.68 0.07,0.91 0.14,1.83 0.14,2.74 0,0.76 0,1.53 0,2.3 0,0.76 0,1.52 0,2.29 0,0.49 0.03,2.08 0.59,2.32 0.06,0.02 0.12,0.03 0.18,0.03 0.32,0 0.53,-0.18 0.69,-0.45 0.2,-0.31 0.29,-0.65 0.29,-1.02 0,-0.57 -0.06,-1.16 -0.11,-1.73 -0.06,-0.59 -0.11,-1.2 -0.11,-1.8 0,-1.44 0.24,-2.88 0.88,-4.18 0.7,-1.46 1.81,-2.45 3.48,-2.45 1.01,0 2.03,0.29 2.5,1.26l0.01 0 0 0.01c0.32,0.68 0.34,1.92 0.34,2.66l0 0zm16.43 3.98c0.26,-0.7 0.53,-1.43 0.72,-2.15l0 -0.01 0 0c0.04,-0.11 0.11,-0.35 0.11,-0.48 0,-0.33 -0.3,-0.54 -0.57,-0.68 -0.37,-0.19 -0.77,-0.3 -1.19,-0.3 -0.19,0 -0.36,0.06 -0.52,0.16 -0.11,0.08 -0.16,0.17 -0.16,0.31 0,0.15 0.04,0.36 0.08,0.51 0.04,0.22 0.09,0.46 0.09,0.69 0,0.86 -0.39,1.71 -0.85,2.43 -0.46,0.72 -1.15,1.51 -2.08,1.51 -0.95,0 -1.36,-0.97 -1.56,-1.75 -0.2,-0.76 -0.29,-1.54 -0.29,-2.32 0,-0.25 0.02,-0.5 0.05,-0.75 0.03,-0.4 0.06,-0.8 0.11,-1.2 0.13,-1.27 0.3,-2.54 0.46,-3.8l0.04 -0.3 0.29 -0.05c1.1,-0.18 2.21,-0.36 3.31,-0.55 0.3,-0.06 0.6,-0.11 0.91,-0.17 0.12,-0.02 0.26,-0.04 0.38,-0.07 0.42,-0.12 0.96,-0.33 0.96,-0.85 0,-0.27 -0.11,-0.49 -0.3,-0.67 -0.19,-0.19 -0.4,-0.3 -0.67,-0.3 -0.69,0 -1.39,0.1 -2.05,0.25 -0.7,0.15 -1.4,0.31 -2.1,0.45l-0.55 0.11 0.08 -0.56c0.02,-0.18 0.09,-0.41 0.13,-0.6 0.11,-0.44 0.23,-0.88 0.34,-1.32 0.15,-0.59 0.92,-6.37 0.92,-6.97 0,-0.2 -0.03,-0.63 -0.21,-0.75 -0.06,-0.04 -0.13,-0.05 -0.2,-0.05 -1.61,0 -2.69,9.19 -2.79,10.23l-0.03 0.32 -0.32 0.04c-0.46,0.06 -0.92,0.12 -1.37,0.2 -0.23,0.04 -0.49,0.08 -0.72,0.15 -0.54,0.19 -0.97,0.5 -0.97,1.12 0,0.21 0.06,0.4 0.19,0.57 0.1,0.14 0.22,0.21 0.38,0.21 0.06,0 0.13,-0.01 0.19,-0.02 0.13,-0.02 0.27,-0.04 0.41,-0.06 0.47,-0.07 0.95,-0.15 1.43,-0.24l0.51 -0.09 -0.05 0.52c-0.03,0.33 -0.06,0.66 -0.1,0.98 -0.08,0.62 -0.15,1.23 -0.22,1.84 -0.11,0.92 -0.19,1.87 -0.19,2.79 0,1.24 0.23,2.45 0.77,3.58 0.5,1.04 1.23,1.91 2.46,1.91 1.08,0 2.02,-0.54 2.81,-1.24 0.83,-0.72 1.48,-1.58 1.93,-2.58l0 0zm5.94 -11.24c0.04,-0.03 0.07,-0.06 0.1,-0.08 0.11,-0.1 0.43,-0.26 0.54,-0.32 0.45,-0.25 0.9,-0.49 1.35,-0.74 0.28,-0.16 1.04,-0.61 1.04,-1 0,-0.47 -0.17,-0.85 -0.48,-1.18 -0.3,-0.33 -0.66,-0.51 -1.1,-0.51 -0.62,0 -1.17,0.25 -1.66,0.61l0 0 0 0c-0.45,0.32 -0.84,0.75 -0.84,1.32 0,0.33 0.29,0.88 0.46,1.15 0.12,0.21 0.26,0.44 0.44,0.61 0.02,0.03 0.1,0.1 0.15,0.14l0 0zm1.73 14.35c0,-0.08 -0.02,-0.19 -0.03,-0.28 -0.02,-0.23 -0.05,-0.47 -0.08,-0.71 -0.08,-0.72 -0.08,-1.49 -0.08,-2.21 0,-1.04 0.02,-2.09 0.04,-3.14 0.03,-1.05 0.05,-2.1 0.05,-3.15 0,-0.51 -0.04,-1.66 -0.57,-1.95 -0.11,-0.06 -0.23,-0.08 -0.35,-0.08 -0.1,0 -0.2,0.02 -0.28,0.05 -0.71,0.33 -0.74,2.05 -0.74,2.68 0,1.3 0.02,2.6 0.04,3.9 0.03,1.31 0.05,2.62 0.05,3.93 0,0.43 0.04,1.31 0.48,1.58 0.11,0.06 0.24,0.09 0.37,0.09 0.3,0 0.8,-0.04 0.99,-0.3 0.09,-0.12 0.11,-0.26 0.11,-0.41zm4.94 -12.46c0,1.52 0.04,3.04 0.08,4.56 0.03,1.52 0.07,3.04 0.09,4.55 0.03,1.69 0.05,3.38 0.08,5.06 0.02,0.49 0.02,0.99 0.04,1.48 0.01,0.25 0.01,0.51 0.03,0.76 0.03,0.4 0.14,1.43 0.58,1.61 0.06,0.03 0.12,0.04 0.19,0.04 0.12,0 0.24,-0.02 0.34,-0.08 0.48,-0.27 0.52,-1.27 0.52,-1.73 0,-0.48 0.03,-0.95 0.05,-1.42l0 -0.01 0 0c0.04,-0.45 0.08,-0.92 0.08,-1.38l0 -0.33 0.33 -0.06c2.36,-0.44 4.35,-1.98 5.94,-3.71 1.56,-1.7 2.96,-3.85 2.96,-6.25 0,-1.05 -0.31,-1.99 -1.02,-2.77 -0.71,-0.77 -1.6,-1.1 -2.63,-1.1 -1.94,0 -3.71,0.78 -5.27,1.87l-0.56 0.39 -0.07 -0.68c-0.04,-0.37 -0.15,-0.73 -0.34,-1.06 -0.14,-0.25 -0.36,-0.52 -0.66,-0.52 -0.22,0 -0.39,0.07 -0.54,0.22 -0.15,0.16 -0.22,0.34 -0.22,0.56l0 0zm1.99 3.56c0.73,-0.55 1.47,-1.1 2.21,-1.64l0.01 -0.02 0.01 0c0.81,-0.53 1.77,-0.97 2.75,-0.97 0.7,0 1.36,0.19 1.92,0.62 0.59,0.44 0.89,1.05 0.89,1.79 0,1.87 -1.39,3.61 -2.65,4.86 -1.3,1.29 -2.85,2.49 -4.59,3.12l-0.55 0.19 0.01 -0.58c0.02,-1.29 0.02,-2.59 -0.01,-3.89 -0.02,-1.04 -0.07,-2.08 -0.16,-3.12l-0.02 -0.22 0.18 -0.14 0 0zm23.23 8.65c0.09,0.27 0.35,0.96 0.72,0.96 0.23,0 0.42,-0.09 0.58,-0.24 0.15,-0.14 0.25,-0.3 0.25,-0.51 0,-0.35 -0.12,-0.8 -0.21,-1.13 -0.11,-0.43 -0.24,-0.93 -0.24,-1.37 0,-1.62 0.05,-3.26 0.09,-4.88 0.05,-1.62 0.09,-3.25 0.09,-4.87 0,-0.26 -0.05,-0.52 -0.2,-0.73l-0.01 0 0 -0.01c-0.12,-0.19 -0.26,-0.31 -0.49,-0.31 -0.6,0 -0.89,0.2 -0.91,0.81l0 0.25 -0.38 0.18 -0.12 -0.01c-0.42,-0.06 -0.91,-0.21 -1.32,-0.33l0 -0.01 -0.01 0c-0.33,-0.11 -0.77,-0.25 -1.12,-0.25 -1.54,0 -2.94,1.23 -3.9,2.3 -1.11,1.23 -2.02,2.62 -2.6,4.17 -0.29,0.78 -0.44,1.59 -0.44,2.42 0,1.06 0.2,2.13 0.79,3.02 0.61,0.91 1.45,1.33 2.54,1.33 1.11,0 2.18,-0.29 3.17,-0.78 1.01,-0.48 1.91,-1.13 2.64,-1.99l0.55 -0.64 0.15 0.84c0.07,0.37 0.13,0.75 0.22,1.13 0.04,0.21 0.09,0.44 0.16,0.65l0 0zm-0.35 -7.28c0,1.73 -0.71,3.18 -1.92,4.39 -1.22,1.21 -2.68,1.92 -4.4,1.92 -1.29,0 -2.07,-0.68 -2.07,-2 0,-1.65 0.79,-3.32 1.66,-4.69 0.85,-1.36 2.17,-2.96 3.92,-2.96 2.08,0 2.81,1.46 2.81,3.34l0 0zm14.08 -2.32c0.02,0.12 0.25,0.26 0.33,0.31l0.01 0 0.01 0c0.19,0.11 0.43,0.22 0.66,0.22 0.37,0 0.62,-0.23 0.81,-0.55 0.21,-0.36 0.31,-0.76 0.31,-1.19 0,-0.08 -0.02,-0.16 -0.05,-0.24 -0.66,-1.58 -2.31,-1.94 -3.87,-1.94 -1.37,0 -2.58,0.42 -3.63,1.29 -1.06,0.87 -1.65,1.97 -1.65,3.34 0,0.18 0.03,0.35 0.09,0.52 0.48,1.15 1.49,1.96 2.55,2.54 0.45,0.24 0.93,0.45 1.41,0.63 0.68,0.27 1.39,0.51 2.09,0.75 0.47,0.16 0.98,0.33 1.44,0.55 0.28,0.15 0.64,0.35 0.75,0.66l0.06 0.17 -0.09 0.16c-0.34,0.6 -1.33,0.93 -1.95,1.12 -0.67,0.21 -1.43,0.39 -2.13,0.39 -0.68,0 -1.33,-0.16 -1.91,-0.51 -0.16,-0.11 -0.32,-0.24 -0.46,-0.37 -0.21,-0.18 -0.41,-0.38 -0.61,-0.57 -0.1,-0.09 -0.39,-0.35 -0.54,-0.35 -0.28,0 -0.51,0.13 -0.71,0.33 -0.19,0.18 -0.33,0.39 -0.33,0.66 0,0.64 0.83,1.27 1.29,1.59 0.65,0.44 1.43,0.85 2.2,0.98 0.28,0.04 0.56,0.07 0.85,0.07 1.11,0 2.33,-0.39 3.36,-0.79 0.76,-0.29 2.23,-0.93 2.52,-1.77 0.12,-0.33 0.17,-0.66 0.17,-1.01 0,-1.12 -1.2,-1.91 -2.07,-2.37 -1.21,-0.52 -2.41,-1.04 -3.62,-1.54l-0.01 0 -0.01 -0.01c-0.63,-0.29 -1.33,-0.65 -1.88,-1.08 -0.37,-0.3 -0.75,-0.7 -0.75,-1.21 0,-0.9 0.67,-1.52 1.41,-1.92l0 0 0 -0.01c0.69,-0.36 1.44,-0.59 2.23,-0.59 0.59,0 1.78,0.02 2.01,0.72 0.02,0.08 0.03,0.15 0.03,0.23 0,0.21 -0.1,0.43 -0.22,0.61 -0.03,0.04 -0.08,0.13 -0.1,0.18l0 0zm8.05 -2.55c-0.55,0.19 -0.98,0.5 -0.98,1.12 0,0.21 0.06,0.4 0.19,0.57 0.1,0.14 0.22,0.21 0.39,0.21 0.05,0 0.12,-0.01 0.17,-0.02 0.14,-0.02 0.28,-0.04 0.41,-0.06 0.48,-0.07 0.96,-0.15 1.44,-0.24l0.51 -0.09 -0.05 0.52c-0.03,0.33 -0.07,0.66 -0.1,0.99 -0.07,0.61 -0.15,1.22 -0.22,1.83 -0.1,0.92 -0.19,1.87 -0.19,2.79 0,1.25 0.24,2.45 0.77,3.58 0.49,1.04 1.24,1.91 2.47,1.91 1.07,0 2.01,-0.54 2.8,-1.24 0.83,-0.72 1.48,-1.58 1.93,-2.58 0.26,-0.7 0.53,-1.43 0.72,-2.15l0 -0.01 0 0c0.04,-0.11 0.11,-0.35 0.11,-0.48 0,-0.33 -0.29,-0.54 -0.57,-0.68 -0.37,-0.19 -0.77,-0.29 -1.19,-0.29 -0.19,0 -0.36,0.05 -0.52,0.15 -0.11,0.08 -0.16,0.17 -0.16,0.31 0,0.15 0.04,0.36 0.07,0.51 0.06,0.22 0.1,0.46 0.1,0.69 0,0.86 -0.39,1.71 -0.85,2.43 -0.46,0.72 -1.16,1.51 -2.08,1.51 -0.94,0 -1.36,-0.97 -1.56,-1.75 -0.2,-0.76 -0.29,-1.54 -0.29,-2.32 0,-0.25 0.02,-0.5 0.04,-0.75 0.03,-0.4 0.08,-0.8 0.12,-1.2 0.13,-1.27 0.29,-2.54 0.46,-3.8l0.04 -0.3 0.29 -0.05c1.1,-0.18 2.2,-0.36 3.31,-0.55 0.3,-0.06 0.61,-0.11 0.9,-0.17 0.13,-0.02 0.27,-0.04 0.39,-0.07 0.42,-0.12 0.96,-0.33 0.96,-0.85 0,-0.27 -0.11,-0.49 -0.3,-0.67 -0.19,-0.19 -0.41,-0.3 -0.67,-0.3 -0.69,0 -1.39,0.1 -2.06,0.25 -0.69,0.15 -1.39,0.31 -2.09,0.45l-0.56 0.11 0.08 -0.56c0.04,-0.18 0.1,-0.41 0.15,-0.6 0.11,-0.44 1.35,-7.21 1.46,-7.65 0.15,-0.58 0.68,-3.93 0.68,-4.53 0,-0.2 -0.01,-0.63 -0.2,-0.76 -0.06,-0.03 -0.14,-0.05 -0.2,-0.05 -1.61,0 -3.59,13.09 -3.7,14.13l-0.03 0.32 -0.31 0.04c-0.46,0.06 -0.92,0.12 -1.37,0.2 -0.23,0.04 -0.49,0.08 -0.71,0.15l0 0zm15.48 -1.95c0.04,-0.03 0.08,-0.06 0.1,-0.08 0.11,-0.1 0.43,-0.26 0.54,-0.32 0.45,-0.25 0.9,-0.49 1.35,-0.74 0.28,-0.16 1.04,-0.61 1.04,-1 0,-0.47 -0.17,-0.85 -0.48,-1.18 -0.3,-0.33 -0.66,-0.51 -1.1,-0.51 -0.62,0 -1.17,0.25 -1.66,0.61l0 0 -0.01 0c-0.44,0.32 -0.84,0.75 -0.84,1.32 0,0.33 0.31,0.88 0.47,1.15 0.12,0.21 0.27,0.44 0.44,0.61 0.02,0.03 0.1,0.1 0.15,0.14l0 0zm1.73 14.35c0,-0.08 -0.02,-0.19 -0.02,-0.28 -0.03,-0.23 -0.06,-0.47 -0.08,-0.71 -0.09,-0.72 -0.1,-1.49 -0.1,-2.21 0,-1.04 0.03,-2.09 0.05,-3.14 0.03,-1.05 0.05,-2.1 0.05,-3.15 0,-0.51 -0.04,-1.66 -0.58,-1.95 -0.1,-0.06 -0.22,-0.08 -0.34,-0.08 -0.1,0 -0.2,0.02 -0.28,0.05 -0.7,0.33 -0.74,2.05 -0.74,2.68 0,1.3 0.02,2.6 0.05,3.9 0.02,1.31 0.04,2.62 0.04,3.93 0,0.43 0.05,1.31 0.48,1.58 0.11,0.06 0.25,0.09 0.38,0.09 0.29,0 0.79,-0.04 0.99,-0.3 0.08,-0.12 0.1,-0.26 0.1,-0.41z"/>
   <g>
    <path class="fil1" d="M54.23 36.79l0.32 0.04c0.62,0.13 1.26,0.24 1.89,0.31 0.22,0.02 0.46,0.03 0.72,0.03 0.91,0.12 1.77,0.22 2.63,0.25 3.7,0.15 7.4,0.27 11.1,0.34l-0.49 1.28c0,0 0.99,-0.02 2.49,0.32 -0.83,0.05 -1.64,0.08 -2.46,0.11 -0.08,0 -0.15,0 -0.21,0.01l0 0c-0.89,0.04 -1.78,0.07 -2.67,0.1 -5.08,0.18 -10.31,-0.27 -15.31,-1.26 -2.93,-0.58 -9.84,-2.06 -12.49,-3.43 -0.74,-0.38 -1.95,-1.24 -3.03,-1.6l-8.89 -5.55c1.34,0.84 -2.91,-2.6 -3.64,-3.13 -0.35,-0.4 -0.76,-0.77 -1.21,-1.13 -1.59,-1.24 -3.04,-2.64 -4.52,-4.01 -0.65,-0.77 -4.58,-5.51 -5.7,-7.18 -0.1,-0.15 -0.77,-1.28 -0.77,-1.28l-0.01 -0.11c0,-0.11 -0.01,-0.23 -0.02,-0.33l0 0c-0.03,-0.22 -0.08,-0.44 -0.15,-0.66l0 0c-0.07,-0.2 -0.15,-0.39 -0.25,-0.58l0 0c-0.18,-0.33 -0.43,-0.65 -0.74,-0.98 -1.02,-1.08 -0.67,-1.88 -0.49,-3.2 0.64,0.43 0.44,-0.61 0.91,-0.18 0.32,0.29 1.38,2.07 1.5,2.48 0.2,0.76 0.53,1.37 0.96,1.86l0 0c0,0 0.97,1.99 2.6,4.22l0 0 -0.01 0 0 0 -0.03 0 -0.01 0 0 0 -0.01 0 -0.02 0 0.03 0.05 0.04 0.04 0 0 0.03 0.05 0.03 0.03 0 0.01 0.03 0.04 0.03 0.04 0 0.01 0.04 0.03 0.03 0.05 0 0 0.03 0.04 0.04 0.04 0 0.01 0.03 0.04 0.03 0.04 0 0.01 0.03 0.03 0.03 0.05 0.01 0 0.03 0.04 0.03 0.05 0 0 0.03 0.04 0.03 0.04 0 0.01 0.03 0.04 0.03 0.04 0.01 0.01 0.02 0.03 0.03 0.05 0.01 0 0.03 0.04 0.03 0.05 0 0 0.03 0.04 0 0.01 0.06 0.07 0.01 0.01 0.03 0.04 0 0.01 0.03 0.04 0.03 0.04 0.01 0.01 0.02 0.04 0.03 0.04 0.01 0.01 0.02 0.03 0.03 0.05 0.01 0.01 0.02 0.04 0.03 0.04 0.01 0.01 0.03 0.03 0.03 0.05 0 0 0.03 0.04 0.03 0.04 0.01 0.02 0.02 0.03 0.03 0.04 0.01 0.01 0.02 0.04 0.03 0.04 0.01 0.01 0.02 0.04 0.04 0.04 0.01 0.01 0.02 0.04 0.03 0.04 0.01 0.01 0.02 0.03 0.04 0.05 0 0.01 0.03 0.03 0.03 0.04 0 0.02 0.03 0.03 0.03 0.05 0.01 0.01 0.02 0.03 0.03 0.04 0.01 0.02 0.02 0.03 0.03 0.04 0.02 0.01 0.02 0.03 0.03 0.05 0.01 0.01 0.02 0.03 0.03 0.04 0.01 0.02 0.03 0.03 0.03 0.04c0.68,0.95 1.4,1.86 2.23,2.64 2.77,2.65 5.83,5 8.79,7.44 0.1,0.08 10.14,6.2 10.53,6.37 2.65,1.13 5.17,1.68 7.9,2.59 0.63,0.21 5.11,1.04 6.57,1.38l-0.05 0.02 0.01 0.01z"/>
    <path class="fil1" d="M19.87 18.89c-0.3,-0.21 1.63,2.8 2.58,5.59 0.95,2.79 1.86,6.53 2.3,9.58 0.51,3.59 0.43,7.15 -0.28,10.72 -0.45,2.3 -2.14,4.07 -1.47,6.44 0.1,0.32 -0.24,1.03 -0.54,1.14 -0.32,0.12 -0.97,-0.12 -1.22,-0.42 -1.34,-1.58 -2.77,-3.12 -3.84,-4.88 -1.66,-2.73 -2.02,-5.87 -1.73,-9 0.27,-2.85 0.93,-5.68 1.24,-8.65 1.07,-8.05 0.39,-7.41 0.64,-12.02 -1.62,0.46 1.59,-1.59 2.32,1.5l0 0zm-0.22 2.39c-0.47,2.56 -0.79,8.55 -1.26,11.11 -0.74,3.97 -1.46,7.93 -0.21,11.95 0.46,1.47 1.33,4.04 2.88,4.53 3.37,-7.14 2.95,-19.14 -1.41,-27.59z"/>
    <path class="fil1" d="M14.05 11.41c1.43,1.18 3.34,1.48 5.25,1.74 0.62,0.09 1.3,-0.08 1.94,-0.21 1.21,-0.23 3.34,-0.49 4.32,-1.16 2.97,-2.05 5.87,-4.19 8.92,-6.1 3.21,-2.02 6.97,-2.35 10.63,-2.9 0.87,-0.13 1.74,-0.31 2.62,-0.39 1.17,-0.11 2.35,-0.23 3.52,-0.18 0.4,0.02 1.02,0.46 1.11,0.82 0.1,0.38 -0.21,1.1 -0.55,1.3 -4.15,2.35 -7.11,6.01 -10.45,9.25 -3.32,3.21 -7.54,3.87 -11.92,3.97 -0.85,0.02 -1.71,0.21 -2.54,0.11 -1.89,-0.24 -3.8,-0.49 -5.64,-0.95 -0.89,-0.23 -1.69,-0.65 -2.37,-0.88l-0.02 -0.01 0 0 -0.02 -0.01 -0.01 0 -0.02 -0.01 0 0 -0.02 0 -0.03 -0.01 0 -0.01 -0.02 0 -0.01 0 -0.02 -0.01 0 0 -0.02 0 -0.02 -0.01 -0.01 0 -0.01 -0.01 -0.02 0 -0.02 0 0 -0.01 -0.01 0 0 0 -0.04 -0.01 0 0 -0.02 0 -0.02 -0.01 -0.01 0 -0.01 0 -0.02 0 -0.01 -0.01 0 0 -0.02 0 -0.03 -0.01 0 0 0 0 -0.02 0 -0.02 -0.01 -0.01 0 -0.01 0 -0.01 0 -0.02 0 -0.01 0 -0.01 -0.01 -0.02 0 -0.01 0 -0.01 0 -0.01 -0.01 -0.02 0 0 0 -0.01 0 -0.02 0 -0.02 0 0 0 -0.01 0 -0.02 0 -0.02 0 -0.03 0 0 -0.01 -0.02 0 -0.01 0 -0.02 0 0 0.01 -0.02 0 -0.01 0 -0.02 0 -0.03 0 0 0 -0.02 0 -0.01 0 -1 0.06 0.98 -0.06 -0.03 0.01 0 0 0 0 -0.78 0.04c-2.33,-2.2 -3.08,-4.31 -3.08,-4.31l0 0 0 0zm8.14 3.68c0.53,0.15 1.1,0.25 1.7,0.32l0 0 0 0 0.02 0.01 0.02 0 0.01 0 0.01 0 0.02 0.01 0 0 0.01 0 0.02 0 0.02 0 0 0 0.02 0 0.01 0.01 0 0 0.02 0 0.02 0.01 0 0 0.01 0 0.02 0 0.02 0 0 0 0.01 0 0.02 0.01 0 0 0.02 0 0.01 0.01 0.01 0 0.01 0 0.02 0 0.01 0 0 0 0.02 0 0.01 0 0.01 0 0.02 0.01 0.01 0 0.01 0 0.01 0 0.01 0 0.01 0 0.01 0 0.02 0 0.01 0.01 0.01 0 0.01 0 0.02 0 0 0 0.01 0.01 0.02 0 0.01 0 0.01 0 0.01 0 0.01 0 0.01 0 0.02 0 0.01 0 0 0 0.02 0 0.01 0 0.01 0 0.01 0.01 0.02 0 0 0 0.01 0 0.02 0 0.01 0 0 0 0.02 0 0.02 0 0 0 0.01 0 0.02 0 0.01 0 0 0 0.02 0 0.01 0 0.01 0 0.01 0 0.01 0 0.01 0 0.01 0 0.02 0 0 0 0.02 0 0.01 0 0.01 0 0.01 0 0.01 0 0.02 0 0 0 0.01 0 0.02 0 0.13 0 0.07 0 0 0c1.48,0.07 3.11,-0.01 4.79,-0.14l0.05 0 0.05 -0.01 0.03 0 0.02 0 0.05 0 0.05 0 0 0 0.05 0 0.08 -0.01 0.07 0 0.05 0 0.01 0 0.04 0 0.05 -0.01 0.04 0 0.01 0 0.1 -0.01 0.01 0 0.04 0 0.05 0 0.04 -0.01 0.13 0 0.13 -0.01 0 0 0.1 -0.01 0.02 0 0.03 0 0.05 0 0.05 -0.01 0.13 0 0.12 -0.01 0.01 0 0.04 -0.01 0.05 0 0.03 0 0.02 0 0.09 -0.01 0.02 0 0.03 0 0.1 -0.01 0 0 0.04 -0.01 0.21 -0.01 0.1 -0.01 0.03 0 0.02 0 0.05 -0.01 0.05 0 0.01 0 0.04 0 0.04 -0.01 0.04 0 0.01 0 0.06 -0.01 0.04 0 0.02 0 0.03 -0.01 0.05 0 0.05 -0.01 0 0 0.05 0 0.05 -0.01 0.03 0 0.02 0 0.05 0 0.05 -0.01 0.02 0 0.01 0 0 0 0.03 -0.01 0 0 0.01 0 0 0 0.02 0 0.01 0 0.02 0 0.01 0 0 0 0.02 0 0.01 0 0.01 -0.01 0.02 0 0 0 0.01 0 0.01 0 0.02 0 0.01 0 0.02 0 0 0 0.01 -0.01 0.02 0 0.01 0 0.01 0 0.01 -0.01 0.01 0 0.01 0 0.02 0 0.01 0 0.01 0 0.01 0 0.01 0 0.01 -0.01 0.01 0 0.02 0 0 0 0.02 0 0.01 0 0.02 0 0.01 -0.01 0.01 0 0 0 0.01 0 0.02 -0.01 0.02 0 0.01 0 0 0 0.02 0 0.01 0 0.01 -0.01 0.01 0 0.02 0 0 0 0.01 -0.01 0.02 0 0.02 0 0.01 0 0 0 0.01 0 0.01 -0.01 0.02 0 0.01 0 0.01 0 0.01 0 0.01 0 0.02 -0.01 0.01 0 0.01 0 0 0 0.02 -0.01 0.01 0 0.02 0 0.01 0 0 0 0.02 -0.01 0.01 0c3.86,-0.33 7,-3.77 8.37,-5.3l0 -0.01 0.01 0 0.01 -0.01 0 0 0.01 -0.01 0 -0.01 0.01 0 0 0 0.01 -0.01 0 -0.01 0.01 0 0 -0.01 0 0 0.01 -0.01 0.01 -0.01 0 0 0.01 -0.01 0 0 0.01 -0.01 0.01 -0.01 0 0 0.01 -0.01 0 -0.01 0.01 0 0 -0.01 0.01 0 0 -0.01 0.01 -0.01 0.01 0 0 -0.01 0.01 0 0 -0.01 0 -0.01 0.01 0 0 0 0.01 -0.01 0 0 0.01 -0.01 0 -0.01 0.01 0 0.01 -0.01 0 -0.01 0.01 0 0 -0.01 0.01 0 0 -0.01 0.01 -0.01 0 0 0.01 -0.01 0.01 0 0 -0.01 0.01 -0.01 0 0 0.01 -0.01 0 0 0.01 -0.01 0 -0.01 0.01 0 0 -0.01 0.01 -0.01 0 0 0.01 0 0 -0.01 0.01 0 0.01 -0.01 0 -0.01 0 0 0.01 -0.01c1.1,-1.2 4.54,-4.65 4.54,-4.65l0 0 -0.01 0 0 0 0 0 -0.05 0.01 -0.05 0 -0.01 0 -0.06 0.01 -0.04 0 -0.01 0 -0.05 0 -0.05 0.01 -0.01 0 -0.05 0 -0.11 0.01 -0.05 0.01 0 0 -0.05 0 -0.06 0.01 0 0 -0.06 0 -0.05 0.01 0 0 -0.05 0 -0.06 0.01 0 0 -0.05 0 -0.21 0.02 -0.06 0.01 -0.01 0 -0.04 0 -0.06 0.01 0 0 -0.05 0.01 -0.05 0 -0.05 0.01 -0.06 0 -0.01 0 -0.04 0.01 -0.05 0.01 -0.02 0 -0.04 0 -0.05 0.01 -0.06 0 -0.05 0.01 -0.01 0.01 -0.04 0 -0.05 0 -0.02 0.01 -0.04 0.01 -0.05 0 -0.02 0 -0.03 0.01 -0.05 0 -0.02 0 -0.04 0.01 -0.05 0.01 -0.02 0 -0.04 0 -0.04 0.02 -0.03 0 -0.03 0 -0.05 0.01 -0.03 0 -0.03 0 -0.05 0.01 -0.02 0.01 -0.03 0 -0.05 0.01 -0.03 0 -0.02 0 -0.06 0.01 -0.02 0.01 -0.03 0 -0.05 0.01 -0.03 0 -0.02 0 -0.06 0.01 -0.03 0.01 -0.02 0 -0.05 0.01 -0.03 0.01 -0.03 0 -0.04 0.01 -0.04 0 -0.02 0 -0.05 0.01 -0.03 0.01 -0.02 0 -0.06 0.01 0 0c-0.78,0.1 -1.3,0.2 -1.71,0.29l0 0 -0.03 0.01 -0.02 0 -0.03 0 -0.02 0.01 -0.01 0 -0.02 0.01 -0.03 0 -0.02 0 -0.03 0.01 0 0 -0.02 0 -0.03 0 -0.03 0.01 -0.02 0.01 -0.01 0 -0.02 0 -0.02 0 -0.04 0.01 -0.02 0 -0.01 0 -0.02 0.01 -0.02 0 -0.03 0.01 -0.03 0 0 0 -0.02 0.01 -0.03 0 -0.03 0.01 -0.02 0 0 0 -0.03 0.01 -0.02 0 -0.03 0 -0.03 0.01 0 0 -0.02 0.01 -0.03 0 -0.02 0 -0.03 0.01 0 0 -0.03 0 -0.02 0 -0.03 0.01 -0.02 0.01 -0.01 0 -0.02 0 -0.03 0 -0.05 0.01 0 0 -0.03 0.01 -0.02 0 -0.03 0.01 -0.02 0 0 0 -0.03 0.01 -0.03 0 -0.03 0.01 -0.02 0 0 0 -0.02 0.01 -0.04 0 -0.02 0 -0.03 0.01 0 0 -0.02 0.01 -0.03 0 -0.03 0 -0.02 0.01 0 0 -0.03 0 -0.02 0.01 -0.03 0 -0.03 0.01 0 0 -0.02 0 -0.03 0 -0.02 0.01 -0.03 0.01 -0.02 0 -0.01 0 -0.02 0 -0.02 0 -0.01 0.01 -0.02 0 -0.02 0 -0.01 0 0 0 -0.02 0.01 -0.02 0 -0.01 0.01 -0.02 0 -0.02 0 -0.01 0 -0.02 0.01 -0.01 0 -0.01 0 -0.01 0 -0.02 0 -0.02 0.01 -0.01 0 -0.02 0.01 -0.02 0 -0.01 0 0 0 -0.02 0 -0.02 0.01 -0.01 0 -0.02 0 -0.02 0 -0.01 0.01 -0.02 0.01 -0.01 0 -0.01 0 -0.01 0 -0.02 0 -0.02 0.01 -0.01 0 -0.02 0.01 -0.02 0 -0.01 0 -0.01 0 -0.01 0 -0.02 0.01 -0.01 0 -0.02 0 -0.02 0.01 -0.01 0 -0.02 0.01 -0.02 0 0 0 -0.01 0 -0.02 0 -0.02 0.01 -0.01 0 -0.02 0 -0.02 0.01 -0.01 0 -0.01 0.01 -0.01 0 -0.01 0 -0.02 0 -0.02 0.01 -0.01 0 -0.02 0 -0.02 0 -0.01 0.01 0 0 -0.02 0.01 -0.01 0 -0.02 0 0 0c-1.4,0.09 -3.08,0.92 -4.25,1.6l-0.02 0.01 -0.01 0.01 -0.02 0.02 -0.02 0 -0.01 0.01 -0.02 0 -0.01 0.02 -0.02 0.01 -0.02 0.01 -0.02 0.01 -0.02 0.01 0 0 -0.02 0.01 -0.02 0.02 -0.02 0.01 -0.02 0 -0.02 0.02 -0.01 0 -0.01 0.01 -0.02 0.01 -0.02 0.01 -0.02 0.02 -0.02 0.01 0 0 -0.02 0.01 -0.02 0.01 -0.02 0.01 -0.02 0.01 -0.02 0.02 -0.03 0.02 -0.02 0.01 -0.03 0.01 -0.02 0.02 -0.01 0.01 -0.03 0.01 -0.01 0.01 -0.02 0.01 -0.02 0.01 -0.02 0.02 -0.02 0.01 -0.01 0.01 -0.01 0 -0.02 0.01 -0.02 0.02 -0.02 0.01 -0.01 0.01 -0.02 0.01 -0.02 0.01 0 0.01 -0.02 0.01 -0.03 0.01 -0.01 0.01 -0.02 0.02 -0.06 0.03 -0.02 0.01 -0.02 0.02 -0.01 0.01 -0.04 0.03 -0.02 0.01 -0.03 0.02 -0.01 0.01 -0.02 0.01 0 0 -0.02 0.01 -0.02 0.02 -0.02 0.01 -0.02 0.01 0 0 0 0c-0.05,0.04 -0.1,0.08 -0.17,0.12l0 0.01 0 0 -0.01 0 -0.02 0.01 -0.01 0.01 0 0.01 -0.02 0.01 -0.01 0.01 0 0 -0.01 0 -0.01 0.01 -0.01 0.01 -0.01 0.01 -0.02 0 0 0.01 -0.01 0.01 -0.02 0.01 -0.01 0 0 0.02 0 0 -0.02 0 -0.01 0.01 -0.01 0.01 -0.01 0.01 -0.01 0 -0.01 0.01 -0.02 0.01 0 0.01 -0.02 0 0 0.01 -0.01 0 -0.01 0.01 -0.01 0.01 -0.01 0.01 -0.01 0.01 -0.01 0 -0.01 0.01 -0.01 0.01 -0.01 0.01 -0.02 0 0 0.01 0 0.01 -0.02 0 -0.01 0.01 -0.01 0.01 -0.01 0.01 -0.01 0 -0.01 0.01 -0.01 0.01 -0.01 0.01 -0.01 0 0 0.01 -0.01 0.01 -0.01 0 -0.01 0.01 -0.03 0.02 0 0.01 -0.02 0.01 -0.01 0.01 0 0 -0.01 0 -0.01 0.01 -0.01 0.01 -0.01 0.01 -0.01 0 -0.02 0.02 -0.01 0.02 -0.01 0 -0.01 0.01 -0.02 0.01 -0.13 0.11 -0.03 0.02 -0.08 0.06 -0.02 0.02 -0.13 0.11 -0.02 0 -0.08 0.07 -0.04 0.03 -0.05 0.03 -0.08 0.07 -0.01 0 -0.02 0.02 -0.11 0.09 -0.02 0.02 -0.09 0.06 -0.03 0.03 -0.27 0.19 -0.14 0.1 -0.13 0.1 -0.02 0.01 -0.08 0.06 -0.09 0.07 -0.08 0.06 -0.01 0 -0.14 0.1 -0.03 0.02 -0.08 0.05 -0.17 0.12 -0.14 0.1 -0.03 0.02 -0.09 0.05 -0.03 0.02 -0.15 0.1 -0.08 0.06 -0.05 0.03 -0.04 0.02 0 0.01 -0.24 0.15 -0.02 0.01 -0.09 0.06 -0.18 0.11 0 0 -0.08 0.06 0 0 -0.02 0.01 -0.07 0.04 -0.09 0.05 -0.02 0.02 -0.07 0.04 -0.01 0.01 0 0 -0.01 0 -0.01 0.01 0 0 -0.01 0 -0.01 0.01 -0.01 0.01 0 0 -0.01 0 -0.04 0.02 0 0.01 -0.01 0 -0.01 0 0 0.01 -0.01 0 0 0 -0.01 0.01 -0.01 0.01 -0.01 0 0 0 -0.01 0.01 -0.01 0 -0.06 0.04 -0.01 0 -0.03 0.02 -0.01 0.01 0 0 -0.01 0 -0.13 0.08 -0.01 0.01 -0.07 0.03 -0.02 0.02 -0.09 0.05 -0.05 0.03 -0.01 0 -0.01 0.01 0 0 -0.01 0.01 0 0 -0.01 0 -0.01 0.01 -0.01 0 -0.01 0.01 0 0 -0.01 0.01 -0.01 0 -0.01 0.01 -0.06 0.03 0 0 -0.01 0 -0.01 0.01 -0.03 0.02 0 0 -0.01 0.01 -0.01 0 0 0 -0.01 0.01 0 0 -0.04 0.02 -0.01 0 -0.01 0.01 -0.01 0 -0.09 0.05 -0.18 0.1 -0.09 0.05 -0.05 0.03 -0.04 0.02 -0.09 0.05 -0.17 0.09 -0.02 0.01 -0.09 0.05 -0.09 0.05c-0.95,0.43 -1.81,0.83 -2.55,1.18l-0.01 0.01 0 0 -0.02 0.01 -0.03 0.01 -0.02 0 -0.01 0.01 -0.02 0.01 -0.02 0.01 -0.03 0.01 -0.01 0 -0.01 0.01 -0.01 0 -0.02 0.01 -0.03 0.01 -0.02 0.01 -0.01 0 -0.02 0.01 -0.02 0.01 -0.01 0.01 -0.02 0 -0.01 0.01 -0.02 0.01 -0.02 0 -0.03 0.01 -0.02 0.01 -0.01 0.01 -0.02 0 -0.02 0.01 0 0.01 -0.03 0 -0.02 0.01 -0.01 0 -0.02 0.02 -0.03 0 -0.02 0.01 -0.01 0.01 -0.01 0 -0.01 0.01 -0.02 0 -0.03 0.01 -0.01 0.01 -0.02 0.01 -0.02 0 -0.03 0.01 -0.02 0.01 0 0 -0.01 0.01 -0.02 0.01 -0.03 0 -0.02 0.01 -0.01 0.01 -0.02 0.01 -0.03 0 -0.02 0.01 0 0 -0.01 0.01 -0.02 0.01 -0.03 0 -0.02 0.01 -0.02 0.01 -0.02 0.01 -0.02 0 -0.02 0.01 0 0 -0.02 0.01 -0.02 0.01 -0.02 0 -0.02 0.01 -0.02 0.01 -0.02 0.01 -0.02 0.01 -0.02 0c-0.38,0.14 -0.73,0.41 -1.47,0.85l-0.01 0.02z"/>
    <path class="fil1" d="M36.78 40.31c0.08,0.04 0.16,0.08 0.23,0.07 2.57,-0.52 4.51,0.6 6.13,2.43 1.95,2.2 3.56,5.97 2.94,8.84 -0.53,2.48 -1.87,4.76 -4.61,5.52 -2.58,0.72 -4.89,0.06 -6.66,-1.98 -1.68,-1.93 -3.77,-5.19 -3.09,-7.92 0.55,-2.23 0.53,-4.86 3.15,-6.15l-0.01 -0.06c0.51,-0.15 1.05,-0.32 1.28,-0.43 0.16,-0.09 0.4,-0.2 0.64,-0.32l0 0zm2.8 15.2l0 0 0.08 -0.01 0 0 0.08 -0.01 0 0 0.08 -0.02 0 0 0.08 -0.01 0 0 0.08 -0.01 0 0 0.08 -0.01 0 0 0.07 -0.02 0 0 0.08 -0.01 0 0 0.16 -0.02 0 0 0.07 -0.02 0 0 0.08 -0.02 0 0 0.07 -0.01 0 0 0.08 -0.02 0 0 0.07 -0.01 0 0 0.08 -0.02 0 0c0.07,-0.02 0.14,-0.03 0.21,-0.05l0.15 -0.04 0.13 -0.04 0 0 0.08 -0.03 0.07 -0.02 0 0 0.13 -0.05 0.07 -0.03 0 0 0.13 -0.05 0 0c0.04,-0.02 0.08,-0.04 0.13,-0.06l0 0 0.06 -0.04 0.07 -0.03 0.06 -0.03 0 0 0.06 -0.04 0 0 0.06 -0.03 0 0 0.06 -0.04 0 0 0.06 -0.05 0 0 0.06 -0.03 0.06 -0.05 0 0 0.06 -0.04 0 0 0.05 -0.05 0 0 0.06 -0.04 0 0 0.06 -0.05 0 0 0.05 -0.05 0 0 0.05 -0.06 0 0 0.06 -0.06 0.05 -0.05 0 0 0.05 -0.06 0 0 0.05 -0.05 0 0 0.05 -0.07 0 0 0.05 -0.06 0.05 -0.07 0 0 0.05 -0.07 0 0 0.04 -0.06 0 0 0.05 -0.07 0 0 0.04 -0.08 0 0 0.05 -0.07 0 0 0.04 -0.08 0 0 0.04 -0.08 0 0 0.05 -0.09 0 0 0.03 -0.08 0 0 0.09 -0.17 0 0 0.07 -0.17 0 0 0.07 -0.17 0 0 0.07 -0.17 0 0 0.07 -0.16 0 0 0.05 -0.17 0 0 0.06 -0.16 0 0 0.05 -0.16 0 0 0.05 -0.16 0 0 0.04 -0.16 0.04 -0.15 0.04 -0.16 0.03 -0.15 0.03 -0.16 0.02 -0.15 0 0 0.03 -0.15 0.02 -0.15 0.01 -0.15 0.01 -0.15 0.01 -0.14 0 0 0 -0.15 0 -0.14 0 -0.14 0 -0.01 -0.01 -0.13 0 0 -0.01 -0.15 0 0c-0.01,-0.09 -0.02,-0.19 -0.03,-0.27l-0.02 -0.14 -0.03 -0.14 -0.03 -0.13 0 0 -0.03 -0.14 0 0 -0.03 -0.13 0 0 -0.04 -0.13 0 0 -0.04 -0.13 0 0 -0.04 -0.13 0 0 -0.05 -0.14 -0.05 -0.12 0 0 -0.05 -0.13 0 0 -0.06 -0.13 -0.06 -0.13 0 0 -0.06 -0.11 0 -0.01 -0.07 -0.12 0 0 -0.06 -0.12 0 0 -0.08 -0.13 0 0 -0.07 -0.12 0 0 -0.08 -0.12 0 0 -0.08 -0.12 0 0 -0.09 -0.12 0 0 -0.08 -0.12 0 0 -0.09 -0.12 0 0 -0.09 -0.11 0 0 -0.1 -0.12 0 0 -0.1 -0.11 -0.1 -0.12 0 0 -0.1 -0.11 0 0 -0.1 -0.12 0 0 -0.11 -0.12 0 0 -0.11 -0.11 0 0 -0.12 -0.11 0 0c-0.12,-0.11 -0.74,-1.35 -0.87,-1.46l0 0c-0.08,-0.08 -0.17,-0.15 -0.25,-0.22 -0.15,-0.13 -0.31,-0.26 -0.49,-0.38l0 0 -0.1 -0.06 0 0c-0.12,-0.08 -0.23,-0.15 -0.36,-0.22l0 0c-0.07,-0.05 -0.14,-0.08 -0.22,-0.12l0 0 -0.05 -0.03 0 0c-0.08,-0.03 -0.15,-0.07 -0.22,-0.1l0 0c-0.06,-0.03 -0.11,-0.05 -0.17,-0.08l0 0 -0.11 -0.04 0 0 -0.06 -0.02 -0.05 -0.02 -0.06 -0.02 0 0 -0.05 -0.01 0 0 -0.05 -0.02 0 0 -0.06 -0.02 0 0 -0.11 -0.03 -0.05 -0.02 0 0 -0.06 -0.01 0 0 -0.05 -0.01 -0.05 -0.01 -0.11 -0.02 0 0 -0.05 -0.01 0 0 -0.05 0 0 0 -0.05 -0.01 -0.05 -0.01 -0.05 0 0 0 -0.05 0 -0.05 0 -0.05 0 -0.05 0 0 0 -0.05 0.01 -0.05 0.01 0 0 -0.04 0 -0.04 0.01 0 0 -0.05 0 0 0 -0.04 0.02 0 0 -0.04 0.01 0 0 -0.06 0.02 0 0 -0.06 0.02 0 0 -0.06 0.02 0 0 -0.05 0.01 0 0 -0.07 0.02 0 0 -0.05 0.02 0 0 -0.06 0.02 0 0 -0.06 0.02 -0.01 0 -0.05 0.02 0 0 -0.07 0.02 0 0 -0.05 0.01 0 0 -0.06 0.02 0 0 -0.07 0.03 0 0 -0.05 0.02 -0.01 0 -0.05 0.02 0 0 -0.07 0.02 0 0 -0.06 0.02 0 0 -0.05 0.02 0 0 -0.07 0.03 0 0 -0.06 0.02 0 0 -0.05 0.03 0 0 -0.07 0.02 0 0 -0.06 0.03 0 0 -0.06 0.02 0 0 -0.06 0.03 0 0 -0.06 0.03 0 0 -0.06 0.02 0 0 -0.06 0.04 0 0 -0.05 0.03 0 0 -0.07 0.02 0 0 -0.05 0.03 0 0 -0.06 0.03 0 0 -0.06 0.04 0 0 -0.06 0.03 0 0 -0.05 0.03 0 0 -0.06 0.04 0 0 -0.06 0.04 0 0 -0.06 0.04 0 0 -0.05 0.03 0 0 -0.06 0.04 0 0 -0.05 0.04 -0.05 0.04 0 0 -0.06 0.04 0 0 -0.05 0.04 -0.06 0.05 -0.05 0.04 0 0 -0.05 0.05c-0.56,0.53 -1.35,1.64 -1.45,2.68l0 0 -0.03 0.14 0 0 -0.02 0.15 0 0c-0.02,0.09 -0.03,0.19 -0.05,0.29l0 0c-0.01,0.1 -0.02,0.2 -0.03,0.3l0 0 -0.01 0.14 0 0c-0.01,0.2 -0.01,0.39 0,0.59l0 0 0.01 0.15 0 0c0,0.15 0.02,0.29 0.04,0.44l0 0c0.01,0.1 0.03,0.19 0.04,0.29l0 0 0.03 0.15 0 0c0.04,0.19 0.09,0.39 0.14,0.58l0 0c0.07,0.24 0.16,0.49 0.25,0.72l0.52 1.13 -0.46 -0.98 0.51 1.12c0.3,0.72 0.71,1.41 1.22,2.07l0 0c0.31,0.39 0.64,0.78 1.02,1.14 0.08,0.08 0.17,0.16 0.26,0.25l0 0 0.11 0.1 0 0 0.04 0.03 0 0 0.04 0.03 0 0 0.04 0.04 0 0 0.04 0.03 0.03 0.03 0 0 0.12 0.08 0.04 0.04 0 0 0.04 0.03 0 0 0.08 0.05 0.04 0.03 0 0 0.04 0.02 0 0 0.04 0.03 0 0 0.04 0.02 0.04 0.02 0 0 0.04 0.03 0.09 0.04 0.03 0.02 0.05 0.02 0 0 0.04 0.02 0.04 0.01 0.04 0.02 0 0 0.05 0.01 0.04 0.02 0.04 0.01 0.05 0.01 0.04 0.01 0 0 0.04 0.01 0.05 0.01 0.04 0 0 0 0.05 0.01 0.04 0.01 0.05 0 0.04 0 0.01 0 0.04 0 0 0 0.04 0 0 0 0.05 0 0 0 0.05 0 0 0 0.05 -0.01 0 0 0.04 -0.01 0.05 0 0 0 0.05 -0.01 0 0 0.05 -0.01 0 0 0.04 -0.01 0 0 0.05 -0.02 0 0 0.05 -0.01 0 0 0.05 -0.02 0 0 0.05 -0.02 0 0 0.06 -0.01 0 0 0.05 -0.03 0 0 0.13 -0.03 0 0z"/>
    <path class="fil1" d="M63.29 39.59c2.28,0.86 6.81,2.13 9,3.19 4.55,2.19 8.98,4.62 12.58,8.23 1.2,1.21 2.02,2.8 2.91,4.28 0.66,1.09 1.21,2.26 1.68,3.44 0.19,0.47 0.16,1.12 -0.03,1.59 -0.06,0.16 -0.93,0.19 -1.33,0.03 -2.8,-1.11 -5.76,-1.6 -8.7,-2.02 -5.05,-0.71 -8.91,-3.35 -12.11,-7.09 -1.16,-1.35 -2.05,-2.93 -3.1,-4.38 -1.46,-2.02 -2.96,-4.01 -4.43,-6.02 -0.48,-0.66 -0.91,-1.37 -1.25,-1.88l-2.15 -0.76c1.13,0.13 2.49,0.7 3.3,0.92 0.81,0.21 1.18,0.1 3.63,0.46l0 0.01zm-0.72 1.63l0.27 0.41 0 0 0.17 0.24 0 0 0.1 0.16 0 0 0.06 0.08 0 0 0.21 0.32 0 0 0.05 0.08 0 0 0.05 0.08 0 0 0.06 0.07 0 0 0.05 0.08 0 0 0.05 0.08 0.05 0.08 0 0 0.05 0.08 0 0 0.05 0.08 0 0 0.05 0.07 0 0 0.05 0.08 0 0 0.05 0.07 0.05 0.08 0 0 0.05 0.08 0.05 0.07 0.01 0 0.05 0.08 0.05 0.07 0.05 0.08 0.05 0.07 0.04 0.08 0.05 0.07 0.05 0.08 0.05 0.07 0.05 0.08 0 0 0.05 0.07 0.05 0.08 0.05 0.06 0.05 0.08 0.05 0.07 0 0 0.05 0.08 0.05 0.07 0.04 0.07 0.01 0 0.04 0.08 0 0 0.05 0.07 0 0 0.05 0.07 0 0 0.05 0.07 0 0 0.05 0.07 0 0 0.05 0.08 0 0 0.04 0.07 0.01 0 0.04 0.07 0.05 0.08 0 0 0.05 0.06 0 0 0.05 0.08 0 0 0.05 0.07 0 0 0.05 0.07 0 0 0.05 0.07 0 0 0.04 0.08 0.01 0 0.04 0.07 0 0 0.05 0.07 0 0 0.05 0.07 0 0 0.06 0.08 0 0 0.06 0.07 0 0 0.05 0.09 0 0 0.05 0.08 0 0 0.06 0.07 0 0 0.05 0.08 0 0 0.05 0.08 0 0 0.06 0.08 0 0 0.11 0.16 0 0 0.05 0.08 0 0 0.05 0.08 0 0 0.06 0.08 0 0 0.05 0.09 0 0 0.05 0.07 0 0 0.05 0.08 0 0 0.06 0.08 0 0 0.05 0.08 0 0 0.06 0.08 0 0 0.05 0.08 0 0 0.05 0.08 0 0 0.11 0.16 0 0 0.05 0.08 0 0 0.06 0.08 0 0 0.05 0.08 0 0 0.05 0.08 0 0 0.06 0.08 0 0 0.05 0.08 0 0 0.06 0.08 0 0 0.11 0.16 0 0 0.05 0.07 0 0 0.11 0.17 0 0 0.06 0.07 0 0 0.05 0.08 0 0 0.06 0.08 0 0 0.05 0.08 0 0 0.06 0.07 0 0 0.06 0.08 0.05 0.08 0 0 0.06 0.08 0.05 0.07 0 0 0.06 0.08 0 0 0.05 0.07 0.07 0.08 0 0 0.05 0.08 0.06 0.07 0.06 0.08 0.06 0.07 0.06 0.08 0.06 0.07 0.06 0.08 0.06 0.07 0 0 0.06 0.07 0 0 0.06 0.08 0.01 0 0.05 0.07 0 0 0.06 0.07 0.07 0.07 0.06 0.07 0 0 0.07 0.08 0 0 0.06 0.07 0 0 0.06 0.07 0 0 0.07 0.07 0 0 0.06 0.07 0 0 0.07 0.07 0 0 0.07 0.07 0.06 0.07 0.07 0.07 0 0 0.07 0.07 0.07 0.07 0 0 0.06 0.07 0 0 0.07 0.07 0 0 0.07 0.07 0 0 0.06 0.07 0 0 0.07 0.07 0.08 0.06 0.07 0.07 0.06 0.07 0.07 0.07 0 0 0.07 0.07 0.08 0.06 0 0 0.06 0.07 0.07 0.07 0.08 0.06 0.07 0.07 0.07 0.06 0.08 0.07 0.06 0.06 0.08 0.06 0.07 0.07 0.08 0.06 0 0 0.07 0.07 0.08 0.06 0.07 0.06 0.08 0.07 0 0 0.07 0.06 0.08 0.05 0.08 0.07 0 0 0.07 0.06 0.08 0.05 0 0 0.08 0.07 0 0 0.08 0.05 0.07 0.06 0 0 0.08 0.06 0 0 0.09 0.06 0 0 0.08 0.05 0 0 0.08 0.06 0 0 0.08 0.06 0.08 0.05 0 0 0.08 0.06 0.01 0 0.08 0.05 0.08 0.05 0 0 0.08 0.06 0 0 0.08 0.06 0 0 0.09 0.05 0 0 0.09 0.05 0 0 0.08 0.05 0.01 0 0.08 0.05 0 0 0.09 0.05 0 0 0.09 0.05 0 0 0.08 0.05 0 0 0.09 0.04 0 0 0.1 0.05 0 0 0.08 0.06 0 0 0.09 0.04 0 0 0.1 0.04 0 0 0.15 0.08 0 0 0.15 0.07 0 0 0.15 0.07 0 0 0.15 0.07 0 0 0.14 0.06 0.15 0.07 0.16 0.06 0 0 0.15 0.06 0.15 0.06 0 0 0.15 0.06 0.15 0.06 0.16 0.05 0.15 0.05 0.15 0.06 0.15 0.05 0.16 0.05 0 0 0.15 0.05 0.16 0.05 0 0 0.15 0.04 0.15 0.05 0.16 0.05 0.15 0.03 0 0 0.16 0.05 0.15 0.04 0 0 0.16 0.04 0 0 0.16 0.04 0.15 0.04 0.16 0.04 0.15 0.03 0 0 0.16 0.04 0 0 0.15 0.03 0 0 0.16 0.03 0 0 0.16 0.04 0 0 0.16 0.03 0 0 0.15 0.04 0 0 0.16 0.03 0.16 0.03 0 0 0.15 0.03 0 0 0.16 0.03 0 0 0.16 0.03 0 0 0.16 0.02 0 0 0.15 0.04 0 0 0.16 0.03 0 0 0.16 0.02 0 0 0.16 0.03 0 0 0.16 0.03 0 0 0.15 0.03 0 0 0.16 0.02 0 0 0.16 0.03 0 0 0.16 0.03 0 0 0.16 0.03 0 0 0.16 0.02 0 0 0.15 0.03 0 0 0.16 0.03 0 0 0.16 0.02 0 0 0.16 0.03 0 0 0.16 0.03 0 0 0.15 0.03 0 0 0.16 0.02 0 0 0.16 0.03 0 0 0.16 0.03 0 0 0.16 0.03 0 0 0.16 0.03 0 0 0.15 0.03 0 0 0.04 0 0 0 0.04 0.01 0 0 0.04 0.01 0 0 0.04 0.01 0 0 0.04 0 0 0 0.03 0.01 0 0 0.05 0.01 0 0 0.04 0.01 0 0 0.03 0 0 0 0.04 0.01 0 0 0.04 0.01 0 0 0.04 0 0 0 0.04 0.01 0 0 0.04 0.01 0 0 0.04 0.01 0 0 0.04 0 0 0 0.03 0.01 0 0 0.04 0.01 0.01 0 0.04 0.01 0 0 0.03 0 0 0 0.04 0.01 0.01 0 0.03 0.01 0 0 0.04 0 0 0 0.04 0.02 0 0 0.04 0 0 0 0.04 0.01 0 0 0.04 0 0 0 0.04 0.02 0 0 0.04 0 0 0 0.04 0.01 0 0 0.04 0 0 0 0.04 0.02 0.04 0 0 0 0.04 0.01 0 0 0.05 0.01 0 0 0.03 0.01 0.05 0 0 0 0.03 0.01 0.05 0.01 0.04 0.01 0 0 0.04 0 0.04 0.01 0 0 0.05 0.01 0.04 0.01 0 0 0.04 0.01 0.04 0.01 0 0 0.04 0 0.05 0.01 0.04 0.01 0.04 0.01 0.04 0 0.05 0.02 0.04 0 0.04 0.02 0.05 0 0.04 0.01 0 0 0.05 0.01 0.04 0.01 0 0 0.05 0 0.04 0.02 0.04 0 0 0 0.05 0.01 0.05 0.01 0 0 0.04 0.01 -0.03 -0.12 0 0 -0.04 -0.11 0 0 -0.04 -0.11 0 0 -0.03 -0.12 0 0 -0.04 -0.11 0 0 -0.04 -0.11 0 0 -0.04 -0.11 0 0 -0.04 -0.11 0 0 -0.04 -0.11 0 0 -0.03 -0.11 0 0 -0.05 -0.11 0 0 -0.03 -0.11 0 0 -0.05 -0.1 0 0 -0.04 -0.11 0 0 -0.04 -0.1 0 0 -0.04 -0.11 0 0 -0.05 -0.11 0 0 -0.04 -0.1 0 0 -0.04 -0.11 0 0 -0.05 -0.1 -0.05 -0.1 0 0 -0.05 -0.1 0 0 -0.04 -0.1 0 0 -0.05 -0.1 0 0 -0.04 -0.1 0 0 -0.05 -0.1 0 0 -0.05 -0.1 0 0 -0.05 -0.1 -0.06 -0.1 0 0 -0.05 -0.09 -0.05 -0.1 0 0 -0.05 -0.1 0 0 -0.06 -0.09 0 0 -0.05 -0.09 0 0 -0.06 -0.1 0 0 -0.05 -0.09 -0.06 -0.09 -0.06 -0.09 -0.06 -0.1 0 0 -0.06 -0.08 -0.06 -0.1 -0.06 -0.08 0 0 -0.06 -0.09 -0.06 -0.09 -0.01 0 -0.06 -0.08 0 0 -0.06 -0.09 0 0 -0.07 -0.08 0 0 -0.06 -0.09 0 0 -0.07 -0.08 0 0 -0.07 -0.08 0 0 -0.08 -0.08 -0.06 -0.08 -0.07 -0.08 0 0 -0.08 -0.09 0 0 -0.07 -0.08 -0.08 -0.07 0 0 -0.07 -0.08 0 0 -0.08 -0.08 0 0 -0.08 -0.07 0 0 -0.08 -0.08 -0.07 -0.07 0 0 -0.08 -0.08 0 0 -0.08 -0.07 0 0 -0.09 -0.07 0 0 -0.08 -0.07 0 0 -0.08 -0.06 0 0 -0.07 -0.07 0 0 -0.08 -0.06 0 0 -0.08 -0.07 0 0 -0.08 -0.06 0 0 -0.07 -0.07 0 0 -0.08 -0.06 0 0 -0.08 -0.07 0 0 -0.08 -0.07 0 0 -0.08 -0.06 0 0 -0.08 -0.06 0 0 -0.08 -0.06 0 0 -0.08 -0.06 0 0 -0.08 -0.07 0 0 -0.08 -0.07 0 0 -0.08 -0.06 0 0 -0.07 -0.06 0 0 -0.08 -0.06 0 0 -0.09 -0.07 0 0 -0.08 -0.06 0 0 -0.08 -0.06 0 0 -0.08 -0.06 0 0 -0.08 -0.07 0 0 -0.08 -0.06 0 0 -0.08 -0.06 0 0 -0.08 -0.06 0 0 -0.08 -0.06 0 0 -0.08 -0.06 0 0 -0.08 -0.06 0 0 -0.09 -0.07 0 0 -0.08 -0.05 0 0 -0.08 -0.06 0 0 -0.08 -0.07 0 0 -0.09 -0.06 -0.08 -0.06 0 0 -0.08 -0.06 -0.08 -0.06 0 0 -0.08 -0.06 -0.09 -0.06 -0.08 -0.05 -0.08 -0.07 0 0 -0.08 -0.05 -0.09 -0.06 0 0 -0.08 -0.07 0 0 -0.08 -0.05 0 0 -0.08 -0.06 -0.09 -0.06 -0.08 -0.06 -0.08 -0.06 -0.08 -0.06 -0.08 -0.06 -0.09 -0.06 -0.08 -0.05 -0.09 -0.06 -0.08 -0.06 0 0 -0.08 -0.06 -0.09 -0.06 -0.08 -0.05 0 0 -0.08 -0.07 0 0 -0.09 -0.05 0 0 -0.08 -0.06 0 0 -0.09 -0.05 0 -0.01 -0.08 -0.06 0 0 -0.21 -0.15 -0.23 -0.15 0 0 -0.22 -0.14 0 0 -0.21 -0.15 -0.23 -0.14 -0.22 -0.15 -0.22 -0.13 -0.23 -0.14 0 0 -0.22 -0.14 -0.23 -0.13 -0.23 -0.14 -0.22 -0.13 -0.23 -0.13 -0.23 -0.13 -0.23 -0.13 0 0 -0.23 -0.13 -0.23 -0.12 0 0 -0.23 -0.13 -0.23 -0.12 0 0 -0.23 -0.12 -0.24 -0.12 -0.24 -0.12 -0.23 -0.12 0 0 -0.23 -0.11 -0.24 -0.12 -0.24 -0.11 0 0 -0.24 -0.11 -0.24 -0.11 -0.24 -0.11 -0.24 -0.11 -0.24 -0.1 -0.24 -0.11 -0.25 -0.1 -0.24 -0.1 -0.24 -0.1 -0.25 -0.1 -0.24 -0.1 -0.25 -0.1 0 0 -0.25 -0.1 0 0 -0.25 -0.09 -0.25 -0.1 -0.25 -0.09 0 0 -0.25 -0.09 0 0 -0.25 -0.09 -0.26 -0.09 0 0 -0.25 -0.09 0 0 -0.26 -0.08 0 0 -0.25 -0.09 0 0 -0.26 -0.09 0 0 -0.25 -0.08 0 0 -0.26 -0.08 0 0 -0.26 -0.09 0 0 -0.26 -0.08 0 0 -0.26 -0.07 0 0 -0.26 -0.08 0 0 -0.26 -0.08 0 0 -0.26 -0.08 0 0 -0.27 -0.07 0 0 -0.26 -0.08 0 0 -0.27 -0.07 0 0 -0.27 -0.08 0 0 -0.27 -0.07 0 0 -0.26 -0.07 0 0 -0.27 -0.07 0 0 0 0z"/>
    <path class="fil1" d="M44.67 34.91c2.5,-1.04 3.46,-1.18 5.63,-2.99 0.81,-1.01 1.53,-4.01 2.14,-5.17 0.74,-1.4 1.46,-2.81 2.19,-4.21 0.12,-0.24 0.23,-0.51 0.38,-0.73 2.66,-3.71 5.15,-7.58 8.77,-10.49 0.11,-0.09 0.21,-0.19 0.32,-0.26 3.68,-2.38 7.36,-4.77 11.21,-7.25 0.75,0.24 0.74,1.05 0.64,1.92 -0.53,4.83 -1.76,9.46 -4.23,13.67 -1.21,2.06 -2.16,4.37 -4.27,5.74 -1.77,1.15 -3.55,2.52 -5.46,3.42 -3.59,1.7 -7.1,2.95 -10.85,4.68 -0.84,0.92 -2.77,1.88 -4.55,2.64 -0.33,-0.23 -0.19,-0.15 -1.92,-0.97zm7.77 -4.5l0.02 -0.01 0 0 0.03 -0.01 0 0 0.02 -0.01 0 0 0.03 -0.01 0 0 0.02 -0.01 0 0 0.03 -0.01 0 0 0.02 0 0 0 0.02 -0.02 0 0 0.02 0 0 0 0.03 -0.02 0 0 0.02 0 0 0 0.02 -0.01 0 0 0.03 0 0 0 0.02 -0.02 0 0 0.02 0 0 0 0.03 -0.01 0 0 0.01 0 0 0 0.03 -0.02 0 0 0.02 0 0 0 0.02 -0.01 0 0 0.02 0 0 0 0.02 -0.01 0 0 0.03 -0.01 0 0 0.01 -0.01 0 0 0.02 -0.01 0 0 0.02 0 0 0 0.03 -0.01 0.01 0 0.02 -0.01 0.02 -0.01 0.02 0 0.02 -0.01 0.02 -0.01 0 0 0.02 -0.01 0 0 0.01 0 0 0 0.02 -0.01 0 0 0.04 -0.01 0 0 0.02 -0.01 0.02 0 0.02 -0.01 0 0 0.01 -0.01 0.02 0 0.02 -0.01 0.01 -0.01 0 0 0.02 0 0 0 0.02 -0.01 0 0 0.03 -0.02 0 0 0.02 0 0 0 0.02 -0.01 0 0 0.02 0 0.01 -0.01 0.02 -0.01 0 0 0.02 0 0.01 -0.01 0 0 0.02 0 0 0 0.02 -0.01 0.01 -0.01 0.02 0 0 0 0.02 -0.01 0 -0.01 0.01 0 0 0 0.02 -0.01 0 0 0.01 0 0.01 0 0.11 -0.05 0 0 0.13 -0.06 0 0 0.12 -0.06 0 0 0.12 -0.05 0 0 0.13 -0.05 0 0c0.51,-0.23 1.45,-0.46 1.71,-0.58l0.12 -0.05 0 0 0.24 -0.11 0 0 0.13 -0.05 0.12 -0.06 0.12 -0.05 0 0 0.12 -0.06 0 0 0.12 -0.05 0.13 -0.06 0.12 -0.05 0.12 -0.05 0.13 -0.06 0.11 -0.06 0.13 -0.04 0 -0.01 0.12 -0.05 0 0 0.12 -0.06 0 0 0.12 -0.05 0.13 -0.05 0 0 0.12 -0.06 0.12 -0.05 0 0 0.13 -0.06 0.11 -0.05 0 0 0.13 -0.05 0 0 0.12 -0.06 0 0 0.25 -0.1 0 0 0.24 -0.11 0 0 0.12 -0.05 0 0 0.38 -0.15 0 0 0.24 -0.11 0.01 0 0.11 -0.05 0 0 0.38 -0.16 0 0 0.25 -0.1 0 0c0.2,-0.08 0.41,-0.16 0.61,-0.25 0.16,-0.05 0.3,-0.29 0.45,-0.36l0.01 0 0.1 -0.05 0 0 0.11 -0.05 0 0 0.12 -0.05 0 0 0.11 -0.05 0 0 0.1 -0.05 0 0 0.12 -0.05 0 0 0.1 -0.05 0 0 0.11 -0.05 0 0 0.11 -0.05 0 0 0.1 -0.05 0 0 0.11 -0.06 0 0 0.11 -0.05 0 0 0.11 -0.05 0 0 0.1 -0.06 0 0 0.1 -0.06 0 0 0.11 -0.05 0.1 -0.06 0 0 0.1 -0.06 0 0 0.11 -0.06 0 0 0.1 -0.06 0.11 -0.06 0 0 0.09 -0.06 0 0 0.1 -0.07 0 0 0.1 -0.06 0 0 0.1 -0.06 0.1 -0.06 0 0 0.1 -0.07 0.1 -0.06 0 0 0.09 -0.07 0.1 -0.07 0.1 -0.07 0.09 -0.07 0.1 -0.07 0.19 -0.14 0 0 0.08 -0.07 0.1 -0.07 0 0 0.09 -0.08 0 0 0.09 -0.07 0 0 0.09 -0.08 0.09 -0.07 0 0 0.09 -0.08 0 0 0.09 -0.08 0 0 0.09 -0.08 0.08 -0.08 0 0 0.08 -0.08 0.09 -0.08 0 0 0.09 -0.08 0 0 0.08 -0.09 0 0 0.08 -0.08 0 0 0.08 -0.09 0 0 0.08 -0.09 0.01 0 0.07 -0.08 0 0 0.08 -0.09 0 0 0.08 -0.09 0 0 0.08 -0.09 0 0 0.08 -0.09 0 0 0.07 -0.09 0 0 0.08 -0.1 0 0 0.07 -0.09 0 0 0.14 -0.17 0 0 0.14 -0.18 0 0 0.13 -0.18 0 0 0.13 -0.17 0 0 0.13 -0.18 0 0 0.13 -0.18 0 0 0.12 -0.18 0 0 0.13 -0.18 0 0 0.12 -0.18 0 0 0.13 -0.18 0 0 0.12 -0.19 0 0 0.11 -0.18 0 0 0.12 -0.19 0 0 0.12 -0.18 0 0 0.11 -0.18 0 0 0.12 -0.19 0 0 0.11 -0.19 0 0 0.11 -0.18 0 0 0.11 -0.19 0.11 -0.19 0 0 0.1 -0.19 0 0 0.11 -0.19 0 0 0.1 -0.2 0 0 0.1 -0.18 0 0 0.1 -0.2 0.1 -0.19 0 0 0.1 -0.19 0 0 0.09 -0.2 0 0 0.09 -0.2 0.1 -0.2 0 0 0.09 -0.19 0 0 0.09 -0.2 0 0 0.09 -0.2 0 0 0.08 -0.19 0.09 -0.21 0 0 0.08 -0.2 0 0 0.08 -0.2 0 0 0.09 -0.2 0 0 0.08 -0.19 0 -0.01 0.08 -0.2 0 0 0.07 -0.21 0 0 0.08 -0.2 0 0 0.07 -0.2 0 0 0.08 -0.21 0 0 0.07 -0.2 0 0 0.07 -0.21 0.07 -0.2 0 0 0.07 -0.21 0 0 0.07 -0.21 0 0 0.06 -0.21 0 0 0.07 -0.21 0 0 0.06 -0.21 0 0 0.06 -0.21 0 0 0.06 -0.21 0 0 0.06 -0.21 0 0 0.05 -0.21 0 0 0.06 -0.21 0 -0.01 0.06 -0.21 0 0 0.05 -0.21 0 0 0.05 -0.22 0 0 0.05 -0.21 0 0 0.05 -0.22 0 0 0.05 -0.21 0 0 0.05 -0.22 0 0 0.01 -0.03 0 0 0 -0.02 0 0 0 -0.03 0 0 0.01 -0.03 0 0 0.01 -0.02 0 0 0 -0.03 0 0 0 -0.03 0 0 0.01 -0.02 0 0 0 -0.03 0 0 0 -0.03 0 0 0.01 -0.02 0 0 0.01 -0.03 0 0 0 -0.03 0 0 0 -0.03 0 0 0 -0.03 0 0 0.01 -0.03 0 0 0 -0.02 0 0 0.01 -0.03 0 0 0 -0.03 0 0 0 -0.03 0 0 0 -0.03 0 0 0 -0.03 0 0 0.01 -0.03 0 0 0 -0.03 0 0 0 -0.02 0 0 0 -0.03 0 0 0 -0.03 0 0 0 -0.04 0 0 0.01 -0.02 0 -0.01 0 -0.02 0 0 0 -0.03 0 0 0 -0.03 0 0 0 -0.04 0 0 0 -0.03 0 0 0 -0.03 0 0 0.01 -0.03 0 0 0 -0.04 0 0 0 -0.03 0 0 0 -0.03 0 0 0 -0.03 0.01 0 0 -0.04 0 0 0 -0.03 0 0 0 -0.03 0 0 0 -0.04 0 0 0 -0.03 0 0 0 -0.03 0 0 0 -0.04 0 0 0 -0.03 0 0 0.01 -0.04 0 0 0 -0.03 0 0 0.01 -0.08 0 0c0,-0.14 0.01,-0.3 0.02,-0.46l0 0 0 0c-0.13,0.06 -0.25,0.11 -0.36,0.16l0 0 -0.11 0.05 0 0 -0.08 0.03 0 0 -0.06 0.02 0 0 -0.02 0.01 0 0 -0.05 0.02 0 0 -0.03 0.01 0 0 -0.02 0.01 0 0 -0.03 0.01 0 0 -0.02 0.01 0 0 -0.02 0.02 0 0 -0.03 0 0 0 -0.02 0.01 0 0 -0.03 0.01 0 0 -0.01 0.01 0 0 -0.03 0.01 0 0 -0.02 0.01 0 0 -0.02 0.01 0 0 -0.02 0.01 0 0 -0.03 0.01 0 0 -0.02 0.01 0 0 -0.02 0.01 0 0 -0.02 0.01 0 0 -0.04 0.02 0 0 -0.02 0 0 0 -0.04 0.03 0 0 -0.02 0 0 0 -0.08 0.04 0 0 -0.03 0.02 -0.01 0 -0.02 0.01 0 0 -0.02 0.01 0 0 -0.05 0.03 0 0c-0.04,0.02 -0.07,0.04 -0.11,0.07l-0.37 0.22 0 0 -0.19 0.11 0 0 -0.09 0.06 0 0 -0.1 0.06 0 0 -0.09 0.05 0 0 -0.19 0.12 0 0 -0.09 0.06 0 0 -0.09 0.05 0 0 -0.1 0.06 0 0 -0.18 0.11 0 0 -0.1 0.06 0 0 -0.09 0.05 0 0 -0.1 0.06 0 0 -0.09 0.05 0 0 -0.1 0.06 0 0 -0.09 0.06 0 0 -0.09 0.05 -0.1 0.06 -0.09 0.05 0 0 -0.09 0.06 0 0 -0.1 0.06 0 0 -0.09 0.05 0 0 -0.09 0.06 -0.1 0.05 -0.09 0.06 -0.09 0.06 0 0 -0.1 0.06 0 0 -0.09 0.05 0 0 -0.09 0.06 -0.1 0.06 0 0 -0.09 0.06 -0.09 0.06 -0.09 0.05 -0.09 0.06 0 0 -0.1 0.06 0 0 -0.18 0.11 0 0 -0.09 0.06 0 0 -0.37 0.24 0 0 -0.08 0.06 -0.01 0 -0.09 0.06 0 0 -0.09 0.06 0 0 -0.09 0.06 0 0 -0.09 0.07 0 0 -0.09 0.05 0 0 -0.09 0.07 0 0 -0.09 0.06 0 0 -0.09 0.06 0 0 -0.09 0.06 0 0 -0.09 0.07 0 0 -0.08 0.06 0 0 -0.1 0.06 0 0 -0.08 0.07 0 0 -0.09 0.06 0 0 -0.09 0.06 0 0 -0.07 0.06 0 0 -0.08 0.06 0 0 -0.08 0.06 0 0 -0.07 0.05 0 0 -0.08 0.06 0 0 -0.08 0.06 0 0 -0.07 0.06 0 0 -0.08 0.05 -0.08 0.07 0 0 -0.07 0.05 0 0 -0.08 0.07 0 0 -0.07 0.06 0 0 -0.15 0.12 0 0 -0.08 0.06 -0.3 0.24 0 0 -0.07 0.06 0 0c-0.15,0.12 -0.29,0.25 -0.44,0.38l0 0 -0.07 0.06 0 0 -0.08 0.06 0 0 -0.07 0.07 -0.07 0.06 0 0 -0.07 0.07 0 0 -0.07 0.06 0 0 -0.08 0.06 -0.07 0.07 -0.07 0.06 0 0 -0.07 0.07 0 0 -0.07 0.06 -0.07 0.07 -0.08 0.06 -0.06 0.07 0 0 -0.07 0.06 0 0 -0.08 0.07 0 0 -0.07 0.07 0 0 -0.06 0.06 -0.07 0.07 0 0 -0.08 0.06 0 0 -0.07 0.07 0 0 -0.06 0.07 0 0 -0.07 0.07 0 0 -0.07 0.06 0 0 -0.07 0.07 0 0 -0.07 0.07 0 0c-0.27,0.27 -0.55,0.54 -0.81,0.82 -0.68,0.71 -1.31,1.44 -1.9,2.2l0 0 -0.16 0.21 -0.16 0.21 -0.16 0.21 0 0 -0.16 0.21 -0.15 0.22 0 0 -0.15 0.21 -0.15 0.22 -0.15 0.21 0 0 -0.15 0.22 -0.15 0.22 0 0 -0.14 0.22 -0.14 0.22 -0.15 0.22 0 0 -0.14 0.22 -0.14 0.23 -0.14 0.22 0 0 -0.14 0.23 0 0 -0.14 0.22 0 0 -0.14 0.23 -0.13 0.23 0 0 -0.27 0.45 -0.27 0.46 -0.13 0.23 0 0 -0.26 0.46 0 0 -0.27 0.47 0.01 0 -0.13 0.24 0 0 -0.26 0.47 0 0 -0.39 0.7 -0.01 0 -0.25 0.47 0 0 -0.13 0.24 0 0 -0.13 0.24 0 0 -0.13 0.23 0 0 -0.13 0.24 0 0 -0.13 0.24 0 0 -0.13 0.23 0 0 -0.13 0.24 0 0 -0.13 0.24 0 0 -0.13 0.23 0 0 -0.14 0.25 0 0 -0.13 0.23 0 0 -0.13 0.24 0 0 -0.14 0.24 0 0 -0.13 0.23 0 0 -0.13 0.24 0 0.01 -0.14 0.23 0 0 0 0 0.01 0z"/>
    <path class="fil1" d="M105.29 35.3l-0.23 0.01 0 0c0.06,-0.01 0.14,-0.02 0.23,-0.01zm-3.16 3.27c0.85,-1.78 3.88,-1.55 5.38,-1.03 3.25,1.14 3.79,0.54 5.91,4.45 1.51,2.79 3.08,5.2 1.79,8.5 -1,2.57 -3.62,4.12 -6.23,3.2 -2.21,-0.78 -4.58,-1.95 -5.93,-3.98 -0.11,-0.16 -0.16,-0.37 -0.29,-0.5 -2.86,-2.8 -3.71,-5.59 -1.9,-9.43 -2.3,-1.27 -4.4,-1.96 -6.59,-3.43 -0.23,-0.16 -1.36,-0.74 -1.61,-0.86 0.58,0 1.1,-0.47 1.86,-0.74 0.59,-0.21 0.92,0.34 2.4,1.16 1.88,1.04 4.54,2.24 5.21,2.66l0 0zm5.9 1.02c-0.04,-0.13 -1.1,-0.15 -1.49,-0.16l0 0 -0.12 -0.01 0 0 -0.11 0 0 0 -0.22 0.01 0 0 0 0 -0.11 0.01 0 0 -0.12 0 0 0 -0.1 0.01 0 0c-0.99,0.09 -0.7,0.22 -1.48,0.53l0 0 -0.09 0.04 0 0 -0.09 0.03 0 0 -0.09 0.05 0 0 -0.09 0.04 0 0 -0.08 0.04 0 0 -0.08 0.05 0 0 -0.09 0.05 0 0c-0.05,0.03 -0.11,0.07 -0.16,0.1l0 0 -0.08 0.06 0 0 -0.08 0.06 0 0 -0.08 0.06 0 0c-0.42,0.31 -0.8,0.71 -1.14,1.21 -0.06,0.08 -0.12,0.17 -0.17,0.27l0 0c-0.99,1.88 0.18,3.39 1.56,5 0.44,0.53 0.66,0.76 1.08,1.21l0.06 0.06 0 0c0.58,0.61 0.41,0.8 0.96,1.34l0 0 0.06 0.06 0 0 0.07 0.06 0 0 0.06 0.05 0 0 0.06 0.07 0 0 0.06 0.05 0 0 0.07 0.06 0.06 0.06 0 0 0.07 0.06 0 0 0.06 0.05 0.06 0.06 0 0 0.06 0.05 0 0 0.07 0.06 0 0 0.06 0.06 0.07 0.05 0 0 0.07 0.06 0.06 0.05 0.06 0.06 0 0 0.07 0.06 0.06 0.05 0 0 0.07 0.06 0.06 0.05 0.07 0.05 0 0c0.64,0.53 0.57,0.3 1.09,0.61l0 0 0.06 0.05 0.01 0 0.06 0.04 0.07 0.03 0 0 0.06 0.03 0 0 0.07 0.04 0 0 0.07 0.03 0 0 0.06 0.03 0.07 0.03 0 0 0.07 0.04 0 0 0.13 0.06 0 0 0.07 0.02 0 0 0.08 0.03 0 0 0.06 0.02 0 0c0.53,0.19 1.86,0.04 2.5,-0.19l0 0 0.08 -0.03 0.01 0 0.07 -0.03 0 0 0.07 -0.03 0 0 0.08 -0.04 0.01 0 0.07 -0.04 0 0 0.06 -0.03 0 0 0.06 -0.04 0 0 0.06 -0.03 0 0 0.05 -0.04 0 0 0.06 -0.04 0 0 0.05 -0.05 0 0 0.06 -0.05 0 0 0.06 -0.05 0 0 0.05 -0.05 0 0 0.06 -0.05 0 0 0.05 -0.06 0 0 0.06 -0.06 0 0 0.06 -0.06 0 0 0.05 -0.06 0 0 0.05 -0.07 0 0 0.05 -0.06 0 0 0.05 -0.07 0 0 0.05 -0.08 0 0 0.05 -0.06 0 0 0.05 -0.08 0 0 0.05 -0.07 0.05 -0.09 0 0 0.04 -0.07 0 0 0.05 -0.08 0 0 0.05 -0.08 0 0 0.04 -0.08 0 0 0.04 -0.08 0 0 0.04 -0.09 0 0 0.04 -0.08 0 0 0.04 -0.09 0 0 0.04 -0.09 0 0 0.04 -0.08 0.03 -0.09 0 0 0.04 -0.09 0 0 0.03 -0.09 0.03 -0.09 0 0 0.03 -0.09 0.03 -0.09 0.03 -0.09 0.03 -0.09 0.02 -0.09 0.02 -0.09 0.02 -0.09 0.02 -0.09 0.02 -0.09 0.02 -0.09 0.01 -0.09 0 0 0.01 -0.09 0.02 -0.08 0 -0.09 0 0 0.01 -0.09 0 -0.08 0 0 0.01 -0.09 0 0 0 -0.09 0 0 0 -0.08 0 0 -0.01 -0.08 0 0 0 -0.08 0 0 -0.01 -0.08 0 0 -0.01 -0.08 0 0 -0.01 -0.08 0 0 -0.01 -0.08 0 0 -0.02 -0.07 0 0 -0.02 -0.07 0 0 -0.02 -0.08 0 0 -0.03 -0.09 0 0 -0.03 -0.08 0 0 -0.02 -0.08 0 -0.01 -0.03 -0.08 0 0 -0.03 -0.09 0 0 -0.03 -0.09 0 0 -0.03 -0.08 0 0 -0.02 -0.09 0 0 -0.04 -0.08 0 -0.01 -0.03 -0.08 0 0 -0.03 -0.08 0 0 -0.02 -0.09 0 0 -0.03 -0.09 0 0 -0.03 -0.08 0 0 -0.04 -0.09 0 0 -0.03 -0.08 0 0 -0.03 -0.09 0 0 -0.03 -0.08 0 0 -0.04 -0.09 0 0 -0.03 -0.09 0 0 -0.03 -0.08 0 0c-0.54,-1.36 -1.6,-3.18 -2.92,-4.28 -0.9,-0.76 -2.27,-0.99 -2.3,-1.11l0 0z"/>
    <path class="fil1" d="M71.79 39.16c1.15,-0.66 2.96,-2.66 3.53,-3.36 0.58,-0.73 2.37,-3.94 1.9,-4.89 -1.72,-3.39 -1.02,-6.61 0.56,-9.76 0.64,-1.27 1.4,-2.49 2.23,-3.64 0.49,-0.69 1.11,-1.48 1.85,-1.75 1.89,-0.7 3.87,-1.54 5.83,-1.6 3.55,-0.1 5.24,3.05 5.57,6.2 0.36,3.37 -1.15,6.17 -3.5,8.46 -2.54,2.48 -5.5,4.22 -9.22,4.23 -0.49,0.01 -1.17,0.16 -1.45,0.5 -1.05,1.23 -1.97,2.56 -3.25,4.27 -1.59,0.23 -2.83,1.3 -4.05,1.34l0 0zm6.37 -11.33l-0.01 -0.06 0.01 0.06 0 0 0.01 0.04 0 0 0 0.01 0 0 0 0.02 0 0 0.01 0.01 0 0 0 0.02 0 0 0.01 0.02 0 0 0 0.01 0 0 0 0.02 0 0 0 0.02 0.01 0 0 0.02 0 0 0 0.02 0 0 0 0.02 0 0 0.01 0.02 0 0 0.01 0.03 0 0 0 0.02 0 0 0 0.02 0 0 0.01 0.03 0 0 0 0.02 0 0 0.01 0.02 0 0 0 0.02 0 0 0.01 0.03 0 0 0 0.02 0 0.01 0 0.03 0 0 0.01 0.02 0 0 0 0.03 0 0 0.01 0.02 0 0 0.01 0.03 0 0 0 0.03 0 0 0 0.03 0 0 0.01 0.02 0.01 0 0 0.06 0 0 0.01 0.03 0 0 0 0.03 0 0 0.01 0.03 0 0 0.01 0.03 0 0 0 0.03 0 0 0.01 0.06 0 0 0.04 0.16 0 0c0.03,0.12 0.06,0.25 0.09,0.38l0.03 0.12 0.01 0c0,0.04 0.01,0.08 0.03,0.12l0 0 0.02 0.05 0 0 0.02 0.06 0 0 0.02 0.05 0 0 0.02 0.06 0 0 0.03 0.05 0 0 0.02 0.05 0 0 0.03 0.05 0 0 0.02 0.04 0 0 0.03 0.05 0 0 0.03 0.04 0 0 0.03 0.05 0 0 0.24 0.21 0 0 0.03 0.04 0 0 0.03 0.04 0 0 0.03 0.04 0 0 0.03 0.04 0.04 0.03 0 0 0.07 0.07 0.03 0.04 0 0 0.04 0.03 0.04 0.03 0 0 0.04 0.03 0 0 0.03 0.03 0 0 0.05 0.03 0 0 0.03 0.02 0 0 0.09 0.05 0 0 0.04 0.03 0.04 0.02 0 0 0.05 0.02 0.04 0.02 0.04 0.02 0.05 0.02 0.05 0.02 0 0 0.04 0.01 0.04 0.02 0.01 0 0.04 0.01 0 0 0.05 0.01 0.05 0.01 0 0 0.05 0.02 0 0 0.05 0.01 0 0 0.28 0.02 0 0 0.05 0 0 0 0.05 0.02 0 0 0.05 0 0 0 0.05 0 0 0.01 0.05 0 0 0 0.05 0.01 0 0 0.05 0 0 0c0.16,0 0.32,0 0.48,-0.02l0.06 0 0 0 0.22 -0.03 0 0 0.24 -0.05 0 0 0.22 -0.04 0 0 0.23 -0.05 0 0 0.23 -0.05 0 0 0.22 -0.06 0 0 0.23 -0.06 0 0 0.23 -0.07 0.26 -0.11 0.22 -0.08 0.24 -0.09 0.22 -0.09 0 0 0.22 -0.1 0.23 -0.1 0.21 -0.11 0.25 -0.12 0.22 -0.11 0 0 0.22 -0.13 0 0 0.22 -0.12 0.21 -0.13 0.21 -0.14 0 0 0.21 -0.14 0 0 0.21 -0.15 0 0 0.18 -0.15 0.22 -0.21 0 0 0.2 -0.15 0.2 -0.17 0 0 0.19 -0.17 0.2 -0.16 0 -0.01 0.18 -0.17 0.18 -0.18 0 0 0.22 -0.18 0.17 -0.19 0 0 0.18 -0.18c0.05,-0.07 0.11,-0.13 0.17,-0.2l0.16 -0.2 0.15 -0.2 0.16 -0.19 0 0 0.15 -0.21 0 0 0.12 -0.23 0.14 -0.2 0 -0.01 0.13 -0.21 0.13 -0.22 0.13 -0.21 0.11 -0.23 0 0 0.12 -0.23 0 0c0.06,-0.15 0.13,-0.3 0.2,-0.45l0 0 0.09 -0.24 0 0 0.08 -0.27 0.08 -0.23 0 0c0.05,-0.17 0.1,-0.33 0.14,-0.49l0 0c0.02,-0.08 0.04,-0.16 0.06,-0.24l0 0c0.04,-0.17 0.07,-0.33 0.1,-0.5l0 0c0.11,-0.66 0.17,-1.37 0.11,-2.07l-0.01 -0.11 0 0c-0.01,-0.09 -0.02,-0.17 -0.03,-0.24l0 0 -0.03 -0.11 0 -0.01 -0.08 -0.16 0 0 -0.03 -0.11 0 0 -0.02 -0.11 -0.01 0 -0.03 -0.11 0 0 -0.03 -0.11 0 0 -0.04 -0.1 0 0 -0.04 -0.11 -0.04 -0.1 0 0 -0.04 -0.1 0 0 -0.08 -0.1 -0.05 -0.1 -0.05 -0.1 -0.05 -0.09 -0.05 -0.09 -0.06 -0.1 -0.06 -0.09 0 0 -0.07 -0.08 -0.06 -0.09 -0.07 -0.08 0 0 -0.06 -0.08 -0.07 -0.08 -0.09 -0.09 -0.07 -0.07 -0.08 -0.08 0 0 -0.07 -0.07 -0.01 0 -0.08 -0.07 0 0 -0.08 -0.06 -0.08 -0.07 0 0 -0.08 -0.05 -0.09 -0.07 0 0 -0.09 -0.05 0 0 -0.08 -0.06 0 0 -0.1 -0.05 -0.09 -0.07 -0.09 -0.04 0 0c-0.07,-0.03 -0.13,-0.06 -0.19,-0.09l0 0 -0.1 -0.03 0 0 -0.09 -0.04 0 0 -0.11 -0.03 0 0 -0.1 -0.03 0 0 -0.1 -0.03 0 0 -0.1 -0.03 0 0 -0.1 -0.02 -0.01 0 -0.1 -0.02 0 0 -0.11 -0.02 0 0 -0.11 -0.01 0 0 -0.1 -0.01 0 0 -0.11 -0.01 0 0 -0.11 0 0 0 -0.18 -0.03 -0.11 0 0 0 -0.11 0 0 0 -0.12 0.01 0 0 -0.11 0.01 0 0 -0.11 0.01 0 0c-0.08,0.02 -0.16,0.03 -0.23,0.04l0 0c-0.08,0.02 -0.19,0.04 -0.27,0.07 -0.14,0.03 -0.28,0.07 -0.43,0.12l0 0c-0.2,0.06 -0.41,0.13 -0.62,0.21l0 0.01 -0.2 0.08 -0.01 0 -0.19 0.08 0 0 -0.2 0.1 0 0c-0.14,0.06 -0.27,0.13 -0.4,0.2l0 0 -0.28 0.1 0 0 -0.19 0.12 0 0 -0.19 0.11 -0.19 0.13 -0.18 0.12 0 0 -0.18 0.13 0 0 -0.18 0.13 0 0 -0.18 0.15 -0.17 0.13 -0.17 0.15 -0.17 0.15 -0.15 0.2 -0.17 0.15 -0.16 0.16 0 0 -0.15 0.17 0 0 -0.16 0.17 -0.15 0.17 -0.15 0.18 -0.14 0.18 0 0 -0.14 0.18 0 0 -0.13 0.19 0 0 -0.16 0.22 0 0.01 -0.13 0.19 0 0 -0.12 0.2 0 0 -0.13 0.19 0 0 -0.12 0.2 0 0 -0.12 0.2 0 0 -0.1 0.21 0 0 -0.11 0.21 0 0 -0.1 0.21 0 0 -0.1 0.22 -0.1 0.21 -0.05 0.21 0 0 -0.08 0.22 0 0 -0.08 0.22c-0.05,0.14 -0.1,0.29 -0.15,0.45l0 0 -0.07 0.22 0 0 -0.06 0.23 0 0c-0.3,1.16 -0.68,2.42 -0.58,3.65l0.01 0.07 0 0z"/>
    <path class="fil1" d="M98.15 32.58c0.99,-0.7 1.97,-1.41 2.95,-2.12 1.3,-0.94 1.88,-2.46 2.56,-3.97 1.02,-2.24 1.73,-4.53 2.32,-6.89 0.23,-0.91 0.36,-1.87 0.64,-2.77 1.34,-4.39 4.17,-7.78 7.63,-10.59 2.51,-2.03 5.36,-3.65 8.09,-5.42 1.07,-0.69 1.7,-0.24 1.85,1.11 0.72,6.83 -1.7,12.41 -6.61,17.05 -0.23,0.22 -0.4,0.49 -0.74,0.89 1.84,-0.04 3.51,-0.02 5.17,-0.12 2.21,-0.12 4.31,0.18 6.35,1.12 1.56,0.73 3.23,1.22 4.81,1.92 0.52,0.23 0.89,0.8 1.33,1.21 -0.37,0.37 -0.67,0.87 -1.11,1.09 -2.85,1.45 -5.66,3.04 -8.63,4.17 -2.37,0.91 -4.92,1.04 -7.54,0.73 -3.41,-0.4 -6.04,-1.63 -9.55,-1.33 -1.36,0.12 -3.05,0.66 -4.06,1.55 -1.11,0.97 -2.04,1.61 -2.98,2.23 -0.73,0.49 -2.79,1.75 -2.76,1.61l0.28 -1.47 0 0zm24.18 -29.29c-0.14,0.05 -0.27,0.1 -0.4,0.14 -0.13,0.05 -0.26,0.1 -0.39,0.15l0 0c-0.14,0.06 -0.27,0.11 -0.4,0.17l0 0c-0.13,0.05 -0.25,0.11 -0.38,0.17l0 0c-0.13,0.06 -0.26,0.12 -0.39,0.18l0 0c-0.13,0.06 -0.26,0.13 -0.38,0.19l0 0c-0.13,0.07 -0.26,0.14 -0.39,0.2l0 0c-0.12,0.07 -0.25,0.14 -0.38,0.21l0 0.01c-0.12,0.06 -0.25,0.13 -0.37,0.21l0 0c-0.13,0.07 -0.25,0.15 -0.37,0.23l0 0c-0.13,0.07 -0.25,0.15 -0.38,0.23l0 0c-0.12,0.08 -0.24,0.16 -0.37,0.24l0 0c-0.11,0.08 -0.24,0.17 -0.36,0.25l0 0c-0.11,0.09 -0.24,0.17 -0.36,0.26l0 0c-0.12,0.08 -0.23,0.18 -0.35,0.26l0 0c-0.12,0.09 -0.24,0.19 -0.35,0.28 -0.12,0.09 -0.24,0.18 -0.35,0.27l0 0c-0.12,0.1 -0.23,0.2 -0.35,0.29 -0.11,0.1 -0.22,0.19 -0.33,0.29 -0.12,0.1 -0.23,0.2 -0.34,0.3 -0.1,0.1 -0.22,0.2 -0.33,0.31 -0.1,0.1 -0.22,0.2 -0.32,0.31 -0.11,0.1 -0.21,0.2 -0.32,0.31 -0.11,0.11 -0.21,0.22 -0.32,0.32l0 0c-0.1,0.11 -0.2,0.22 -0.3,0.33l0 0c-0.11,0.11 -0.21,0.22 -0.31,0.33 -0.1,0.11 -0.2,0.22 -0.3,0.33l0 0c-0.09,0.12 -0.19,0.23 -0.29,0.35 -0.09,0.11 -0.19,0.23 -0.28,0.35 -0.19,0.23 -0.38,0.46 -0.56,0.69l0 0c-0.09,0.12 -0.18,0.24 -0.27,0.36 -0.08,0.12 -0.17,0.24 -0.26,0.37 -0.08,0.12 -0.16,0.23 -0.25,0.36 -0.16,0.24 -0.33,0.48 -0.49,0.73l0 0c-0.15,0.25 -0.31,0.5 -0.46,0.75l0 0c-0.07,0.12 -0.14,0.25 -0.21,0.38l0 0c-0.07,0.13 -0.14,0.25 -0.21,0.38l0 0c-0.07,0.13 -0.14,0.25 -0.21,0.38 -0.33,0.64 -0.62,1.28 -0.89,1.93l0 0c-0.05,0.12 -0.1,0.25 -0.15,0.38l0 0c-0.14,0.39 -0.28,0.78 -0.4,1.16l0 0c-0.04,0.13 -0.08,0.26 -0.12,0.39l0 0c-0.18,0.65 -0.33,1.29 -0.43,1.93l0 0c-0.15,0.59 -1.2,2.93 -1.13,3.9l0.97 -0.92 0 0 0.08 -0.03 -0.01 0 0.19 -0.11 0 0 0.04 -0.02 0 0 0.19 -0.09 0 -0.01 0.03 -0.02 0 0 0.08 -0.03 0 0 0.04 -0.02 0 0 0.15 -0.08 0 0 0.04 -0.02 -0.01 0 0.04 -0.02 0 0 0.04 -0.02 0 0 0.04 -0.02 0 0 0.11 -0.05 0 0 0.04 -0.02 0 -0.01 0.03 -0.02 0 0 0.04 -0.02 0 0 0.04 -0.01 0 0 0.03 -0.02 0 0 0.08 -0.04 0 0 0.04 -0.02 0 0 0.07 -0.04 0.04 -0.01 0.18 -0.1 0 0 0.04 -0.02 0 0 0.07 -0.04 0 0 0.04 -0.02 0 0 0.03 -0.02 0.01 0 0.03 -0.02 0 0 0.03 -0.02 0.04 -0.02 0 0 0.04 -0.02 0.04 -0.02 0 0 0.03 -0.02 0 0 0.04 -0.02 0 0 0.03 -0.02 0 0 0.04 -0.02 0 0 0.04 -0.02 0 0 0.03 -0.02 0 0 0.04 -0.01 0 0 0.04 -0.02 0 0 0.03 -0.02 0 -0.01 0.04 -0.02 0 0 0.07 -0.03 0 0 0.06 -0.03 0 0 0.07 -0.04 0 0 0.07 -0.04 0 0 0.07 -0.04 0 0 0.07 -0.03 0 0 0.07 -0.03 0 0 0.07 -0.04 0 0 0.07 -0.03 0 0 0.07 -0.04 0 0 0.07 -0.04 0 0 0.07 -0.03 0 0 0.07 -0.03 0 -0.01 0.07 -0.03 0 0 0.07 -0.03 0 0 0.07 -0.04 0 0 0.08 -0.03 0 0 0.06 -0.03 0.07 -0.04 0 0 0.08 -0.03 0 0 0.07 -0.03 0.06 -0.04 0 0 0.08 -0.03 0 0 0.07 -0.04 0.07 -0.03 0 0 0.07 -0.04 0 0 0.07 -0.03 0 0 0.07 -0.04 0 0 0.07 -0.03 0 0 0.07 -0.04 0 0 0.07 -0.03 0.07 -0.03 0.07 -0.04 0.06 -0.03 0.08 -0.04 0.07 -0.04 0.07 -0.04 0 0 0.07 -0.03 0 0 0.06 -0.04 0.07 -0.04 0.06 -0.03 0 0 0.07 -0.04 0 0 0.07 -0.04 0.06 -0.04 0.07 -0.03 0.07 -0.05 0.06 -0.04 0.07 -0.04 0.06 -0.04 0.07 -0.04 0 0 0.06 -0.04 0.06 -0.05 0.07 -0.04 0 0 0.05 -0.04 0.01 0 0.06 -0.04 0 0 0.06 -0.05 0 0 0.06 -0.05 0 0 0.06 -0.04 0 0 0.06 -0.05 0 0 0.06 -0.04 0 0c0.08,-0.07 0.15,-0.13 0.23,-0.2l0.1 -0.09 0 0 0.19 -0.17 0 0 0.19 -0.18 0 0 0.09 -0.09 0 0 0.2 -0.18 0 0 0.09 -0.09 0 0 0.09 -0.09 0 0 0.1 -0.09 0 0 0.1 -0.09 0 0 0.09 -0.09 0 -0.01 0.09 -0.08 0.1 -0.1 0 0 0.09 -0.09 0 0 0.09 -0.09 0 0 0.1 -0.09 0.09 -0.09 0 0 0.09 -0.1 0 0 0.1 -0.09 0.09 -0.09 0 0 0.09 -0.1 0.09 -0.09 0 0 0.09 -0.1 0.09 -0.09 0 -0.01 0.09 -0.09 0.1 -0.09 0 0 0.08 -0.1 0 0 0.1 -0.09 0 0 0.09 -0.1 0 0 0.09 -0.09 0 0 0.09 -0.1 0 0 0.08 -0.1 0 0 0.1 -0.1 0 0 0.08 -0.09 0 0 0.09 -0.1 0 0 0.09 -0.09 0 0 0.08 -0.1 0.09 -0.1 0 0 0.09 -0.09 0 -0.01 0.09 -0.09 0 0 0.08 -0.1 0 0 0.09 -0.1 0 0 0.09 -0.1 0 0 0.08 -0.1 0 0 0.09 -0.1 0 0 0.09 -0.1 0 0 0.08 -0.1 0 0 0.08 -0.1 0 0 0.09 -0.1 0 0 0.08 -0.1 0 0 0.09 -0.1 0 0 0.08 -0.1 0 0 0.16 -0.19 0.01 -0.01 0 0 0.08 -0.1 0 0 0.09 -0.1 0 0 0.08 -0.1 0 -0.01 0.08 -0.1 0 0 0.08 -0.1 0 0 0.08 -0.11 0 0 0.08 -0.09 0 0 0.08 -0.1 0 -0.01 0.12 -0.14 0 0 0.11 -0.15 0 0 0.11 -0.15 0 0 0.1 -0.15 0 0 0.11 -0.15 0 0 0.11 -0.15 0 0 0.09 -0.14 0 0 0.1 -0.15 0 0 0.1 -0.15 0 0 0.1 -0.15 0 -0.01c0.06,-0.1 0.12,-0.2 0.18,-0.31l0 0 0.09 -0.14 0 0 0.09 -0.16 0 0 0.08 -0.16 0 0 0.09 -0.15 0 0 0.08 -0.16 0 0 0.07 -0.16 0 0 0.08 -0.15 0 0 0.07 -0.17 0 0 0.08 -0.16 0 0 0.06 -0.15 0 0 0.07 -0.17 0 0 0.06 -0.16 0 0 0.07 -0.16 0 0 0.06 -0.17 0 0 0.06 -0.16 0 0 0.06 -0.17 0 0 0.05 -0.16 0 0 0.05 -0.17 0 0 0.05 -0.17 0 0 0.05 -0.16 0.05 -0.17 0 0 0.04 -0.17 0 0 0.04 -0.18 0 0 0.03 -0.16 0 0 0.04 -0.18 0 0 0.03 -0.17 0 0 0.03 -0.18 0 0 0.03 -0.17 0.03 -0.18 0 0 0.02 -0.17 0 0 0.03 -0.18 0 0 0.02 -0.18 0 0 0.01 -0.18 0 0 0.02 -0.17 0 -0.01 0.01 -0.17 0 0 0.01 -0.18 0 -0.01 0 -0.18 0.01 0 0 -0.18 0.01 -0.18 0 -0.19 -0.01 -0.18 0 0 -0.01 -0.18 0 -0.01 0 -0.18 0 0 -0.01 -0.19 0 -0.01 -0.01 -0.18 0 0 -0.02 -0.19 0 0 -0.02 -0.19 0 0 -0.02 -0.19 0 0c-0.02,-0.26 -0.06,-0.52 -0.1,-0.77l0 -0.01zm8.98 21.12l0 0c-0.1,-0.08 -0.21,-0.16 -0.31,-0.23l0 0c-0.1,-0.08 -0.21,-0.16 -0.31,-0.23l0 -0.01c-0.11,-0.07 -0.22,-0.14 -0.33,-0.22l0 0c-0.11,-0.07 -0.22,-0.13 -0.33,-0.2l0 0c-0.12,-0.07 -0.23,-0.14 -0.35,-0.2l0 0c-0.12,-0.07 -0.24,-0.13 -0.36,-0.19l0 0c-0.11,-0.06 -0.23,-0.12 -0.36,-0.18l0 0c-0.12,-0.06 -0.24,-0.11 -0.37,-0.16l0 -0.01c-0.12,-0.05 -0.25,-0.1 -0.38,-0.15 -0.12,-0.05 -0.25,-0.1 -0.39,-0.15l0 0c-0.13,-0.05 -0.26,-0.09 -0.39,-0.13l0 0c-0.13,-0.05 -0.26,-0.09 -0.4,-0.14l0 0c-0.13,-0.03 -0.27,-0.08 -0.41,-0.11l0 0c-0.13,-0.04 -0.27,-0.07 -0.41,-0.11 -0.13,-0.03 -0.28,-0.07 -0.41,-0.1l0 0c-0.15,-0.03 -0.29,-0.06 -0.43,-0.09l0 0c-0.14,-0.03 -0.28,-0.05 -0.43,-0.08 -0.14,-0.02 -0.28,-0.04 -0.43,-0.07l0 0c-0.14,-0.01 -0.29,-0.04 -0.44,-0.06l0 0c-0.14,-0.02 -0.29,-0.04 -0.43,-0.05l0 0c-0.15,-0.02 -0.3,-0.03 -0.45,-0.04l0 0c-0.14,-0.01 -0.29,-0.03 -0.44,-0.03l0 -0.01c-0.15,-0.01 -0.3,-0.02 -0.45,-0.02l0 0c-0.15,-0.01 -0.3,-0.02 -0.45,-0.02l0 0c-0.15,0 -0.3,-0.01 -0.45,-0.01l0 0c-0.15,0 -0.3,0 -0.46,0l0 0c-0.15,0.01 -0.29,0.01 -0.44,0.01 -0.16,0 -0.31,0.01 -0.46,0.02l0 0c-0.15,0.01 -0.3,0.01 -0.45,0.03l0 0c-0.15,0 -0.31,0.02 -0.46,0.03l0 0c-0.14,0.01 -0.29,0.02 -0.44,0.04l0 0c-0.16,0.01 -0.31,0.03 -0.46,0.04l0 0c-0.15,0.02 -0.3,0.04 -0.45,0.06l0 0c-0.14,0.03 -0.29,0.05 -0.44,0.07 -0.15,0.02 -0.3,0.04 -0.45,0.07l0 0c-1.03,0.18 -2.04,0.42 -3,0.71l0 0c-0.27,0.08 -0.55,0.17 -0.81,0.26l0 0c-0.14,0.05 -0.27,0.09 -0.4,0.14 -0.13,0.05 -0.26,0.1 -0.39,0.15l0 0c-0.13,0.05 -0.26,0.11 -0.38,0.16l0 0c-0.26,0.1 -0.5,0.21 -0.74,0.33l0 0c-0.37,0.17 -0.72,0.35 -1.06,0.53l0 0c-1.34,0.76 -3.65,2.48 -4.42,3.48 1.16,-0.53 2.58,-0.63 3.6,-0.48l0.11 0.01 0 0 0.11 0.02 0 0 0.12 0.02 0 0 0.11 0.01 0 0 0.11 0.02 0 0 0.12 0.01 0 0 0.11 0.02 0 0 0.11 0.02 0.12 0.01 0.11 0.02 0.12 0.01 0 0 0.12 0.02 0 0 0.11 0.02 0.12 0.01 0.11 0.02 0.12 0.02 0.11 0.01 0.11 0.02 0.12 0.02 0.11 0.01 0.12 0.02 0.11 0.02 0 0 0.11 0.01 0.12 0.02 0.11 0.02 0 0 0.12 0.01 0.11 0.02 0.11 0.02 0 0 0.12 0.02 0.11 0.02 0 0 0.12 0.02 0.11 0.02 0 0 0.12 0.01 0 0 0.11 0.02 0 0 0.12 0.02 0.11 0.02 0 0 0.12 0.02 0 0 0.11 0.02 0 0 0.12 0.02 0 0 0.11 0.01 0 0 0.11 0.02 0 0 0.12 0.03 0 0 0.11 0.02 0 0 0.11 0.02 0 0 0.11 0.01 0 0 0.12 0.03 0 0 0.22 0.04 0 0 0.11 0.01 0 0 0.34 0.07 0 0 0.11 0.02 0 0 0.11 0.02 0 0 0.56 0.09 0 0 0.23 0.04 0 0 0.11 0.02 0.33 0.06 0 0 0.34 0.05 0 0 0.11 0.01 0 0 0.11 0.02 0 0 0.23 0.02 0 0 0.11 0.02 0.11 0.01 0 0 0.11 0.02 0.12 0.01 0 0 0.11 0 0.11 0.02 0.11 0.01 0.11 0.01 0.12 0 0.11 0.01 0.12 0.01 0.11 0.01 0.11 0 0.11 0 0.11 0.01 0.12 0 0 0 0.11 0 0 0 0.12 0 0 0 0.11 0 0 0 0.11 0 0.11 0 0 0 0.12 -0.01 0 0 0.11 0 0 0 0.11 0 0 0c0.42,-0.03 0.84,-0.07 1.26,-0.15 0.67,-0.11 1.32,-0.26 1.96,-0.43l0 0c0.32,-0.1 0.63,-0.19 0.95,-0.29l0 0 0.32 -0.11 0.31 -0.11 0 0 0.15 -0.05 0.16 -0.06 0 0 0.16 -0.06 0.15 -0.05 0 0 0.16 -0.06 0 0 0.15 -0.07 0.15 -0.05 0.16 -0.07 0.15 -0.06 0 0 0.15 -0.07 0 0 0.16 -0.06 0 0 0.15 -0.07 0 0 0.15 -0.06 0 0 0.15 -0.07 0 0 0.16 -0.07 0.15 -0.07 0.15 -0.06 0 0 0.15 -0.07 0.15 -0.08 0.15 -0.07 0 0 0.15 -0.07 0 0 0.15 -0.07 0 0 0.15 -0.07 0 0 0.15 -0.08 0.15 -0.07 0 0 0.15 -0.08 0 0 0.15 -0.07 0.16 -0.08 0.14 -0.07 0 0 0.15 -0.08 0 0 0.15 -0.08 0 0 0.15 -0.07 0.15 -0.08 0.15 -0.08 0 0 0.15 -0.08 0 0 0.15 -0.08 0 0 0.15 -0.08 0 0 0.15 -0.08 0.15 -0.08 0 0 0.15 -0.08 0 0 0.15 -0.08 0 0 0.15 -0.08 0 0z"/>
    <path class="fil1" d="M16.1 31.7c-0.75,1.27 -1.49,3.36 -2.28,4.61 -1.65,2.61 -3.1,4.57 -5.06,6.92 -1.76,2.14 -5.71,3.92 -8.63,4.24 -0.85,-2.02 -0.64,-2.92 -0.51,-4.44 0.38,-4.71 2.12,-7.74 4.38,-11.72 0.86,-1.53 2.21,-2.8 3.43,-4.09 1.99,-2.09 3.9,-3.5 4.97,-6.31 0.66,-1.24 2.06,-3.27 2.62,-4.32 0.43,-0.82 0.13,-0.96 0.29,-1.75l0 -0.01 0 0 0.02 -0.09 0 0 0.01 -0.08 0 -0.01 0.02 -0.08 0 -0.01 0 -0.06 0.01 -0.02 0 0 0.01 -0.08 0 -0.01 0 -0.01 0.01 -0.07 0 -0.02c0.01,-0.08 0.02,-0.16 0.02,-0.24l0 -0.01c0,-0.06 0,-0.11 0,-0.17l2.1 4.47c0.55,6.49 1.22,7.77 -1.41,13.36l0 0zm-15.11 14.23c4.58,-1.02 9.48,-6.18 12.3,-11.95 2.83,-5.8 3.69,-10.73 2.61,-15.61 -1.79,3.43 -5.16,7.64 -7.96,10.45 -1.39,1.71 -2.92,3.44 -3.92,5.36 -1.34,2.58 -3.28,7.55 -3.03,11.75l0 0z"/>
    <path class="fil0" d="M37.17 41.19c0,0 -2.01,-4.77 -3.7,-8.05 -1.68,-3.27 -3.7,-4.79 -3.7,-4.79l-2.29 -1.62c0,0 3.2,5.02 5.1,8.84 1.9,3.82 2.93,6.45 2.93,6.45l1.67 -0.05 -0.01 -0.78z"/>
    <path class="fil0" d="M70.89 37.76c0,0 13.2,-0.45 19.41,-2.46 6.21,-2.01 9.88,-3.99 9.88,-3.99l-0.91 1.98c0,0 -2.76,2 -5.49,2.77 -2.73,0.78 -4.49,1.34 -5.44,1.53 -0.95,0.19 -6.4,1.07 -7.78,1.22 -1.38,0.14 -10.49,0.94 -11.41,0.53 -0.92,-0.42 1.74,-1.58 1.74,-1.58l0 0z"/>
    <path class="fil1" d="M86.24 25.17c0.84,-2.11 1.49,-3.87 2.24,-5.59 0.13,-0.3 0.69,-0.6 1.02,-0.57 0.29,0.02 0.71,0.46 0.79,0.79 0.28,1.14 -1.36,4.73 -2.43,5.24 -0.44,0.2 -1.04,0.1 -1.62,0.13l0 0z"/>
    <path class="fil1" d="M103.88 45.24c0.73,-0.83 1.31,-0.78 2.12,-0.04 1.09,1 2.39,1.76 3.55,2.7 0.33,0.27 0.48,0.78 0.71,1.17 -0.36,0.2 -0.81,0.63 -1.08,0.53 -2.3,-0.79 -4.68,-1.53 -5.3,-4.36l0 0z"/>
    <path class="fil1" d="M36.73 48c1.12,1.66 2.23,3.19 3.16,4.82 0.12,0.21 -0.72,0.95 -1.11,1.45 -0.96,-0.96 -2.07,-1.83 -2.83,-2.93 -0.61,-0.89 -0.98,-2.1 0.78,-3.34l0 0z"/>
   </g>
  </g>
 </g>
</svg>
